/* XPM */
static char *_219b4c184fe421aa5a8fd5454622094REqZSG4i1ohWYRzw[] = {
/* columns rows colors chars-per-pixel */
"64 64 4 1 ",
"  c None",
". c #FFBB16",
"X c #F56A4A",
"o c #EF3E23",
/* pixels */
"                                                                ",
"                                                                ",
"                                                                ",
"                                                                ",
"                                                                ",
"                                                                ",
"                                                                ",
"                                                                ",
"                                                                ",
"                                                                ",
"                                                                ",
"                                                                ",
"                                                                ",
"                                                                ",
"                                                                ",
"                                                                ",
"                                                                ",
"                                                                ",
"                                                                ",
"                                                                ",
"                                                                ",
"                                                                ",
"                          ............                          ",
"                          ............                          ",
"        ..              ..XXXXXXXXXXXX..              ..        ",
"        ..              ..XXXXXXXXXXXX..              ..        ",
"      ..oo..  ..      ..XXXXXXXXXXXXXXXX..      ..  ..oo..      ",
"      ..oo..  ..      ..XXXXXXXXXXXXXXXX..      ..  ..oo..      ",
"      ..ooXX..XX..  ..XXXX..XXXXXXXX..XXXX..  ..XX..XXoo..      ",
"      ..ooXX..XX..  ..XXXX..XXXXXXXX..XXXX..  ..XX..XXoo..      ",
"      ..ooXXXXXXXX....XXXX....XXXX....XXXX....XXXXXXXXoo..      ",
"      ..ooXXXXXXXX....XXXX....XXXX....XXXX....XXXXXXXXoo..      ",
"        ..oooooooo....XXXXXXXXXXXXXXXXXXXX....oooooooo..        ",
"        ..oooooooo....XXXXXXXXXXXXXXXXXXXX....oooooooo..        ",
"          ........  ..ooXXXXXXXXXXXXXXXXoo..  ........          ",
"          ........  ..ooXXXXXXXXXXXXXXXXoo..  ........          ",
"                  ......ooXXXXXXXXXXXXoo......                  ",
"                  ......ooXXXXXXXXXXXXoo......                  ",
"                ..XXXX....................XXXX..                ",
"                ..XXXX....................XXXX..                ",
"              ..XXXX..                    ..XXXX..              ",
"              ..XXXX..                    ..XXXX..              ",
"              ..oo..                        ..oo..              ",
"              ..oo..                        ..oo..              ",
"              ..oo..                        ..oo..              ",
"              ..oo..                        ..oo..              ",
"                ..                            ..                ",
"                ..                            ..                ",
"                                                                ",
"                                                                ",
"                                                                ",
"                                                                ",
"                                                                ",
"                                                                ",
"                                                                ",
"                                                                ",
"                                                                ",
"                                                                ",
"                                                                ",
"                                                                ",
"                                                                ",
"                                                                ",
"                                                                ",
"                                                                "
};
