/* XPM */
static char *_66b255330434b0cac87ea598b0faf7f0NBTEONVIEcJtzTb[] = {
/* columns rows colors chars-per-pixel */
"64 64 5 1 ",
"  c None",
". c black",
"X c #E51C23",
"o c #C71411",
"O c #6C0000",
/* pixels */
"                                                                ",
"                                                                ",
"                                                                ",
"                                                                ",
"                                                                ",
"                                                                ",
"                                                                ",
"                                                                ",
"                                                                ",
"                                                                ",
"                                                                ",
"                                                                ",
"                                                                ",
"                                                                ",
"                                                                ",
"                                                                ",
"                                                                ",
"                                                                ",
"                                                                ",
"                                                                ",
"                                                                ",
"                                                                ",
"                          ............                          ",
"                          ............                          ",
"        ..              ..XXXXXXXXXXXX..              ..        ",
"        ..              ..XXXXXXXXXXXX..              ..        ",
"      ..oo..  ..      ..XXXXXXXXXXXXXXXX..      ..  ..oo..      ",
"      ..oo..  ..      ..XXXXXXXXXXXXXXXX..      ..  ..oo..      ",
"      ..ooXX..XX..  ..XXXXOOXXXXXXXXOOXXXX..  ..XX..XXoo..      ",
"      ..ooXX..XX..  ..XXXXOOXXXXXXXXOOXXXX..  ..XX..XXoo..      ",
"      ..ooXXXXXXXX....XXXXOOOOXXXXOOOOXXXX....XXXXXXXXoo..      ",
"      ..ooXXXXXXXX....XXXXOOOOXXXXOOOOXXXX....XXXXXXXXoo..      ",
"        ..oooooooo....XXXXXXXXXXXXXXXXXXXX....oooooooo..        ",
"        ..oooooooo....XXXXXXXXXXXXXXXXXXXX....oooooooo..        ",
"          ........  ..ooXXXXXXXXXXXXXXXXoo..  ........          ",
"          ........  ..ooXXXXXXXXXXXXXXXXoo..  ........          ",
"                  ......ooXXXXXXXXXXXXoo......                  ",
"                  ......ooXXXXXXXXXXXXoo......                  ",
"                ..XXXX....................XXXX..                ",
"                ..XXXX....................XXXX..                ",
"              ..XXXX..                    ..XXXX..              ",
"              ..XXXX..                    ..XXXX..              ",
"              ..oo..                        ..oo..              ",
"              ..oo..                        ..oo..              ",
"              ..oo..                        ..oo..              ",
"              ..oo..                        ..oo..              ",
"                ..                            ..                ",
"                ..                            ..                ",
"                                                                ",
"                                                                ",
"                                                                ",
"                                                                ",
"                                                                ",
"                                                                ",
"                                                                ",
"                                                                ",
"                                                                ",
"                                                                ",
"                                                                ",
"                                                                ",
"                                                                ",
"                                                                ",
"                                                                ",
"                                                                "
};
