/* XPM */
static char *_fbca041f32d4a39a814696a90cf4c36YZYhXfut8Rme0Qfv[] = {
/* columns rows colors chars-per-pixel */
"64 64 71 1 ",
"  c None",
". c black",
"X c #6C0000",
"o c #A9151A",
"O c #AB151A",
"+ c #AC151A",
"@ c #AD151A",
"# c #AE151B",
"$ c #AF151B",
"% c #AF161B",
"& c #B0151B",
"* c #B2151B",
"= c #B0161B",
"- c #B1161B",
"; c #B2161B",
": c #B3161B",
"> c #B4161B",
", c #B5161B",
"< c #B3161C",
"1 c #B4161C",
"2 c #B5161C",
"3 c #B6161C",
"4 c #B7161C",
"5 c #B7171C",
"6 c #B8161C",
"7 c #B9161C",
"8 c #B8171C",
"9 c #B9171C",
"0 c #B9161D",
"q c #B9171D",
"w c #BA171C",
"e c #BB171C",
"r c #BA171D",
"t c #BB171D",
"y c #BC171D",
"u c #BD171D",
"i c #BE171D",
"p c #BF171D",
"a c #BE181D",
"s c #BF181D",
"d c #C71411",
"f c #C0171D",
"g c #C1171D",
"h c #C2171D",
"j c #C1171E",
"k c #C0181D",
"l c #C1181D",
"z c #C2181D",
"x c #C1181E",
"c c #C2181E",
"v c #C3181E",
"b c #C4181E",
"n c #C5181E",
"m c #C6181E",
"M c #C7181E",
"N c #C8181E",
"B c #C9181E",
"V c #C8191E",
"C c #C9191E",
"Z c #C8181F",
"A c #C9191F",
"S c #CA191F",
"D c #CB191F",
"F c #CC191F",
"G c #CD191F",
"H c #CE191F",
"J c #D01A20",
"K c #D21A20",
"L c #D31A20",
"P c #D41A20",
"I c #E51C23",
/* pixels */
"                                                                ",
"                                                                ",
"                                                                ",
"                                                                ",
"                                                                ",
"                                                                ",
"                                                                ",
"                                                                ",
"                                                                ",
"                                                                ",
"                                                                ",
"                                                                ",
"                                                                ",
"                                                                ",
"                                                                ",
"                                                                ",
"                                                                ",
"                                                                ",
"                            yyyyyyyyy                           ",
"                         yyyggggggggyyy                         ",
"                       7yyycccbccccccgyy7                       ",
"                     377yggcbbbbbbbbccyy773                     ",
"                    377yyg............cyy77,                    ",
"                   <37yycb............bcyy73<                   ",
"        ..        :,37yg..IIIIIIIIIIII..gy77,:        ..        ",
"        ..        :,7ycb..IIIIIIIIIIII..bcy7,:$       ..        ",
"      ..dd..  .. $:37y..IIIIIIIIIIIIIIII..y73:$ ..  ..dd..      ",
"      ..dd..  ..$$37yg..IIIIIIIIIIIIIIII..gy73:$..  ..dd..      ",
"      ..ddII..II..37..IIIIXXIIIIIIIIXXIIII..73..II..IIdd..      ",
"      ..ddII..II..37..IIIIXXIIIIIIIIXXIIII..73..II..IIdd..      ",
"      ..ddIIIIIIII....IIIIXXXXIIIIXXXXIIII....IIIIIIIIdd..      ",
"      ..ddIIIIIIII....IIIIXXXXIIIIXXXXIIII....IIIIIIIIdd..      ",
"        ..dddddddd....IIIIIIIIIIIIIIIIIIII....dddddddd..        ",
"        ..dddddddd....IIIIIIIIIIIIIIIIIIII....dddddddd..        ",
"          ........37..ddIIIIIIIIIIIIIIIIdd..y3........          ",
"          ........37..ddIIIIIIIIIIIIIIIIdd..73........          ",
"                $:......ddIIIIIIIIIIIIdd......:$O               ",
"                O$......ddIIIIIIIIIIIIdd......$$                ",
"                ..IIII....................IIII..                ",
"                ..IIII....................IIII..                ",
"              ..IIII..ygbVVHLLLPPLLLHVVbgy..IIII..              ",
"              ..IIII..7ygcbVVHHHHHHVVbcgy7..IIII..              ",
"              ..dd..:337yycbbbVVVVbbbcgy773:..dd..              ",
"              ..dd.. :377yaccccbbccccay773: ..dd..              ",
"              ..dd..  :,377yyyyggyyyy773,:  ..dd..              ",
"              ..dd..    ,377777yyy77773,    ..dd..              ",
"                ..         7777777773         ..                ",
"                ..                            ..                ",
"                                                                ",
"                                                                ",
"                                                                ",
"                                                                ",
"                                                                ",
"                                                                ",
"                                                                ",
"                                                                ",
"                                                                ",
"                                                                ",
"                                                                ",
"                                                                ",
"                                                                ",
"                                                                ",
"                                                                ",
"                                                                "
};
