/* XPM */
static char *f74cad609c594dd2bd94caa9a09afd07FNUHXuXUJObReH65[] = {
/* columns rows colors chars-per-pixel */
"64 64 5 1 ",
"  c None",
". c #170C00",
"X c #E51C23",
"o c #C71411",
"O c #6C0000",
/* pixels */
"                                                                ",
"                                                                ",
"                                                                ",
"                                                                ",
"                                                                ",
"                                                                ",
"                                                                ",
"                                                                ",
"                                                                ",
"                                                                ",
"                                                                ",
"                                                                ",
"                                                                ",
"                                                                ",
"                                                                ",
"                                                                ",
"                                                                ",
"                                                                ",
"                                                                ",
"                                                                ",
"                                                                ",
"                                                                ",
"                          ............                          ",
"                          ............                          ",
"        ..              ..XXXXXXXXXXXX..              ..        ",
"        ..              ..XXXXXXXXXXXX..              ..        ",
"      ..oo..  ..      ..XXXXXXXXXXXXXXXX..      ..  ..oo..      ",
"      ..oo..  ..      ..XXXXXXXXXXXXXXXX..      ..  ..oo..      ",
"      ..ooXX..XX..  ..XXXXOOXXXXXXXXOOXXXX..  ..XX..XXoo..      ",
"      ..ooXX..XX..  ..XXXXOOXXXXXXXXOOXXXX..  ..XX..XXoo..      ",
"      ..ooXXXXXXXX....XXXXOOOOXXXXOOOOXXXX....XXXXXXXXoo..      ",
"      ..ooXXXXXXXX....XXXXOOOOXXXXOOOOXXXX....XXXXXXXXoo..      ",
"        ..oooooooo....XXXXXXXXXXXXXXXXXXXX....oooooooo..        ",
"        ..oooooooo....XXXXXXXXXXXXXXXXXXXX....oooooooo..        ",
"          ........  ..ooXXXXXXXXXXXXXXXXoo..  ........          ",
"          ........  ..ooXXXXXXXXXXXXXXXXoo..  ........          ",
"                  ......ooXXXXXXXXXXXXoo......                  ",
"                  ......ooXXXXXXXXXXXXoo......                  ",
"                ..XXXX....................XXXX..                ",
"                ..XXXX....................XXXX..                ",
"              ..XXXX..                    ..XXXX..              ",
"              ..XXXX..                    ..XXXX..              ",
"              ..oo..                        ..oo..              ",
"              ..oo..                        ..oo..              ",
"              ..oo..                        ..oo..              ",
"              ..oo..                        ..oo..              ",
"                ..                            ..                ",
"                ..                            ..                ",
"                                                                ",
"                                                                ",
"                                                                ",
"                                                                ",
"                                                                ",
"                                                                ",
"                                                                ",
"                                                                ",
"                                                                ",
"                                                                ",
"                                                                ",
"                                                                ",
"                                                                ",
"                                                                ",
"                                                                ",
"                                                                "
};
