/* XPM */
static char *_377d12a15c740b48aa5f431ae8d2b70[] = {
/* columns rows colors chars-per-pixel */
"64 64 7 1 ",
"  c #AD3C3C",
". c black",
"X c #FF9233",
"o c #FF315A",
"O c #E61942",
"+ c #FF708D",
"@ c white",
/* pixels */
"                                                                ",
" . . . . . . . . . . . . . . . . . . . . . . . . . . . . . . .  ",
"  . . . . . . . . . . . . . . . . . . . . . . . . . . . . . . . ",
" . . . . . . . . . . . . . . . . . . . . . . . . . . . . . . .  ",
"  . . . . . . . . . . . . . . . . . . . . . . . . . . . . . . . ",
" . . . . . . . . . . . . . . . . . . . . . . . . . . . . . . .  ",
"  . . . . . . . . . . . . . . . . . . . . . . . . . . . . . . . ",
" . . . . . . . . . . . . . . . . . . . . . . . . . . . . . . .  ",
"  . . . . . . . . . . . . . . . . . . . . . . . . . . . . . . . ",
" . . . . . . . . . . . . . . . . . . . . . . . . . . . . . . .  ",
"  . . . . . . . . . . . . . . . . . . . . . . . . . . . . . . . ",
" . . . . . . . . . . . . . . . . . . . . . . . . . . . . . . .  ",
"  . . . . . ... . . .X... . ...X. . . . . . . . . . . . . . . . ",
" . . . . . . . . . ..X.. . . ..X.. . . . . . . . ... . . . . .  ",
"  . . . . ...X. . . ... . . . ... . . . . . . . ..o.. . . . . . ",
" . . . . ..XXXX............... . . ........... .ooooo. . . . .  ",
"  . . . . ...X. ..ooooooooOOO.. ...ooooooooOOO. ..o.. . . . . . ",
" . . . . . ..X.. .ooooooooOOO... ..ooooooooOOO....o... . . . .  ",
"  . . . . . ... ..ooooooooOOO.. ...ooooooooOOO. . . . . . . . . ",
" . . . . . . . . .ooooooooOOO... ..ooooooooOOO.. . . . . . . .  ",
"  . . . . . . . ..ooooooooOOO.. ...ooooooooOOO. . . . . . . . . ",
" . . . . . . .....ooooooooOOO......ooooooooOOO...... . . . . .  ",
"  . . . . ...oooooooooooooooooooooooooooooooooOOOOO.. . . . . . ",
" . . . . . ..ooooooooooooooo+oooooo+ooooooooooOOOOO... . . . .  ",
"  . . . . ...ooooooooooooooo+oooooo+ooooooooooOOOOO.. . . . . . ",
" . . . . . ..ooooooooo@@..ooooooooooo...@@ooooooOOO... . . . .  ",
"  . . . . ...oooooooo@......oooooooo......@oooooOOO.. . . . . . ",
" . . . . . ..ooooooo@....@@@.oooooo.@@@....@ooooOOO... . . . .  ",
"  . . . . ...ooooooo@....@@@.oooooo.@@@....@ooooOOO.. . . . . . ",
" . . . . . ..ooooooo@.@@.@@@.oooooo.@@@.@@.@ooooOOO... . . . .  ",
"  . . . . ...ooooooo@@.......oooooo.......@@ooOOOOO.. . . . . . ",
" . . . . . ..ooooooo@@.......oooooo.......@@ooOOOOO... . . . .  ",
"  . . . . ...oooooooo@@@....oooooooo....@@@oooOOOOO.. . . . . . ",
" . . . . . . .....oooo@@@@ooooooooooo@@@@@oOOO...... . . . . .  ",
"  . . . . . . . ..oooooooooooooooooooooooooOOO. . . . . . . . . ",
" . . . . . . . . .oooooooooooooooooooooooooOOO.. . . . . . . .  ",
"  . . . . . . . ..ooo+++ooooooooooooooo+++OOOO. . . . . . . . . ",
" . . . . . . . . .ooooooooooo..oo..oooooOOOOOO.. . . . . . . .  ",
"  . . . . . . . . ......ooooooo..ooooOOO....... . . . . . . . . ",
" . . . . . . . . .......ooooooo..ooooOOO...... . ... . . . . .  ",
"  . . . . . . . . . . ..oooooooooooooOOO... . . ..X.. . . . . . ",
" . . . . . . .o... . ...oooooooooooOOOOO.. . . . ... . . . . .  ",
"  . . . . . ..o.. . . ..oooooooooooOOOOO... . . . . . . . . . . ",
" . . . . . ...o... . ...oooooooooooOOOOO.. . . ... . . . . . .  ",
"  . . . . .ooooooo... . .....oooOOO...... . . ..oo. . . . . . . ",
" . . . . . ...o... . . . . ..oooOOO. . . . . ...oo.... . . . .  ",
"  . . . . ....o.... . . . . .oooOOO.. . . . . ..oo... . . . . . ",
" . . . . . . .o... . ... . ..oooOOO. . . . ...ooooooo. . . . .  ",
"  . . . . . . . . . ..XX. . .oooOOO.. . . . . ..oo... . . . . . ",
" . . . . . . . . . ..XXXX. . ....... . . . . . .oo.. . . . . .  ",
"  . . . . . . . . . .XXXX.. ....... . . . . . ..oo. . . . . . . ",
" . . . . . . . . . . .XX.. . . . . . . . ... . ... . . . . . .  ",
"  . . . . . . ...X... ... . . . . . . . ..X.. . . . . . . . . . ",
" . . . . . . . ..X.. ... . . . . . . . ...X. . . . . . . . . .  ",
"  . . . . . . . ... . . . . . . . . . . . . . . . . . . . . . . ",
" . . . . . . . . . . . . . . . . . . . . . . . . . . . . . . .  ",
"  . . . . . . . . . . . . . . . . . . . . . . . . . . . . . . . ",
" . . . . . . . . . . . . . . . . . . . . . . . . . . . . . . .  ",
"  . . . . . . . . . . . . . . . . . . . . . . . . . . . . . . . ",
" . . . . . . . . . . . . . . . . . . . . . . . . . . . . . . .  ",
"  . . . . . . . . . . . . . . . . . . . . . . . . . . . . . . . ",
" . . . . . . . . . . . . . . . . . . . . . . . . . . . . . . .  ",
"                                                                ",
"................................................................"
};
