/* XPM */
static char *pink_texture81741319720[] = {
/* columns rows colors chars-per-pixel */
"64 64 182 2 ",
"   c #FEDAE8",
".  c #FED9E8",
"X  c #FED8E7",
"o  c #FED8E6",
"O  c #FED7E6",
"+  c #FED6E5",
"@  c #FED5E4",
"#  c #FED4E4",
"$  c #FED3E3",
"%  c #FED2E3",
"&  c #FED2E2",
"*  c #FED1E1",
"=  c #FED0E1",
"-  c #FECFE0",
";  c #FECEE0",
":  c #FECDDF",
">  c #FECCDE",
",  c #FECBDD",
"<  c #FECADD",
"1  c #FEC9DC",
"2  c #FEC8DB",
"3  c #FEC7DB",
"4  c #FECADC",
"5  c #FECEDF",
"6  c #FED5E5",
"7  c #FED9E7",
"8  c #FED1E2",
"9  c #FEC7DA",
"0  c #FEC6DA",
"q  c #FEC6D9",
"w  c #FEC5D9",
"e  c #FECDDE",
"r  c #FEC9DB",
"t  c #FEC4D9",
"y  c #FEC4D8",
"u  c #FEC3D8",
"i  c #FEC3D7",
"p  c #FED6E6",
"a  c #FEC2D7",
"s  c #FEC1D6",
"d  c #FEC0D6",
"f  c #FEC0D5",
"g  c #FEC2D6",
"h  c #FEBFD5",
"j  c #FEBFD4",
"k  c #FEBED4",
"l  c #FEBDD3",
"z  c #FEBCD3",
"x  c #FECFE1",
"c  c #FECBDE",
"v  c #FEBCD2",
"b  c #FEBBD2",
"n  c #FEBAD1",
"m  c #FEB9D1",
"M  c #FEB9D0",
"N  c #FEB8D0",
"B  c #FEB8CF",
"V  c #FEB7CF",
"C  c #FEBBD1",
"Z  c #FEB6CE",
"A  c #FEB5CE",
"S  c #FEB5CD",
"D  c #FECCDF",
"F  c #FED4E3",
"G  c #FEB7CE",
"H  c #FEB4CD",
"J  c #FEB4CC",
"K  c #FEB3CC",
"L  c #FEBAD0",
"P  c #FDB2CB",
"I  c #FDB1CB",
"U  c #FDB1CA",
"Y  c #FDB0CA",
"T  c #FDAFC9",
"R  c #FDAEC9",
"E  c #FDAEC8",
"W  c #FDADC8",
"Q  c #FDADC7",
"!  c #FDACC7",
"~  c #FEBED3",
"^  c #FDABC6",
"/  c #FDAAC6",
"(  c #FDAAC5",
")  c #FDA9C5",
"_  c #FDA8C4",
"`  c #FDA7C4",
"'  c #FDA7C3",
"]  c #FDB0C9",
"[  c #FDA9C4",
"{  c #FDA6C3",
"}  c #FDA6C2",
"|  c #FDA5C2",
" . c #FDA5C1",
".. c #FDA4C1",
"X. c #FDA3C1",
"o. c #FDA3C0",
"O. c #FDA2C0",
"+. c #FDACC6",
"@. c #FDA2BF",
"#. c #FDA1BF",
"$. c #FDA0BE",
"%. c #FDA1BE",
"&. c #FD9FBE",
"*. c #FD9FBD",
"=. c #FD9EBD",
"-. c #FD9DBC",
";. c #FD9CBB",
":. c #FD9BBB",
">. c #FD9BBA",
",. c #FD9ABA",
"<. c #FEB2CC",
"1. c #FEB0CA",
"2. c #FEAEC8",
"3. c #FD99B9",
"4. c #FD98B9",
"5. c #FEB1CB",
"6. c #FEB2CB",
"7. c #FEC5D8",
"8. c #FFC8DB",
"9. c #FFD2E3",
"0. c #FFD3E3",
"q. c #FFD2E2",
"w. c #FFCCDE",
"e. c #FD98B8",
"r. c #FD96B7",
"t. c #FD97B7",
"y. c #FFCBDD",
"u. c #FFD1E2",
"i. c #FFD7E6",
"p. c #FFDBE9",
"a. c #FFD9E8",
"s. c #FFD6E5",
"d. c #FFC8DC",
"f. c #FD9EBC",
"g. c #FD95B6",
"h. c #FEABC7",
"j. c #FFC5D9",
"k. c #FFD4E4",
"l. c #FFDAE8",
"z. c #FFCDE0",
"x. c #FD94B5",
"c. c #FEADC8",
"v. c #FFC9DC",
"b. c #FFD6E6",
"n. c #FD94B6",
"m. c #FFDAE9",
"M. c #FFC7DB",
"N. c #FDABC7",
"B. c #FEACC7",
"V. c #FFD8E7",
"C. c #FD97B8",
"Z. c #FFD5E4",
"A. c #FEA4C1",
"S. c #FFD0E1",
"D. c #FEAAC6",
"F. c #FEBDD4",
"G. c #FFCEE0",
"H. c #FFC6DA",
"J. c #FDA4C0",
"K. c #FEBAD2",
"L. c #FFCDDF",
"P. c #FFCFE0",
"I. c #FFD0E2",
"U. c #FEAFC9",
"Y. c #FEA9C5",
"T. c #FD9DBD",
"R. c #FFD9E7",
"E. c #FFCEDF",
"W. c #FFD5E5",
"Q. c #FFD7E7",
"!. c #FEB1CA",
"~. c #FEB6CF",
"^. c #FFBED4",
"/. c #FEABC6",
"(. c #FEB0CB",
"). c #FEADC7",
"_. c #FEA8C4",
"`. c #FEAEC9",
"'. c #FFCADD",
"]. c #FFC2D8",
"[. c #FEB3CB",
"{. c #FECCDD",
/* pixels */
"    . X o O + @ # $ % & * = - ; : : > , , < 1 1 1 2 2 3 3 3 3 3 3 3 3 3 2 2 1 1 1 4 , , > : 5 5 - = * & $ $ # 6 + O o X 7       ",
"  . X o O + @ # $ % 8 = - ; 5 : > , < 1 1 2 2 9 0 0 q w w w w w w w w w 0 0 0 9 3 2 1 1 < , > e 5 - - = 8 & $ # @ + O O X 7     ",
". X o O + 6 # $ & 8 = - ; : > , < 1 r 2 9 0 w w t y y u i i i i i i i u y y t w w 0 9 2 2 1 4 , > : 5 - = * & $ # @ + p O X .   ",
"X o O + # # $ 8 = - ; : > , < 1 2 9 9 q w y u i a a s s s d d f d d s s s g a i u y w w 0 3 2 1 < , > : ; - = & % # @ 6 p O X . ",
"o O + # $ $ & = - 5 e > , 4 2 2 9 q w y i a s s f h j j k k k k k k k j j h f d s a i u y w 9 2 r 1 , > : 5 - = 8 $ # # 6 O o 7 ",
"O + 6 # $ & = - ; : > , 1 2 9 0 w y i a s f h j k k l l l z z z z z l l l k k h h f s a i y w 0 9 2 1 < > : ; x = 8 $ # @ + O X ",
"+ @ # $ & = - 5 : c < 1 2 0 w y i a s f j k l z v b b n n n n n n n n n b b v z l k j f s a i y w 0 3 1 < , > 5 - = 8 $ # 6 + O ",
"6 # $ 8 = - 5 > c 4 2 9 q y i a s f j k z v b n m M N N B V V V V V B N N M m n C b z l j f s a u y q 9 2 4 , > : - = & $ # @ + ",
"# $ & * - ; : c < 2 9 0 w i a d h k l v C n M B V V Z Z A S S S S S A Z Z V V N M n C v l k j f g u y q 3 2 4 , D ; x * & $ # + ",
"F % 8 x 5 : c 4 2 9 w y i s f k l v C n N B G Z S H J K K K K K K K K K J H S Z Z V N L C v l k f s i y q 9 2 4 c : ; - * % F @ ",
"$ 8 = ; : > < 2 9 w y i s h k z b n M B Z S H K K P I U Y Y Y Y Y Y Y U I P K K H S Z V M n b z k h s a y w 9 2 < c : ; = 8 $ # ",
"& = - 5 > , 1 3 0 y i s h k z b n M V Z S J K P U Y Y T T R R R R R T T T Y U P P K S Z V N n b l k h s i y 0 2 1 , > 5 - = & $ ",
"8 x ; e , 4 2 0 w i s f k v n M B Z S J P I Y T R E W Q ! ! ! ! ! ! ! Q W E R T Y U P K S Z B M C v ~ h s i y 0 2 1 , e ; x 8 % ",
"= - : > 4 2 0 w u s f k v n N V Z H K I Y T E Q ! ^ ^ / ( ) ) ) ) ( ( ( ^ ^ ! W E T Y I K H Z V M n v k f s i w 0 2 4 c : - = & ",
"- 5 > , 1 9 w u a f k z n M B Z H P U T E W ! ^ ( ) _ _ ` ' ' ' ' ' ` _ _ ) ( ^ ! W R T U P J Z V M n v k f a y w 9 1 < > 5 x * ",
"; : , 1 2 0 y a s j l b M B Z H P Y ] E ! ^ ( [ _ ' { } | |  . .| | | } { ' _ ) ( ^ ! E T U P J Z B M b l k d a y 0 2 4 , : - = ",
"5 > < 2 9 w i s h l b n B Z H P Y R E ! ( ) _ ' } | ..X.o.o.O.O.O.O.o.X... .} ' _ ) / +.W T Y P H Z B n v l h s i w 9 r < > 5 - ",
": c 1 2 q t a f k v n M V S K Y T W ! ( _ ' }  ...o.@.#.#.$.$.$.$.$.%.#.@.o...| } ' [ ( +.W T Y P H Z M C v k f a y 0 2 1 , : - ",
"e , 1 9 w u s h l b M V A K U ] E ! ( _ ' } ..o.O.#.$.$.&.*.*.*.*.*.*.$.$.#.O.o...} ' _ ( ! W T I K S V m b l h s u w 9 1 , > ; ",
"> 4 2 0 y a d k v n B Z H P ] E ! ( _ ' | ..O.#.$.*.=.-.-.-.-.-.-.-.-.-.=.*.$.#.O...| { _ ( ! E ] I J Z N n v k f a y 0 2 4 > : ",
", 1 3 w u s h l b M G S K Y E Q ^ [ ' } ..O.%.*.=.-.;.:.>.>.,.,.,.>.>.:.;.-.=.&.$.@...} ' [ / ! T Y <.S V M b l h s u w 9 1 , : ",
", 1 9 w i s k v n B Z H P T E +.) [ +.1.1.2._ @.=.;.>.,.3.3.4.4.4.3.3.,.>.;.-.*.O._ R 5.6.T ^ ^ W T I J Z B n z k d i 7.0 r , > ",
"< 2 0 y a f k b m V S K U E ! ( ) K 8.9.0.q.w.s H ..,.3.,.e.r.r.t.t.e.>.,.,.O.6.k y.u.0.0.w.n ! ! R Y K S V M b l f a y q 2 < > ",
"1 2 w u s h l n M Z J P Y W ^ ) ) n i.p.p.p.p.a.s.d.1.f.;.,.r.g.g.r.,.-.-.h.j.k.a.p.p.p.p.a.y W ^ W T P H Z N C l h s i w 3 1 , ",
"1 9 w i s h l n N Z K P T Q ^ [ ' 6.u.p.p.p.p.p.p.l.z.K -.,.3.x.x.e.>.;.c.v.a.p.p.p.p.p.p.b.C / ^ Q T I H A B n z j s i w 9 1 , ",
"1 9 w a f k z n B S K U R ! ( _ | { h a.p.p.p.p.p.p.p.s.k =.3.r.n.,.;.Z 0.p.p.p.p.p.p.p.m.M.N.` ( ! E U K S V n v k s a y 9 1 , ",
"1 0 y a f k v M V S P Y E ^ ) '  .o.B.u.p.p.p.p.p.p.p.p.V.k -.e.C.;.A Z.p.p.p.p.p.p.p.p.s.J | ' ) ^ W Y <.H G M b k d a y 0 2 < ",
"2 0 y g h k b M G H P Y W ^ ) { ..@...8.p.p.p.p.p.p.p.p.p.k.H @.A.2.S.p.p.p.p.p.p.p.p.p.S.D...{ [ ^ W Y P J Z M b F.f s y 0 2 < ",
"2 0 y s h F.b N Z J I Y W ^ _ } ..@.#.F.l.p.p.p.p.p.p.p.p.l.G.H.8.w.a.p.p.p.p.p.p.p.p.p.M.| J.} _ / W T P K Z M b l f s u q 2 < ",
"2 0 y s j l b N Z J U T W / _ } o.#.$.2.0.l.p.m.p.p.p.p.p.p.m.l.m.m.p.p.p.p.p.p.m.p.p.i.V O.o.| _ / Q T P K Z N K.l h s u q 2 < ",
"2 0 y s j l b N Z K U T W / _ } o.#.$.#.v L.u.P.k.p.p.p.p.p.p.p.p.p.p.p.p.p.p.i.S.I.P.u } @.o.| _ ( Q T P K Z N K.l h s u q 2 < ",
"2 0 y s j l b N Z J U T W / _ } o.#.$.-.$.} U.u 0.p.p.p.p.p.p.p.p.p.p.p.p.p.p.b.8.K Y...&.@.o.| _ ( Q T P K Z N K.l h s u q 2 < ",
"2 0 y s j F.b N Z J U T W / _ } X.#.$.-.:.T.b i.p.p.p.p.p.p.p.p.p.p.p.p.p.p.p.p.R.u O.-.&.@.o.| _ / Q T P K Z N K.l h s u q 2 < ",
"2 0 y s h F.b M Z J U Y W ^ _ } X.#.$.f.;.' E.p.p.p.p.p.p.p.p.p.p.p.p.p.p.p.p.p.p.k.1.*.$.O.o.} _ ^ W T P K Z N b l f s u q 2 < ",
"2 0 y g h k b M G H I Y W ^ _ { ..@.$.=.-.5.W.p.p.p.p.p.p.p.p.p.p.p.p.p.p.p.p.p.p.R.v O.$.O...} _ ^ W T P J Z M b l f s y 0 2 < ",
"2 0 y a f k b M V H P Y E ^ ) '  .o.#.=.=.A Q.p.p.p.p.p.p.p.l.s.W.V.p.p.p.p.p.p.p.a.l o.$.o. .' ) ^ W Y <.H G M b k f g y 0 2 < ",
"1 9 w a f k v m V S P U R ! ( ` | o.#.&.*.!.W.p.p.p.p.p.p.p.q.j.M.w.l.p.p.p.p.p.p.i.~.#.#.X.| ' ( ! E Y K S V n b k d a y 9 1 , ",
"1 9 w i d h z n B A K I T ! ( _ } ..O.$.=._ w.p.p.p.p.p.p.l.H.m ^.k V.p.p.p.p.p.p.G./.$.O...} _ ( ! T I J S B n z j s a w 9 1 , ",
"4 3 w u s h l b M Z J P Y W ^ ) ' | o.#.&.#.b Q.p.p.p.p.p.i.m K n (.0.p.p.p.p.p.V.l o.#.o.| ' [ ^ W T P H Z N C l h s i w 3 1 c ",
"< 2 0 y a f k b M V S K U R ! ( _ { ..O.%.&.) w.l.p.p.p.p.9.)._.`.} w.p.p.p.p.V.'./.#.O...{ _ ( ! E Y K S V M b F.f a y 0 2 4 > ",
"< r 0 y a d k v n B A J I T W ^ ) ' | ..@.$.O.V w.R.p.p.p.'...=.&.&.].l.p.m.s.0 K o.@.o.| ' ) ^ W T U K Z V n v k d a y 0 2 < > ",
", 1 9 w i s h l b M Z S P Y R ! ( _ ' | o.@.$.O./.h S.b.q.G -.,.,.:.1.E.0.w.V ` O.@.o. .' [ / ! E Y P H V N C l j s u w 9 1 , e ",
"> < 2 0 y a f k v n B Z J P Y E +.( [ ' | X.O.#.$.O.).K 2.#.;.;.;.;.$.^ 2.) @.#.@.o.| { _ ( ! W ] P J Z B m v k f a y q 2 4 > : ",
"> < 1 9 w u s j l C M V S K Y T Q ^ ( _ { | ..O.#.$.$.$.*.=.=.=.=.=.=.*.$.$.#.O.X.| { ` ) ^ W T U P S V M C l j s i w 0 2 < > 5 ",
": , 4 2 q y a f k v n N Z H P U T W ^ ( _ ' } ....o.@.#.#.$.$.$.$.$.#.#.@.O.X...| ' _ ) ^ Q T Y 6.J Z B n v k f a y 0 3 1 , : - ",
"5 > < r 9 w u s h l b n B Z J P Y T W +.( ) _ { } | ..X.o.o.o.O.o.o.o.X... .} ' ` ) / ^ Q T Y P J A V m b l h s i w 9 2 < > 5 - ",
"- : , 1 2 0 y a f k v b M V S K I Y T W ! ^ ) _ ' { } |  ........... .| | { ' _ ) ^ ! W T Y P K S V M b l k f a y 0 2 1 , e ; = ",
"- 5 > < r 9 w u g f k z n M V S K P U T E ! ^ ( ( [ _ ' ' { { { { { ' ' _ _ ) / ^ ! E T U P K S V M n v k h s u w 9 1 < > 5 - = ",
"= - : , 4 2 0 t i s h k v n M V A J K I ] T W ! ! ^ ( ( ) ) [ [ [ ) ) ( ( ^ ! Q W T Y U [.H S V N n v k f s i w 0 2 4 , : ; = 8 ",
"* = 5 > , 1 3 w y i s h l b n M V Z H K P U Y T E W ! ! ! ^ ^ ^ ^ ^ ! ! ! W E T T U P K H Z V M n v l j s a y 0 9 1 , > 5 - 8 & ",
"& = - : > < 1 9 q y a s j l v C M B Z S J K P U Y T T R E E W W W E E R T T Y U I K J S Z B M n v l j d a y w 9 2 < > : - = 8 $ ",
"% 8 = ; : > 4 2 9 w y a s h ~ l b n N V Z S H K <.P I U Y Y Y Y Y Y Y U I P <.K H S Z V N n b z k j d a y w 9 r 4 c : ; = 8 % # ",
"$ & 8 x ; : , 4 2 9 w y a s h k l v C m N V Z A S H H K K K K K K K K K J H S Z Z V N M n v l k f s a y w 9 2 4 , e ; x 8 % $ @ ",
"# $ & = - 5 > , 1 2 0 w y i s f k l v b n M B V G Z A S S H H H H H S S A Z G V B M n C v l k f s a y w 9 2 1 , > : - = 8 $ # 6 ",
"6 # $ 8 = - 5 > , 1 2 9 q y i a d h j l v b n m M N B V V V V V V V V V B N M n n b v l k f f g i y q 9 2 1 , > : - = 8 $ # 6 + ",
"+ @ # % 8 = - 5 > , 4 1 3 0 w y a s s h k k l v b b n n n M M M M M m n n C b v l ~ k h f g a u w 0 3 1 < , > 5 - = 8 % F @ + O ",
"O 6 @ $ % 8 = - 5 > , < 1 3 0 w y u a s d h j k F.l z z v b b b b v v v z l l k k h f s a u y w 0 3 r 4 , > : - = 8 % $ # + p O ",
"O + + @ $ % 8 = - 5 : > < 1 2 9 0 w y u a a s d f h h k k k k k k k k k h h f d s s a u y w 0 9 2 1 < > : 5 - = 8 & $ # + O O X ",
"X O O + @ F % 8 = x ; : > , < 1 2 3 0 w w y u a a a s s s d d d d s s s s a a i u y t w 0 3 2 1 < , > : ; - = 8 % $ # + O o X 7 ",
"7 X O + 6 @ F % & = - - 5 e c , 4 r 2 9 0 q w y y u i a a a a a a a a i i u y y w q 0 9 2 1 4 , {.> : - = = 8 % $ @ + + O X 7   ",
"  7 X O + + @ # $ & * = - ; : > , < 4 1 2 2 9 0 0 w w w t y y y y y y w w w 0 0 9 3 2 1 4 , , > : 5 - = 8 & $ # @ + O O X 7     ",
"    7 X O O + 6 # $ & 8 = = - 5 : > > , < 4 1 2 2 2 3 9 9 9 0 0 0 9 9 9 3 2 2 1 1 1 < , > > : 5 - = = 8 % $ # @ + O o X 7       ",
"      7 X O O + 6 # F $ & 8 = = - 5 : e > > , < < 4 1 1 1 1 1 1 1 1 1 1 1 4 < < , > > e : 5 - = = 8 & $ $ # 6 + O O X 7         ",
"        . X o O + 6 @ # $ % & 8 = = - ; 5 : : > > > c , , , , , , , , , , > > > e : 5 ; - = = * & % $ # @ 6 + O o X 7           "
};
