/* XPM */
static char *f330d1066a6c4d4dac2223a590f264c4rAyu1fYNhTIGhQtj[] = {
/* columns rows colors chars-per-pixel */
"64 64 130 2 ",
"   c #FDF8FB",
".  c #FCECF4",
"X  c #FBEAF2",
"o  c #FCF2F6",
"O  c #FDFDFD",
"+  c #FEFEFE",
"@  c #FEFDFE",
"#  c #FDF2F8",
"$  c #FCEAF2",
"%  c #FCEBF3",
"&  c #FDF8FC",
"*  c #FCFBFC",
"=  c #FBEDF4",
"-  c #FCF0F6",
";  c #FCF5F9",
":  c #FCEBF2",
">  c #FDF6FA",
",  c #FEFCFE",
"<  c #FCEDF5",
"1  c #FCEEF5",
"2  c #FCF1F6",
"3  c #FDFBFD",
"4  c #FEFBFD",
"5  c #FDF1F7",
"6  c #FBEEF5",
"7  c #FDF4F9",
"8  c #FEFDFD",
"9  c #FDF5F9",
"0  c #FCEFF6",
"q  c #FCF1F7",
"w  c #FDF8FA",
"e  c #FDFAFC",
"r  c #FCF2F7",
"t  c #FCEDF4",
"y  c #FDEFF6",
"u  c #FBF3F8",
"i  c #FCF0F7",
"p  c #FEFAFC",
"a  c #FCECF3",
"s  c #FCF5F8",
"d  c #FEFCFD",
"f  c #FCEAF3",
"g  c #FBECF3",
"h  c #FDF0F6",
"j  c #FDF1F6",
"k  c #FCF2F8",
"l  c #FBEBF2",
"z  c #FCEFF5",
"x  c #FCF3F8",
"c  c #FDFBFC",
"v  c #FDEDF5",
"b  c #FDF0F7",
"n  c #FCEEF6",
"m  c #FCF5FA",
"M  c #FDF7FB",
"N  c #FCF4F8",
"B  c #FCF4F9",
"V  c #FDF3F8",
"C  c #FDFCFD",
"Z  c #FBEBF3",
"A  c #FCF8FA",
"S  c #FDF4F8",
"D  c #FDEAF2",
"F  c #FDFCFE",
"G  c #FCF3F7",
"H  c #FEF7FB",
"J  c #FCF4F7",
"K  c #FBECF4",
"L  c #FEFAFB",
"P  c #FEF8FB",
"I  c #FCF3F9",
"U  c #FBEFF6",
"Y  c #FCEEF4",
"T  c #FEFFFE",
"R  c #FEFEFF",
"E  c #FEFAFD",
"W  c #FCF8FB",
"Q  c #FBF2F7",
"!  c #FCF7FA",
"~  c #FDF5FA",
"^  c #FCF7FB",
"/  c #FDFEFE",
"(  c #FDF9FC",
")  c #FBF5F8",
"_  c #FDF2F7",
"`  c #FEFDFF",
"'  c #FDF3F9",
"]  c #FDF9FB",
"[  c #FDFAFD",
"{  c #FDFAFB",
"}  c #FCF6FA",
"|  c #FAEEF4",
" . c #FEFBFC",
".. c #FDF7FA",
"X. c #FEF9FC",
"o. c #FBEFF5",
"O. c #FAEDF4",
"+. c #FDECF3",
"@. c #FAEBF2",
"#. c #FDF1F8",
"$. c #FDEEF5",
"%. c #FBF0F6",
"&. c #FFFCFE",
"*. c #FDFDFE",
"=. c #FCF6F9",
"-. c #FDFBFB",
";. c #FCF9FB",
":. c #FFFCFD",
">. c #FBF1F6",
",. c #FBF4F8",
"<. c #FFFDFE",
"1. c #FCEDF3",
"2. c #FDF4F7",
"3. c #FBF4F7",
"4. c #FBF3F7",
"5. c #FDF6F9",
"6. c #FDE9F2",
"7. c #FCE9F2",
"8. c #FDECF4",
"9. c #FCF0F5",
"0. c #FFFEFE",
"q. c #FBEEF4",
"w. c #FDF5F7",
"e. c #FDEEF6",
"r. c #FBF1F7",
"t. c #FDFEFD",
"y. c #FEF8FA",
"u. c #FCF7F9",
"i. c #FCFBFD",
"p. c #FDEAF3",
/* pixels */
"  . X X X X X X o O + + + + + @ # $ $ X X X X % & + + + + + + * = X X X X X X - @ + + + + + + ; : X X X X X % > + + + + + + , < ",
"; 1 X X X X X % 2 3 + + + + + 4 5 % X X X X X 6 7 8 + + + + @ 9 0 $ X X X X % q w + + + + + e r t X X X X X y r 3 + + + + @ ; 5 ",
"u 5 1 X X X % i q r p + + + e r q i a X X X 1 q q s d + + 8 7 q q 0 f X X g h q j w + + + e k q q = X X l z q q x c + + @ ; q # ",
"x q q v X % b q q q x p + e k q q q b a X 6 q q q q s d 8 9 q q q q 0 l % h q q q q w + e k q q q q = $ n q q q q u 3 @ m q q # ",
"x q q q 0 q q q q q q r M k q q q q q q - q q q q q q N B q q q q q q 5 q q q q q q q 9 k q q q q q q # q q q q q q k V q q q # ",
"x q q N C M q q q q q z Z 0 q q q q q   , 7 q q q q i . a i q q q q B , e r q q q q 0 % 1 q q q q r   + A r q q q 5 t % - q q # ",
"x q V d + + M q q q z X X l y q q q M + + d S q q q = D X a q q q x F + + e r q q - Z X X 1 q q q & + + + M q q q t X X Z - q # ",
"x G d + + + + M q 0 X X X X X 0 q H + + + + 8 J 5 K $ X X X a b V @ + + + + L r - : X X X X v q P + + + + + A 5 . X X X X Z - I ",
"U , + + + + + + ; $ X X X X X $ > + + + + + + @ Y $ X X X X $ = d + + + + + T   l X X X X X $ V R + + + + + @ - $ X X X X X . E ",
"q A + + + + + 3 r < X X X X X < 5 p + + + + @ S i % X X X X g q N @ + + + + e k y $ X X X l 0 q W + + + + @ ; q = X X X X g q x ",
"x Q ! + + + L k q q v X X X 6 q q k L + + 8 9 q q i a X X a - q q N d + + e k q q 0 : X X 1 q q q w + + @ ~ q q q = X X g q q # ",
"x Q q ^ + p r q q q q 1 $ 6 q q q q r c / ; q q q q i a g - q q q q N 8 ( k q q q q y Z n q q q q q   @ ; q q q q q Y a q q q # ",
"x q q Q ) q Q q q q q 5 V q q q q q q 5 G q q q q q q x x q q q q q q o 5 q q q q q r 9 _ q q q q q q - 5 q q q q q B > q q q # ",
"x q q 0 l Y q q q q q H ` M q q q q q = l 0 q q q q B , d B q q q q 0 l . - q q q r   + e k q q q q t $ 1 q q q q ; d + ^ q q # ",
"x Q z X X X 6 q q q H + + + M q q q K $ X X 0 q q ' , + + d N q q - l X X a b q q ] + + + p r q 5 . X X X < q q B O + + + ! q q ",
"k y X X X X X Y q   + + + + + ^ q g X X X X X 0 V @ + + + + @ J - l X X X X . q   + + + + + p 5 . X X X X X 1 x @ + + + + + ! 0 ",
"M l X X X X X X V R + + + + + / - D X X X X X Z [ + + + + + + { a $ X X X X X - @ + + + + + + x X X X X X X a } + + + + + + ( | ",
"k 0 Z X X X X 6 Q ! + + + + @ 9 5 v X X X X % b r  .+ + + + e u b a X X X X 0 q J 8 + + + @ 7 r 0 $ X X X g q 2 w + + + + e r q ",
"x q 0 Z X X 1 q q q ^ + + 8 ; q q q 1 X X a - q q r e + + ( k q q i a X $ z q q q ; d + @ ; q q q y Z X g - q q q M + + e k q # ",
"x q q - Z 1 q q q q r ..@ 9 q q q q q 1 a - q q q q r c e k q q q q i g 0 q q q q q N 4 ; q q q q q y K q q q q q q M X.r q q # ",
"x q q q ; k q q q q q b i q q q q q q N ! q q q q q q - - q q q q q r M 7 q q q q q q o.q q q q q q B ( r q q q q q 0 1 q q q # ",
"x q q H + c x q q q q = D 1 q q q q 7 d + M q q q q - : X 0 q q q r   + d S q q q q t X a i q q q ; C + L k q q q U l X v q q # ",
"x q   + + + c r q q . $ X X 1 q q I d + + + M 5 q - l X X : 0 q q ] + + + d N q 5 = X X X a i q B @ + + + p r q 0 X X X X 1 q q ",
"k M + + + + + 4 r O.$ X X X X 6 x F + + + + R   - X X X X X $ y   + + + + + 8 ' t $ X X X X +.x @ + + + + + 3 - l X X X X $ v W ",
"- @ + + + + + 8 r @.X X X X X g ! + + + + + + c 6 X X X X X X 0 p + + + + + + B Z X X X X X g G @ + + + + + X.- $ X X X X $ o.M ",
"x N O + + + @ ; q - Z X X X % i q ^ + + + + [ #.q $.X X X $ 0 q r  .+ + + @ 7 q b a X X X g %.q 7 &.+ + + e q q y $ X X $ 6 q q ",
"x q N *.+ @ 9 q q q 0 Z $ a - q q q ! + + e k q q q 1 $ X z q q q r c + @ =.q q q b a X g q q q q N d + e k q q q 0 : l 6 q q # ",
"x q q 7 d 9 q q q q q - K h q q q q Q ! e # q q q q q 1 0 q q q q q r L 7 q q q q q i t q q q q q q N   r q q q q q - z q q q # ",
"x q q q 6 i q q q q q N ( x q q q q q 0 z q q q q q q   M q q q q q q t y q q q q q ;  .S q q q q q o.K b q q q q q ] -.k q q # ",
"x q q = X a b q q q B C + e x q q q - l X Y q q q k P + + M q q q q t X f 0 q q r ; d + d s q q q U l X a i q q q w + + p r q # ",
"k q = $ X X % q 5 N F + + + 3 Q q - l X X X < q q ;.+ + + +   5 5 = X X X X y q N , + + + d N q 0 l X X X a i q   + + + + c 5 r ",
"B g $ X X X X % x *.+ + + + + 3 - l X X X X X t & + + + + + + ^ . $ X X X X X q @ + + + + + :.>.X X X X X X a M + + + + + + e = ",
"B . X X X X X % x @ + + + + + [ - : X X X X X 0 M + + + + + @ ; v $ X X X X g r  .+ + + + + e 5 a X X X X $ $.,.<.+ + + + O N i ",
"x q . $ X X % i 5 B , + + + e r q - l X X X 0 q q ! @ + + @ 9 q q 1 X X X g q q q c + + + e q q b a X $ X 6 q q N 8 + + @ s 5 k ",
"x q q . X a h q q q 7 8 + e k q q q 0 Z X z q q q Q ..+ @ 9 q q q q 1 X g q q q q r p + e k q q q i a $ 1 q q q q s d @ s q q # ",
"x q q q 1 - q q q q q B ( k q q q q q - 0 q q q q q r M 9 q q q q q q - q q q q q q x > q q q q q q q - q q q q q q ' B q q q # ",
"x q q 7 d S q q q q q - a b q q q q r ] c x q q q q q t 1 q q q q r ; C M 5 q q q q 1 Z 0 q q q q q w 8 N q q q q q g a b q q # ",
"x q B , + 8 9 q q q 0 l X a - q q r   + + e r q q 5 t $ X 1 q q q ; d + +   q q q 0 $ X $ 0 q q 5   + + d 7 q q i g X X . i q r ",
"x N , + + + 8 ; q - l X X X % q q & + + + + 4 r q t X X X X 6 q B @ + + + + M q U l X X X X y q W + + + + d S q g X X X X a 5 B ",
"Q @ + + + + + / q l X X X X X %   + + + + + + c t X X X X X X z 8 + + + + + + ; X X X X X X l =./ + + + + + , 1 X X X X X X 1.8 ",
"Q e + + + + + X.5 K X X X X $ 0 x @ + + + + @ ; - l X X X X g q ..+ + + + + e q 1 $ X X $ X o.q 3 + + + + O N b a X X X X % q ,.",
"x r p + + + e k b q . $ X l 0 q q 7 d + + @ B r q - Z X X g q q Q ..+ + + e q q 5 1 X $ X 1 q q r p + + 8 s q q b % X X % i Q k ",
"x q r { + e k q q q q . $ 1 q q q q 2.8 @ ~ q q q q 0 Z g 2 q q q r ! + e k q q q q v $ o.q q q q k L 8 S q q q q i a % q q q # ",
"x q q r > k q q q q q q q q q q q q q x B q q q q q q k r q q q q q q B r q q q q q q 7 r q q q q q r k q q q q q q G 3.q q q # ",
"x q q 0 % 0 q q q q r ] @ 9 q q q q q = Z - q q q q B , 3 x q q q q o.$ 1 q q q q 5   + M q q q q i . $ 0 q q q q N @ 8 S q q # ",
"x r 0 l X l 0 q q q   + + 8 ; q q q t X X a i q q ; d + + e x q q U l X X 1 q q q   + + + M q q i g X X l 0 q q ; 8 + + d B q # ",
"u - l X X X X 0 r & + + + + 8 ; 5 . X X X X % 5 B O + + + + 3 4.U X X X X X 6 q P + + + + + M q g X X X X X y x @ + + + + d N y ",
"; X X X X X X $ 5.+ + + + + + @ 6 6.X X X X X t , + + + + + +   Z $ X X X $ 7.k + + + + + + / - $ X X X X X g X.+ + + + + <.] a ",
"x 1 X X X X X 0 _ c + + + + + ; q . $ X X X g q B @ + + + + e r 0 Z X X X $ o.5 ! + + + + 8 N 5 t X X X X a i q  .+ + + + ] r r ",
"x q 1 X X X y q q r { + + @ 7 q q 5 . $ X g q q q B @ + + e q q q - Z X $ 6 q q Q ! + + O s q q q v X X % q q q r  .+ + ] r q # ",
"x q q 1 $ z q q q q k e @ ~ q q q q q = g i q q q q B , e k q q q q 0 Z o.q q q q q ^ , B q q q q q 1 8.i q q q q r c ] r q q # ",
"x q q 5 V _ Q q q q q _ r 5 q q q q q V N q q q q q 5 q 5 q q q q q 5 5.r q q q q q q 0 q q q q q q N ..q q q q q q 9.- q q q # ",
"x q r ] 0.] Q q q q q t $ 0 q q q q ; @ @ ; q q q q z $ % i q q q q   + 3 x q q q i g X 1 q q q q ; 8 + M q q q q y $ $ 0 q q # ",
"x r   + + @ w q q q t X X l y q q ; C + + d ; q q y X X X a - q r P + + + c x q q g X X X 1 q q ; 8 + + + M q q 0 X X X X 0 q x ",
"r   + + + + + w 5 = X X X X X 0 B @ + + + + @ S 0 X X X X X % q w + + + + + c r g X X X X X 1 V + + + + + + W 0 X X X X X Z 9.] ",
"x + + + + + + @ - $ X X X X X Z X.+ + + + + + c a $ X X X $ X %.@ + + + + + + x l X X X X X g =.+ + + + + + e 1 X X X X X X q. .",
"k 5.+ + + + + 7 q $.X X X X g q r p + + + + e q q = $ X X X 1 q ' @ + + + O w.q - l X X X % q Q ! + + + + ] r q $.X X X X e.q k ",
"x q ! + + @ 7 q q q $.X X g %.q q q { + + e q q q r.. 6.$ 6 q q q B *.+ t.s q q q - Z X % q q q q ^ + @ ] q q q q $.$ X 1 q q # ",
"x q q ! @ =.q q q q q 1 . i q q q q r p e k q q q q q . 1 q q q q q B 3 N q q q q q 0 t b q q q q q ..] _ q q q q q 1 1 q q q # ",
"x q q q %.q q q q q q 7 M q q q q q q 0 y q q q q q r M ; q q q q q i < i q q q q q ; ( r q q q q q 0 $.q q q q q 4.( M q q q # ",
"x q q t X t q q q q ; O + w q q q q o.l X y q q q q w + 8 9 q q q q g X % h q q q s 8 + c x q q q z X X 6 q q q Q { + + M q q # ",
"k b t X X X t q r ; d + + @ w Q Q U l X X Z 0 q r y.+ + + 8 7 q q K X X X g b q S @ + + + e x q 0 X X X X 1 q r ] + + + + M q q ",
"# = X X X X X t N , + + + + 0.W U l X X X X $ 0 ( + + + + + @ B % X X X X X % x @ + + + + + 3 - $ X X X X X v ] + + + + + + M . ",
"I % % % % % % g u.<.+ + + + + i.$.% % % % % % 6 [ + + + + + + 7 K p.% % % % % # @ + + + + + { - % % % % % % 0 ! + + + + + @ N 6 "
};
