/* XPM */
static char *ef9ed30c19104b6cad5db21e40fd37d6xQRNGpe6aBzQnmYM[] = {
/* columns rows colors chars-per-pixel */
"64 64 162 2 ",
"   c #F597B1",
".  c #F69CB5",
"X  c #F89CB5",
"o  c #F5A1B7",
"O  c #F6A3B9",
"+  c #F8A6BC",
"@  c #F7A9BE",
"#  c #F9A9BE",
"$  c #F7ADC1",
"%  c #F9ADC1",
"&  c #F7B1C3",
"*  c #F9B3C5",
"=  c #FBB7C8",
"-  c #F7B8C8",
";  c #F9BBCA",
":  c #FABACA",
">  c #FBBACA",
",  c #FABBCA",
"<  c #FBBBCA",
"1  c #FABBCB",
"2  c #FBBBCB",
"3  c #FBB9C9",
"4  c #FCB8C9",
"5  c #FCB9C9",
"6  c #FCB8CA",
"7  c #FCB9CA",
"8  c #FDB9CA",
"9  c #FCBACA",
"0  c #FCBACB",
"q  c #FDBACB",
"w  c #FCBBCB",
"e  c #F9BCCB",
"r  c #F9BDCB",
"t  c #FABCCB",
"y  c #FBBCCB",
"u  c #FABDCB",
"i  c #FCBCCB",
"p  c #FCBDCB",
"a  c #FCBBCC",
"s  c #FBBCCC",
"d  c #FABDCC",
"f  c #FBBDCC",
"g  c #F9BECC",
"h  c #F9BFCD",
"j  c #FABECC",
"k  c #FABECD",
"l  c #FBBECD",
"z  c #FABFCD",
"x  c #FABFCE",
"c  c #FBBFCE",
"v  c #FCBCCC",
"b  c #FCBDCC",
"n  c #FDBDCC",
"m  c #FCBECE",
"M  c #FCBFCE",
"N  c #FBBBCB",
"B  c #F8C0CD",
"V  c #F9C0CD",
"C  c #F9C0CE",
"Z  c #FAC0CE",
"A  c #FBC0CE",
"S  c #FAC1CE",
"D  c #FAC1CF",
"F  c #FBC1CF",
"G  c #F9C2CF",
"H  c #F9C3CF",
"J  c #FAC2CF",
"K  c #FBC2CF",
"L  c #FAC3CF",
"P  c #FCC0CF",
"I  c #FAC1CF",
"U  c #F9C3D0",
"Y  c #FBC2D0",
"T  c #FAC3D0",
"R  c #FBC3D0",
"E  c #FCC3D0",
"W  c #F8C4D0",
"Q  c #F9C4D0",
"!  c #F9C4D1",
"~  c #F9C5D1",
"^  c #FAC4D0",
"/  c #FAC4D1",
"(  c #FBC4D1",
")  c #FAC5D1",
"_  c #F8C6D1",
"`  c #F9C6D1",
"'  c #FBC5D2",
"]  c #F9C6D2",
"[  c #FAC6D2",
"{  c #FBC6D2",
"}  c #FBC7D2",
"|  c #FBC6D3",
" . c #FAC7D3",
".. c #FBC7D3",
"X. c #FCC5D1",
"o. c #FCC7D3",
"O. c #FAC5D1",
"+. c #FCC8D4",
"@. c #FCC9D4",
"#. c #FDC9D4",
"$. c #FCC9D5",
"%. c #FDC9D5",
"&. c #FEC9D5",
"*. c #FDCAD5",
"=. c #FDCAD6",
"-. c #FDCBD6",
";. c #FECAD6",
":. c #FECBD6",
">. c #FECBD7",
",. c #FFCBD7",
"<. c #FBCDD7",
"1. c #FACED7",
"2. c #FBCED7",
"3. c #FDCCD6",
"4. c #FCCCD7",
"5. c #FDCCD7",
"6. c #FCCDD7",
"7. c #FDCDD7",
"8. c #FECCD7",
"9. c #FFCCD7",
"0. c #FECDD7",
"q. c #FDCED7",
"w. c #FDCBD6",
"e. c #FBCED8",
"r. c #FACFD8",
"t. c #FBCFD8",
"y. c #FDCDD8",
"u. c #FECDD8",
"i. c #FFCDD8",
"p. c #FCCED8",
"a. c #FDCED8",
"s. c #FCCFD8",
"d. c #FCCFD9",
"f. c #FDCFD9",
"g. c #FECFD9",
"h. c #FDCED8",
"j. c #F9D0D8",
"k. c #FAD0D8",
"l. c #FAD0D9",
"z. c #FBD0D9",
"x. c #FAD1D9",
"c. c #FBD1D9",
"v. c #FAD2D9",
"b. c #FBD1DA",
"n. c #FBD2DA",
"m. c #FCD0D9",
"M. c #FDD0DA",
"N. c #FCD1DA",
"B. c #FDD1DA",
"V. c #FED0DA",
"C. c #FED1DB",
"Z. c #FFD1DB",
"A. c #FCD2DA",
"S. c #FCD2DB",
"D. c #FDD2DB",
"F. c #FCD3DB",
"G. c #FDD3DB",
"H. c #FED2DB",
"J. c #FDD3DC",
"K. c #FFD2DC",
"L. c #FDD4DC",
"P. c #FCD3DB",
/* pixels */
"F.F.F.F.F.F.F.F.F.F.F.F.F.F.F.F.F.F.n.n.d.r.r.d.1.1.5.5.5.5.5.5.5.5.5.5.5.5.5.d.d.5.1.n.F.n.F.F.L.F.F.F.F.F.F.F.F.F.F.F.F.F.F.F.",
"F.F.F.F.F.F.F.F.F.F.F.F.F.F.F.F.F.n.n.r.r.5.5.5.5.5.5.,.,.,.,.,.,.,.,.,.,.,.,.,.,.5.5.5.1.r.d.d.F.F.F.F.F.F.F.F.F.F.F.F.F.F.F.F.",
"F.F.F.F.F.F.F.F.F.F.F.F.F.F.F.F.r.r.r.1.1.5.5.,.,.,.,.,.,.,.[ o.[ [ o.o.,.,.,.,.,.,.,.5.5.5.5.1.d.F.F.F.L.L.F.F.F.F.F.F.F.F.F.F.",
"F.F.F.F.F.F.F.F.F.F.F.L.L.n.F.d.1.5.5.5.5.,.,.[ [ [ [ [ [ [ [ [ [ [ [ [ [ [ [ [ [ ,.,.,.,.,.5.5.5.d.d.F.K.L.L.L.F.F.F.F.F.F.F.F.",
"F.F.F.F.F.F.F.F.F.F.F.F.n.n.r.d.1.5.5.,.,.,.[ [ [ [ [ [ Z [ [ [ Y Y [ [ [ [ [ [ [ [ [ [ ,.,.,.5.5.5.d.d.F.F.F.L.F.F.F.F.F.F.F.F.",
"F.F.F.F.F.F.F.F.F.F.n.n.r.1.5.5.5.,.,.[ [ [ [ [ Y Y Z Z Z Z Z Z Z P Z Z Z Z Y [ Y [ [ [ [ [ [ ,.,.,.5.d.r.r.n.L.L.F.F.F.F.F.F.F.",
"F.F.F.F.F.F.F.F.F.n.n.r.r.5.5.,.,.[ [ [ [ [ Y Z Z l l l l t l t t l l l l l l l Z Z Y Z [ [ [ [ ,.,.,.5.5.d.r.F.K.L.F.F.F.F.F.F.",
"F.F.F.F.F.F.F.F.n.n.1.5.5.,.,.[ [ [ [ Y Y Z l l l l t 3 3 3 3 q q q q q 3 3 3 t t t l l Z Y [ [ [ [ ,.,.,.5.5.d.F.L.L.F.F.F.F.F.",
"F.F.F.F.F.F.F.n.n.r.5.,.,.+.[ [ [ [ Y Z Z l 3 3 3 3 3 3 = = = = = = = = = q 3 3 q p p l l l Z [ [ [ [ ,.,.5.5.5.r.n.F.L.L.F.F.F.",
"F.F.F.F.F.F.n.n.1.1.5.,.+.[ [ [ Y Z l l l 3 3 = = = = = * * * * = = = = = = = = 3 3 q q 3 l l Z Z [ [ [ [ ,.,.5.1.r.n.F.L.F.F.F.",
"F.F.F.F.F.F.n.r.1.5.,.,.[ [ [ Z Z l l 3 3 3 = = = = * * * * * * & & * * * * * * = = = 3 3 3 l t l Y [ [ [ ,.,.5.5.r.d.F.F.F.F.F.",
"F.F.F.F.n.n.r.1.5.,.,.[ [ [ Z Z l q q 3 = = = * * * & & % $ % % % % % % $ $ $ & * * = = = 3 q q t l Z Y [ [ ,.,.5.5.d.d.F.L.L.F.",
"F.F.F.F.n.n.1.5.,.[ [ [ [ Z Z t 3 q = = = * * & & $ $ $ % % % % % % % % % % % % $ & & = = = = 3 3 l l Z [ [ [ ,.,.5.d.r.F.F.K.F.",
"F.F.L.n.r.1.5.,.,.[ [ [ Y l l 3 3 = = * * & $ $ % % % % # # # # # # # # # # % % % $ $ & & * = = 3 3 l l Z E o.[ ,.,.5.r.d.F.K.L.",
"F.F.K.F.d.5.5.,.[ [ [ Z l l t 3 = = * * % % % % % # # # @ + + + + + + + + @ # # % % $ $ & & * = = 3 3 l l Z [ [ [ ,.5.5.d.F.F.L.",
"F.F.F.F.d.5.,.,.[ [ [ Z l q q 3 = * & % $ % % # @ + + O O O O O O O O O O O O + # # # % % $ & & = = 3 3 l l Y [ [ [ ,.5.d.r.n.F.",
"L.F.r.5.5.,.,.[ [ [ Z l 3 q = = * * $ % % # # + O O O O O O O O O O O O O O O O O + + # # $ $ & * = = 3 3 t l [ [ [ ,.,.,.d.n.F.",
"K.n.r.5.5.,.[ [ [ Z l t 3 = = * & $ $ % # @ + O O O O O O o o O O O O O O O O O O O O + # # % $ & * = = q q l Z [ [ [ ,.,.d.r.F.",
"F.d.r.5.,.,.[ [ Y l t 3 3 = = & % % # # O O O O O O o . . . . . . . . . . . o o O O O O + # # % $ & * = 3 q a l Y [ [ ,.,.,.5.d.",
"F.d.1.5.,.[ [ [ Z l 3 3 = = * % % # # + O O O O o . . . . . . . . . . . . . . . o O O O O + + # % & & = = q 3 t Z Y [ [ ,.,.5.d.",
"F.d.5.,.,.[ [ Y l t q = = * & % % # + O O O O . . . . . . . . . . . . . X . . . . o O O O + + # % % % * = 3 q l l P [ [ ,.,.5.5.",
"d.5.5.,.[ [ [ Z l 3 3 = = * $ % # + + O O O O o O O O O . . . . . . . . . O O O . . . o O O + + # % % & * = 3 q l Z [ [ [ ,.5.1.",
"r.5.5.,.[ [ [ Z t 3 = = * % % # # + O O O O O # % * * * % O .     . O % * * * % + O . . O O O O + # % % * = = q 3 l Y [ [ ,.,.5.",
"1.5.,.o.[ [ Z l 3 3 = * & $ % # + O O O o O % = l Y ..,.[ 3 @     # t [ ..+.o.l = % O O o O O O O # % % & * = 3 3 l Z [ [ ,.,.5.",
"r.5.,.[ [ [ Z l q = = & % $ % + O O O O O $ 3 o.5.n.n.F.n.n.o.@ + o.n.F.F.F.F.d.o.3 % O X O O O O # # % $ * = = 3 l Z [ [ [ ,.5.",
"r.5.,.[ [ Y Z t q = = * $ % # + O O O o # = [ 1.F.F.F.F.F.K.n.[ o.F.F.F.F.F.F.F.d.[ = + . o O O O + # % % * * = 3 t Z [ [ [ ,.5.",
"5.,.,.[ [ Y l t q = = & % % # O O O O O % l ,.n.K.F.F.F.F.F.F.F.F.F.F.F.F.F.F.F.F.,.t @ O . o O O O # % % & * = 3 t l Y [ [ ,.,.",
"5.,.,.[ [ Y l 3 3 = * & % % @ O O O O O % Z r.F.F.F.F.F.F.F.F.n.F.F.F.F.F.F.F.F.F.r.Z % O . o O O O # # % % * = = t l Z [ [ ,.,.",
"5.,.[ [ [ Z l 3 3 = * $ % # + O O O o O & Y F.F.n.F.F.F.F.F.F.F.F.F.F.F.F.F.F.F.F.F.Y & o . . O O O + # % % * = = t l Z [ [ [ ,.",
"5.,.[ [ [ Z t 3 3 = * $ % # + O O o . o % Y F.n.F.F.F.F.F.F.F.F.F.F.F.F.F.F.F.F.F.n.Y % . . . o O O + # % % * = = q l Z [ [ [ ,.",
",.,.[ [ [ Z t 3 = = * % % @ + O O o . . @ P d.n.F.F.F.F.n.F.F.F.F.F.F.F.F.F.F.F.n.r.Z % . . . o O O + # % $ * = = q l Z [ [ o.,.",
"5.5.[ [ Y Z l 3 = = * % % # + O O . . . + 3 5.F.F.F.F.F.F.F.F.n.F.F.n.n.n.n.F.F.F.1.3 O . X . o O O + # % $ * = = q l Z [ [ [ ,.",
"5.5.[ [ Y Z l 3 = = * % % # + O O . . . . & o.F.F.F.F.F.F.F.F.F.F.F.F.F.F.F.F.F.F.[ * . . X . o O O + # % $ * = = q l Z [ [ [ ,.",
",.,.[ [ [ Z l 3 = = * % % + O O O O . . . O 3 5.F.F.F.F.F.F.F.F.F.F.F.F.n.F.F.F.5.3 O . . . . o O O + # % $ * = = 3 l Z [ [ [ ,.",
",.,.[ [ [ Z l 3 = = * % % # + O O O . . . . $ E F.F.F.F.F.F.F.F.F.F.F.F.F.F.F.n.E $ . . . . . o O O + # % % * = = t l Z [ [ [ ,.",
"5.,.[ [ [ P l 3 = = * % % # + O O O . . . . o * [ F.F.F.F.F.F.F.F.F.F.F.n.n.n.[ * o . . . . . o O O + # % % * = = t l Z [ [ [ ,.",
"5.,.[ [ [ Z l 3 q = * % % # @ O O O O . X . . O 3 +.F.F.F.F.F.F.F.F.F.F.F.F.+.3 O . . . . . . o O O + # % % * = q t l Z [ [ o.,.",
"5.,.,.[ [ Y l 3 3 = * & % % # O O O o . . . . . O - ..F.n.F.F.F.F.F.F.F.F.+.3 O . . . . . . . O O O # % % * & = q t l Y [ [ +.,.",
"5.,.,.[ [ Y l t 3 = = * % % # + O O O . . . . . . + = ,.F.F.F.F.F.F.F.F.,.= O . . . . . . . o O O O # % % * * = q t l Z [ [ ,.5.",
"5.,.,.[ [ [ Z l q = = * $ % # + O O O o . . . . . . O = o.d.F.F.F.F.F.[ = O . . . . . . . o O O + + # % % * = = q t l [ [ [ ,.,.",
"r.5.,.o.[ [ Z l 3 q = * & % % # + O O o . . . . . . . o $ Z 1.F.n.+.l % o . . . . . X . . o O O + @ # % % & = 3 3 l Z [ [ [ ,.5.",
"n.5.,.,.[ [ Y l 3 q = * & % % # @ O O O O . . . . . . . . @ = [ [ = @ . . . . . . X X . o O O O + # % % * & = 3 t l Z [ [ ,.,.5.",
"d.5.,.,.[ [ Y Z l q = = * & % % # + O O O o . . . . . . . . O * * O . . . . . . . . . . O O O + # % % % * = = 3 l l Y [ [ ,.,.5.",
"r.d.d.,.[ [ [ Z l q q = * * % % # + O O O O o . X X . . . . . . o . . . . . . . . . . o O O O @ # % % * * = q t l Z [ [ [ ,.,.d.",
"F.r.d.,.,.[ [ E Z l 3 q = = * $ $ # # O O O O o . . . . X X X X X X X X . . . . . o O O O O + @ % % & * = = q l l [ [ [ ,.,.,.d.",
"F.r.5.,.,.[ [ [ E l 3 q = = & & % % # + O O O O O . . . . . . . . . . X . . . o O O O O O + # $ % & * = = 3 3 l Z [ [ [ ,.,.d.d.",
"K.F.r.5.5.,.[ [ [ Z t 3 q = & & & % % # + O O O O O O O o . . . . . . o O . o O O O O + # # % % $ & * = q 3 l Z [ [ [ ,.,.5.d.F.",
"K.F.d.5.5.,.,.[ [ Z l l q = = * * % % % # @ + O O O O O O O o o o O O o o o O O O O + # # % % % * * = = q l l Z [ [ [ ,.,.5.d.F.",
"L.F.F.r.5.,.,.[ [ [ Z l 3 3 = = * * & % % % # + + O O O O O O O O O O O O O O O + # # # % % % * * = = q q l Z Y [ [ ,.,.5.5.F.F.",
"L.L.F.r.d.5.,.,.[ [ [ Z l t q 3 = * * & % % % # # # + + + O O O O O O O O O + + # # % % % & * * = = 3 3 t Z Y [ [ ,.,.,.d.d.F.L.",
"L.L.F.F.d.5.5.,.[ [ [ Y Z l 3 3 = = * * * % % % % # # # # + + + + + + + + # # # % $ $ & * * = = 3 q 3 t l [ [ [ [ ,.5.5.d.d.F.L.",
"F.F.K.F.d.d.5.,.,.[ [ [ [ l t q q 3 = = = * & $ $ $ % # # % % % @ @ @ $ % % % % $ & & * * = = = q q l l Z [ [ ,.,.,.5.5.d.F.K.L.",
"F.F.F.K.n.n.d.d.,.,.[ [ [ Z l l l q q = = * * * & $ % % $ $ $ $ $ $ $ $ $ % % % * * * * = = = q 3 l l Z [ [ [ ,.,.,.d.d.n.L.F.F.",
"F.F.F.K.F.n.n.d.5.,.,.[ [ [ Y Z l q q 3 3 = = = * * & & & & & & & $ $ & & & * * * * = = 3 q 3 q l Z Z [ [ [ ,.,.,.5.d.F.F.L.F.F.",
"F.F.F.F.L.F.F.r.5.5.,.,.[ [ [ [ Z l l t 3 q q = = = = = = & * * * * * * * * = = = = = q 3 q l l Z Y [ [ [ ,.,.,.d.d.d.F.L.L.F.F.",
"F.F.F.F.F.K.F.n.1.5.5.,.,.[ [ [ [ Z P l 3 t q 3 3 3 = = = = = = = = = = = = = = 3 3 q q l l Z Y [ [ [ [ ,.,.,.5.d.d.F.L.F.F.F.F.",
"F.F.F.F.F.L.L.L.r.d.d.5.,.,.,.[ [ [ Z Z Z l l t 3 3 3 3 q q q 3 3 3 3 q q 3 3 3 3 t t l Z Z Y [ [ [ [ ,.,.5.d.d.d.F.F.L.F.F.F.F.",
"F.F.F.F.F.F.F.L.F.F.d.d.5.,.,.,.[ [ [ [ Y E Z Z l l l l q q q 3 q 3 3 q l l l l l Z P Y Y [ [ [ [ ,.,.5.5.d.d.F.F.K.F.F.F.F.F.F.",
"F.F.F.F.F.F.F.L.L.F.F.d.d.5.5.,.,.[ [ [ [ [ [ Z Z Z Z Z l t l l l l l l l l l l Z Y o.o.[ [ o.[ ,.,.5.1.1.d.F.F.F.F.F.F.F.F.F.F.",
"F.F.F.F.F.F.F.F.F.L.F.F.d.d.d.5.,.,.,.,.[ [ [ [ [ [ [ [ Z Z Z Z P P E Y Y Y [ [ [ [ [ [ [ ,.,.,.,.5.d.d.d.F.F.F.F.F.F.F.F.F.F.F.",
"F.F.F.F.F.F.F.F.F.F.L.F.F.d.d.d.,.,.,.,.,.,.[ [ [ [ [ [ [ [ Y o.Z Y [ [ [ [ [ [ [ [ [ ,.,.,.,.5.d.d.d.d.F.F.K.L.F.F.F.F.F.F.F.F.",
"F.F.F.F.F.F.F.F.F.F.F.F.n.F.F.d.d.d.5.,.,.,.,.+.,.[ [ [ [ [ [ [ [ [ [ [ o.o.[ o.,.,.,.,.,.5.d.d.d.r.F.F.F.F.K.F.F.F.F.F.F.F.F.F.",
"F.F.F.F.F.F.F.F.F.F.F.F.F.L.K.F.n.n.d.d.d.5.5.5.,.,.,.,.,.,.,.o.,.,.,.,.+.,.,.,.,.5.5.5.d.d.d.n.F.F.F.K.L.F.F.F.F.F.F.F.F.F.F.F.",
"F.F.F.F.F.F.F.F.F.F.F.F.F.F.L.L.L.F.n.d.d.d.d.5.5.5.5.5.5.5.5.5.5.5.5.5.5.5.5.,.5.5.d.1.d.d.F.n.F.L.L.K.F.F.F.F.F.F.F.F.F.F.F.F."
};
