/* XPM */
static char *_68d4987950c464db6b3770e6c63d2ac[] = {
/* columns rows colors chars-per-pixel */
"64 64 172 2 ",
"   c #B7877D",
".  c #B7887D",
"X  c #B8897F",
"o  c #B78680",
"O  c #B98682",
"+  c #B78983",
"@  c #BB8A84",
"#  c #BD8D89",
"$  c #BF908A",
"%  c #C18D86",
"&  c #C38E89",
"*  c #C39186",
"=  c #C5928C",
"-  c #C8938D",
";  c #C69592",
":  c #C99693",
">  c #C69895",
",  c #CA9A95",
"<  c #C89996",
"1  c #CB9A96",
"2  c #CA9B97",
"3  c #CB9B97",
"4  c #CA9B96",
"5  c #C99994",
"6  c #CC9994",
"7  c #CC9995",
"8  c #CC9A94",
"9  c #CD9A96",
"0  c #CC9B96",
"q  c #CD9B96",
"w  c #CD9B97",
"e  c #CE9B97",
"r  c #C99D97",
"t  c #CE9C97",
"y  c #CA9996",
"u  c #C59799",
"i  c #C89799",
"p  c #C69999",
"a  c #CA9A98",
"s  c #CA9B98",
"d  c #CA9C99",
"f  c #CB9C99",
"g  c #CB9D99",
"h  c #CB9C9A",
"j  c #CA9F9B",
"k  c #CD9C98",
"l  c #CE9C98",
"z  c #CF9C98",
"x  c #CE9D98",
"c  c #CF9D99",
"v  c #CE9E99",
"b  c #CF9E99",
"n  c #CE9F99",
"m  c #CC9D9B",
"M  c #CE9E9A",
"N  c #CF9E9A",
"B  c #CE9F9A",
"V  c #CF9F9A",
"C  c #CC9C9B",
"Z  c #D09C98",
"A  c #D09D99",
"S  c #D09E99",
"D  c #D09D9A",
"F  c #D09E9A",
"G  c #D19E9A",
"H  c #D09F9A",
"J  c #D19F9A",
"K  c #D09F9B",
"L  c #D19F9B",
"P  c #D29F9B",
"I  c #D09F9C",
"U  c #CFA09A",
"Y  c #CFA09B",
"T  c #CEA09E",
"R  c #D1A198",
"E  c #D3A299",
"W  c #D3A399",
"Q  c #D0A09A",
"!  c #D1A09A",
"~  c #D1A19A",
"^  c #D0A09B",
"/  c #D1A09B",
"(  c #D0A19B",
")  c #D1A19B",
"_  c #D2A09B",
"`  c #D2A19B",
"'  c #D1A29A",
"]  c #D3A39B",
"[  c #D4A39A",
"{  c #D5A49B",
"}  c #D1A09C",
"|  c #D1A19C",
" . c #D2A09C",
".. c #D2A19C",
"X. c #D2A19D",
"o. c #D3A19D",
"O. c #D0A29C",
"+. c #D1A29C",
"@. c #D1A39C",
"#. c #D1A29D",
"$. c #D1A39D",
"%. c #D2A29C",
"&. c #D2A29D",
"*. c #D3A29D",
"=. c #D3A29E",
"-. c #D3A39E",
";. c #D3A29F",
":. c #D3A39F",
">. c #D4A39C",
",. c #D4A39E",
"<. c #D4A39F",
"1. c #D2A49E",
"2. c #D4A49C",
"3. c #D4A49E",
"4. c #D5A49E",
"5. c #D5A69F",
"6. c #D6A79F",
"7. c #D1A19D",
"8. c #CB9EA2",
"9. c #CD9EA8",
"0. c #D19FA2",
"q. c #CEA2A3",
"w. c #D3A3A0",
"e. c #D3A3A2",
"r. c #D4A3A0",
"t. c #D4A2A1",
"y. c #D4A3A1",
"u. c #D4A2A2",
"i. c #D4A3A3",
"p. c #D2A5A0",
"a. c #D3A5A0",
"s. c #D3A6A0",
"d. c #D3A7A1",
"f. c #D3A7A3",
"g. c #D4A4A0",
"h. c #D5A4A0",
"j. c #D4A5A0",
"k. c #D5A5A0",
"l. c #D4A4A1",
"z. c #D4A5A1",
"x. c #D5A5A1",
"c. c #D4A6A1",
"v. c #D6A6A1",
"b. c #D6A7A1",
"n. c #D4A4A2",
"m. c #D4A5A2",
"M. c #D5A5A2",
"N. c #D5A6A2",
"B. c #D6A6A2",
"V. c #D6A7A3",
"C. c #D7A7A3",
"Z. c #D4A4A4",
"A. c #D4A6A4",
"S. c #D4A6A5",
"D. c #D6A6A4",
"F. c #D7A6A5",
"G. c #D5A7A7",
"H. c #D6A7A7",
"J. c #D2A4A4",
"K. c #D8A7A6",
"L. c #D6A8A1",
"P. c #D5A8A3",
"I. c #D4A8A6",
"U. c #D9AAA6",
"Y. c #D2A5A9",
"T. c #D8A7AF",
"R. c #D5A9AB",
"E. c #DAACAD",
"W. c #D7A7B2",
"Q. c #D9A7B2",
"!. c #D7A8B2",
"~. c #DBACB2",
/* pixels */
"@ @ % % % % . % * * * * * - & & = ; ; - - ; = ; ; 5 5 6 5 6 w ; t D D l D D l ; 5 l l l l ^ D 5 < ^ ^ ^ ^ ^ ^ ^ ; ^ ^ ^ ^ } ,.} ",
"@ % @ % * @ . * * * * * - = = & = ; ; ; ; ; = ; 6 6 6 6 6 w l 5 D D D l D D D ; 5 l U U U ^ D 5 < ^ ^ } } } ^ } ; ^ ^ ^ ^ } ,.i.",
"@ % % % % % X * * * * * - - = & ; ; ; ; 6 6 = ; 6 6 6 6 6 l D 5 D D D D D D D ; t ^ ^ ^ ^ ^ ^ 5 5 } } } } } } 1.> ^ [ { { 3.i.i.",
"% % * * % * @ * * * - - - - - = ; ; ; 6 5 6 - 6 6 6 6 6 l l D 5 D D D D ^ ^ ^ ; l ^ ^ ^ } } } s r 1.} } } } } J.> ,.3.3.,.n.n.S.",
"% & & * * * @ * * * - - - - - = ; 6 6 6 6 6 - 5 t l t l D D D 5 ^ ^ D ^ ^ ^ } < l } } 1.1.} } d d } 3.3.,.,.} n.5 n.n.3.3.3.n.S.",
"& & * * * * @ * * - - - - ; - - 5 6 6 6 6 6 ; 5 l t l l D D D 5 } ^ ^ } } } } 5 l } } } } 3.,.d l t.i.n.n.n.J.n.5 n.n.P.n.n.S.S.",
"& * * * * * % - - - - - ; ; - - 5 6 6 6 6 6 ; 5 D l D t D D D 5 } } } } } } } 5 l } } } J.i.i.d d J.n.n.S.d.d.n.s n.n.P.n.n.K.S.",
"& * * * * * * - - - - ; ; ; ; ; 5 6 6 6 t t ; 5 l D D l D l D 5 } } } } ,.i.,.5 l ,.J.J.J.J.t.C Y J.J.n.d.d.P.n.d n.U.I.I.I.S.K.",
"& * * = * * * - - - ; ; ; ; ; ; 5 6 6 6 6 l ; 5 l D ^ ^ ^ ^ ^ r } } } ,.,.,.} 5 l 1.J.J.J.J.J.j Y J.J.S.I.I.I.n.d I.U.U.U.K.K.E.",
"& * = * - * * - - - ; ; ; ; ; ; 6 6 6 6 t l 5 5 D D ^ ^ ^ ^ D w } } t.t.i.,.i.d Y J.J.n.J.J.J.j q.J.I.J.I.I.I.J.l U.U.U.U.U.E.E.",
"* * * * = = * - = = ; ; ; ; ; ; 6 6 6 t t t 5 s D D ^ U } } } w } t.t.t.i.i.S.5 } n.Z.S.J.J.I.Y q.J.I.I.I.I.G.J.C I.U.U.U.U.E.E.",
"* = = = = = * = ; ; ; ; ; 6 ; ; 5 6 6 t t l 5 s D D ^ l } } I C t.i.i.i.i.Z.S.l } n.S.S.J.J.I.q.q.J.J.I.I.G.I.J.Y I.U.U.U.E.E.E.",
"& = = = = = # = = ; ; ; ; ; ; ; 5 w w w w l s s D I } } } } t.C t.i.i.i.n.S.S.C t.I.J.J.I.I.I.q.q.I.I.G.G.G.G.q.Y U.U.U.U.E.T.T.",
"= = = = = - # = ; ; ; ; ; 6 ; ; r l l l l l s s D I ^ } I } t.C i.i.i.n.n.S.S.j q.J.I.J.I.I.I.q.q.I.G.I.G.G.G.J.q.U.U.U.E.T.T.T.",
"= = = = = - # = ; ; ; ; ; 6 ; ; 6 l l l l C d 5 l } } } } t.t.C i.i.i.Z.S.S.I.j q.G.I.I.I.G.G.q.t.G.G.G.G.R.G.t.C E.U.U.E.E.T.E.",
"= = = = - = # ; ; ; ; ; ; 6 ; ; 6 6 l l l l s 5 l } } } } t.t.C i.i.Z.S.J.J.S.Y J.G.I.I.G.G.G.t.J.G.G.G.G.R.G.J.C E.E.E.E.E.E.T.",
"= = = = = = # ; = ; ; ; 6 5 ; ; 5 l l l l C d s C } } t.t.t.t.8.Z.t.S.S.I.I.I.Y J.I.I.I.I.I.G.J.J.G.G.G.G.G.G.J.C E.E.E.E.E.E.E.",
"= = = = = - # ; = ; ; 5 6 5 ; ; 5 l l l l C d s C } t.t.t.t.t.Y J.J.S.S.S.S.G.Y J.I.G.I.G.G.G.J.J.G.G.G.G.R.G.t.j E.E.E.E.E.E.E.",
"= = = = = = = ; ; ; ; 5 5 5 > ; r l l l l l l 5 Y } } } t.t.J.8.J.J.J.J.I.G.G.q.J.G.G.G.G.G.G.J.J.R.G.G.G.R.G.J.T E.E.E.E.E.E.E.",
"= = = = = = = - ; ; ; ; 5 5 > > t l l l l C l s C I I } t.t.t.q.J.J.J.J.I.I.G.q.J.G.G.G.G.E.G.J.Y.R.G.G.G.R.R.J.j E.E.E.E.E.E.~.",
"= = = = - - = - ; ; ; 7 5 5 ; > r l l l l l l s I I } } } t.t.q.S.J.J.J.I.G.G.q.J.G.E.G.G.G.R.Y.Y.R.R.R.R.R.T.q.j E.E.E.E.E.E.~.",
"= = = = = = = ; ; ; 5 5 5 5 ; > s l l l l l w s I } } } Y t.0.q.Z.S.J.I.I.G.G.q.J.G.G.G.G.R.G.Y.Y.R.R.R.R.R.T.q.j E.E.E.E.E.~.~.",
"* = = = = = $ ; = ; ; 5 5 5 ; > s s w l l l w s C } I } Y Y } q.J.J.S.I.I.G.G.q.J.G.G.G.R.R.R.Y.J.R.R.R.R.R.R.q.j E.E.E.E.E.~.~.",
"* = = = = = $ ; ; = ; > 5 5 ; ; w s s l l l w < C C } } } } t.C i.J.J.J.I.G.G.q.J.G.G.G.R.R.R.G.Y.E.R.R.R.E.E.q.j E.E.E.E.E.~.~.",
"* = = = * = $ ; ; ; ; > 5 5 ; ; w s s l l l s < C C } } } t.t.q.Z.J.J.J.I.I.I.q.J.G.G.E.G.R.R.Y.Y.T.E.R.R.E.E.q.j E.E.E.E.E.~.~.",
"$ = = = = = # ; ; ; ; ; > 5 ; ; s s s s s l d < C C Y Y } } } Y J.J.J.J.J.I.I.q.J.G.G.G.G.R.R.Y.Y.E.E.R.E.T.~.Y.8.E.E.E.E.E.~.~.",
"$ $ = = = = # - = = ; ; ; 5 ; ; 5 5 s s s d d < l C C C C D } C t.J.J.J.J.I.S.q.J.G.G.G.G.R.R.Y.Y.T.T.R.T.T.~.Y.8.E.E.E.E.E.~.~.",
"# $ * = = * # = = ; ; ; ; ; ; ; 5 5 5 5 s s l > l C l C C C } C t.J.J.J.J.J.J.q.J.G.G.G.R.R.R.Y.J.R.R.R.T.~.!.Y.8.E.E.E.E.E.~.~.",
"# # * * * * # = - = - - ; ; ; ; > 5 5 5 5 s d > w l C C C C C j t.t.J.J.J.I.J.q.J.G.G.G.R.R.R.Y.J.R.R.R.R.T.T.Y.q.E.E.E.E.E.~.~.",
"@ # # $ $ * + = = = = = ; ; = ; > > > < 5 s s ; s s l l l C C j t.t.t.J.J.J.J.q.q.I.G.G.R.R.R.Y.Y.R.R.R.R.E.E.J.q.E.E.E.E.E.~.~.",
"@ # # $ $ $ + = = = = = = = = ; > > > > > 5 s ; s s l l l C C j t.t.t.J.J.J.I.q.q.I.Y.G.G.R.R.Y.q.R.G.G.R.R.E.I.q.E.E.E.E.E.~.~.",
"@ @ # $ $ $ + & & & = = = = = ; ; > > > > 5 s ; s s l l l l l j t.t.t.J.J.J.I.j q.I.I.G.G.R.R.q.q.R.G.R.R.R.E.Y.q.E.E.E.E.E.E.~.",
"@ @ # # # # + = & & = = = = * = ; ; ; ; > > 5 ; 5 s s s l l l d } q.t.J.J.J.J.8.q.J.J.G.G.G.Y.q.q.R.R.R.R.R.T.Y.q.E.E.E.E.E.~.~.",
"@ @ @ # # & O * * & = = = = = = - - - ; > > 5 = 5 s s s s s d s } } t.t.J.J.J.j q.S.J.J.G.G.Y.q.q.Y.R.R.R.R.T.Y.q.T.E.E.E.E.~.~.",
"# @ @ @ # # # & & & & = = = * = = ; ; ; ; ; 6 $ > 5 s s s s s p C ^ } t.t.J.J.j q.J.J.Y.Y.G.G.q.q.R.G.G.R.R.R.Y.q.E.E.E.T.E.~.~.",
"@ @ @ @ % % @ & & & & & ; = & = - ; ; ; ; ; ; # > < 5 s s s s p C ^ } t.q.J.J.p 8.J.J.J.I.G.G.q.q.Y.Y.G.R.R.R.Y.q.E.E.E.E.T.E.~.",
"@ @ @ % @ @ @ % & & * & & = = = = = = - = - ; # > 5 5 s s s s p C C } t.J.J.J.p q.J.J.J.Y.G.G.q.q.G.G.G.R.R.R.Y.q.E.E.E.E.E.E.~.",
"@ # @ @ @ @ @ % & & & * = = = = = = = = - - ; # ; > 5 5 5 s s p C C } } t.t.t.p Y J.J.J.J.I.I.q.q.Y.G.G.R.R.R.Y.8.R.E.E.E.E.~.~.",
"O # # @ @ @ @ % % & & & * = & & = = = - - - ; # ; > 5 5 5 s s i C C I } t.t.t.p C t.t.J.J.J.I.q.q.J.G.G.R.R.R.Y.8.T.T.E.E.E.E.~.",
"O @ # @ @ @ @ @ % & & & & * & & = = = = - - ; # ; > 5 5 s s s < C C C I } t.t.p j t.t.J.J.J.J.q.q.J.G.G.R.R.R.Y.8.R.T.T.E.E.E.~.",
"o @ # @ @ @ @ @ % % & & & * * @ * = = = = - ; # ; > > 5 5 5 s i C C C I } } t.p j q.J.J.J.Y.J.q.q.I.I.I.G.G.R.Y.8.R.E.T.E.E.E.~.",
"o @ @ @ @ @ @ @ % & & & & * * @ = = = = - = ; # ; > > 5 5 5 5 > C C C } } 0.t.p j t.J.J.J.Y.J.q.q.J.I.Y.G.G.R.Y.8.E.E.E.E.E.E.~.",
"O @ @ @ @ @ @ @ % % & & & & * @ * = = = = = ; # ; ; > 5 5 5 s > C I C } I 0.t.p j t.q.J.J.J.J.q.q.J.J.J.G.G.R.Y.8.T.T.T.T.T.E.~.",
"O O @ @ @ @ @ @ % % & & & & & @ * = = - - - ; # ; ; 5 5 5 5 i > C I l C 0.0.t.p j q.q.q.J.J.J.q.q.I.J.J.G.G.R.Y.8.R.T.T.T.T.E.~.",
"O O O @ @ @ O @ % % % & & & & # * = - - = = ; @ ; 5 5 5 5 5 5 > C I I } 0.0.0.i m J.q.J.J.J.Y.q.q.Y.J.J.G.G.R.Y.8.R.R.T.T.T.E.~.",
"O O @ @ @ @ O @ % % % % & & = @ * * = - - = - @ ; ; ; 5 5 5 5 > I D I } I 0.0.i m 0.J.J.J.J.Y.q.q.Y.Y.J.G.G.R.Y.8.R.R.R.T.T.E.~.",
"O O @ @ @ @ O @ % % & & & & * O * * = * = = - # - ; 5 5 5 < 5 5 l C C } I I 0.i m 0.J.J.J.J.Y.J.q.J.Y.G.G.G.R.Y.8.R.R.R.R.T.T.!.",
"O O @ @ @ @ @ @ % % & & & & * @ * * = * = * = # = ; ; 5 5 5 5 > C C I D I 0.0.u m 0.0.J.J.J.Y.q.8.J.J.Y.G.G.G.Y.8.R.R.R.R.T.T.T.",
"O O @ @ @ @ O @ % % % & & & * @ * * = = - - - # = ; ; 5 5 5 5 > C C C I I 0.0.i m 8.8.q.J.J.J.8.8.J.J.J.I.G.G.Y.q.R.R.R.R.T.T.T.",
"O O @ @ @ @ O @ % % % & & * * @ & * * = = = = # - ; ; 5 5 5 5 > C C I I I I 0.i s q.J.q.q.J.J.q.8.Y.J.J.I.G.R.Y.8.R.R.R.R.T.T.T.",
"O O @ @ @ @ @ @ % % % & & & = @ * * * = & = = # - ; ; : 5 5 < > C C C I I I I i s 8.0.0.J.J.J.q.8.J.J.J.G.G.R.Y.q.R.R.R.R.R.!.Y.",
"O O O @ @ @ @ @ % % % & & & * @ * * = = & = = # - ; : 5 5 5 s > C C C C I I I i s 0.0.0.J.J.J.8.8.Y.J.S.Y.Y.G.q.q.R.R.R.R.R.!.Y.",
"O @ @ @ @ @ @ O % % % % & & = @ * & & * * = = # - ; ; 5 > 5 i > C 8.C C C C Y > s t.t.J.J.J.J.q.8.J.I.I.I.Y.Y.q.q.R.R.R.R.!.!.Y.",
"O O @ @ O @ @ O % % % & & & = @ * * * * * = - # - ; ; > > i i > C C C C C C I > s 0.t.t.J.J.J.8.8.J.Y.I.I.G.Y.q.q.G.R.R.R.!.!.9.",
"O O @ @ @ @ @ O % % & & & & = @ * * * * = = - # - ; ; ; > i s > C 8.C C I I I > s 0.t.t.q.q.Y.q.8.J.Y.I.I.Y.Y.q.q.R.R.R.R.!.!.9.",
"O O @ @ @ @ % o % % & & & * = @ * = = = = = ; # ; ; : : > i i > C 0.C C C I I i m 0.J.q.q.q.q.q.q.J.J.Y.R.Y.G.q.q.R.R.R.R.!.!.8.",
"O O O @ @ O & O % % & & * * * @ * = = = = = - # ; ; 5 5 5 p 5 > C 8.C C C C t.i s 0.J.q.q.q.q.q.q.J.J.Y.R.Y.Y.q.q.R.R.R.R.!.!.8.",
"O O O @ @ @ & o % % % & * * * # = * = - = = - # ; ; > > 5 s s > 8.C C I C C 0.p m t.J.q.J.J.Y.q.8.J.Y.Y.R.R.R.q.q.R.R.R.R.!.!.8.",
"@ O @ @ @ @ & O % % & & * * = # ; = - - - - ; # ; > > 5 5 s s > C I C I I I I i C t.J.q.q.J.J.8.8.Y.Y.Y.R.R.R.q.q.R.R.R.T.!.!.8.",
"+ O # @ @ @ & O % & & & * * - # = ; - = - - ; # > > > 5 5 s s < C C } 0.} I I s j q.J.J.q.J.J.q.8.Y.Y.Y.R.R.R.q.Y.R.R.R.R.!.!.8.",
"+ # # @ @ @ & O % % & & * = = # = - - - - ; ; # 5 > 5 5 5 s s < I I t.0.q.q.0.m 8.q.J.J.J.J.Y.q.q.Y.R.R.R.R.R.8.Y.R.R.R.!.W.!.8.",
"@ # # @ @ @ &   & & & * * = ; # = - = - ; ; ; # > 5 5 5 s s s < I t.t.0.0.J.0.m 8.q.J.J.J.J.Y.q.q.Y.Y.Y.R.R.R.q.Y.R.R.R.!.!.!.9.",
"@ # O @ @ @ * O & & & * = = ; # = = = - ; ; 5 # 5 5 s s s w s < t.t.t.0.q.q.J.m 8.J.J.J.J.Y.Y.q.q.Y.Y.Y.R.!.R.q.Y.R.R.R.!.!.!.9.",
"@ @ # @ @ % * o & & * * = = ; # - ; - ; ; ; 5 # 5 5 s s s s d p t.t.q.J.q.q.J.p 8.q.J.J.Y.Y.Y.q.q.Y.R.R.R.!.R.8.Y.R.R.!.!.!.!.8."
};
