/* XPM */
static char *d7770137d0f84ceb85ed3f3dcc4dc80a0Ok0cXbqtykdxp4T[] = {
/* columns rows colors chars-per-pixel */
"64 64 157 2 ",
"   c #E7C8D7",
".  c #EAC7DB",
"X  c #E7C9DA",
"o  c #ECCCDC",
"O  c #F2CDDE",
"+  c #EED0DF",
"@  c #F2D0DF",
"#  c #EDCFE0",
"$  c #F3CFE0",
"%  c #EDD4E2",
"&  c #EEDAE6",
"*  c #EFDDE8",
"=  c #F3D4E3",
"-  c #F3DAE6",
";  c #F3DEEA",
":  c #EFE2EB",
">  c #F3E4ED",
",  c #F8E4EF",
"<  c #F8E5EF",
"1  c #F8E5EE",
"2  c #F9E6EF",
"3  c #F8E7EF",
"4  c #FAE7EF",
"5  c #F8E5EF",
"6  c #F4E8ED",
"7  c #F6E8EF",
"8  c #F3E8EF",
"9  c #F9E8EF",
"0  c #F7E5F0",
"q  c #F4E6F0",
"w  c #F7E6F0",
"e  c #F7E7F0",
"r  c #F7E7F1",
"t  c #F6E6F0",
"y  c #F8E5F0",
"u  c #F8E6F0",
"i  c #F8E7F0",
"p  c #F9E7F0",
"a  c #F8E6F1",
"s  c #F8E7F1",
"d  c #F8E6F0",
"f  c #F2EBF1",
"g  c #F3EBF1",
"h  c #F3EBF2",
"j  c #F7E9F0",
"k  c #F7E9F1",
"l  c #F5EAF0",
"z  c #F4EBF0",
"x  c #F6EAF0",
"c  c #F7EAF0",
"v  c #F7EAF2",
"b  c #F3ECF1",
"n  c #F4ECF0",
"m  c #F5ECF1",
"M  c #F4EEF1",
"N  c #F6EDF2",
"B  c #F4EEF3",
"V  c #F7EFF3",
"C  c #F5EFF4",
"Z  c #F5EBF2",
"A  c #F8E8F0",
"S  c #F8E8F1",
"D  c #F8EAF1",
"F  c #F8ECF0",
"G  c #F8ECF3",
"H  c #F8ECF4",
"J  c #F9ECF4",
"K  c #F8EBF3",
"L  c #F5F0F2",
"P  c #F4F0F3",
"I  c #F5F0F3",
"U  c #F6F0F3",
"Y  c #F7F0F4",
"T  c #F6F3F4",
"R  c #F7F3F5",
"E  c #F6F1F6",
"W  c #F6F2F6",
"Q  c #F7F3F7",
"!  c #F7F4F6",
"~  c #F7F5F6",
"^  c #F6F4F7",
"/  c #F6F5F7",
"(  c #F7F6F7",
")  c gray97",
"_  c #F6F2F6",
"`  c #F9F0F4",
"'  c #F8F1F4",
"]  c #F8F3F4",
"[  c #F8F2F5",
"{  c #F8F3F5",
"}  c #F9F0F6",
"|  c #F9F2F6",
" . c #F8F3F6",
".. c #F9F3F6",
"X. c #FAF3F6",
"o. c #F8F4F6",
"O. c #F9F4F6",
"+. c #F8F5F6",
"@. c #F8F4F7",
"#. c #F8F5F7",
"$. c #F9F5F7",
"%. c #FAF4F6",
"&. c #FBF4F7",
"*. c #F8F6F7",
"=. c #F9F6F7",
"-. c #F8F7F7",
";. c #F8F3F6",
":. c #F7F8F7",
">. c #F8F8F7",
",. c #F9F9F7",
"<. c #F7F3F8",
"1. c #F7F4F8",
"2. c #F6F5F8",
"3. c #F7F5F8",
"4. c #F7F6F8",
"5. c #F7F7F8",
"6. c #F7F7F9",
"7. c #F7F7FA",
"8. c #F7F6F9",
"9. c #F8F4F8",
"0. c #F8F5F8",
"q. c #F9F5F8",
"w. c #F8F5F9",
"e. c #F9F6F8",
"r. c #F8F7F8",
"t. c #F9F7F8",
"y. c #F8F6F9",
"u. c #F8F7F9",
"i. c #F9F7F9",
"p. c #FAF6F8",
"a. c #FAF6F9",
"s. c #F8F7FA",
"d. c #F9F7FA",
"f. c #F8F6F9",
"g. c #F7F8F8",
"h. c #F7F8F9",
"j. c #F7F8FA",
"k. c #F7F8FA",
"l. c #F8F8F8",
"z. c #F9F8F8",
"x. c #F8F8F9",
"c. c #F9F8F9",
"v. c #F9F9F9",
"b. c #FAF8F9",
"n. c #F8F8FA",
"m. c #F9F8FA",
"M. c #F9F9FA",
"N. c #F9F9FB",
"B. c #FAF8FA",
"V. c #FAF9FA",
"C. c #F9FAFA",
"Z. c gray98",
"A. c #FBFBFA",
"S. c #FAFBFB",
"D. c #FBFBFB",
"F. c #FBFBFC",
"G. c #F9F9FA",
/* pixels */
"9.9.9.C ; ; * & > E E -.E & & * > B -.^ ^ E > : > > B -.-.9.9.> > > >  .N.9.N.E > > > >  .9.N.N. .< < < s -.N.9.9.S , > > S 9.9.",
"N.j.j.^ > > > > h 9.1.9.1.> > > > B -.^ N.^ > > > > T >.>.>.N.6 > > > -.N.D.N. .> > > < -.N.N.N.-.s s 9 S 9.N.N.N.G > > > h N.9.",
"N.N.N.1.> > > : h 9.^ 9.9.: : > > B :.:.1.^ > > > : T ^ N.-.N.h > > >  .D.N.N. .< < > > -.N.N.N. .< < < 6 -.N.N.N.H < < < h j.9.",
"N.N.N.<.> > > > b N.>.j.9.: > > > B >.:.^ ^ > > > : T -.1.N.N.h > > 6 -.D.N.D. .s > s s -.N.F.N.-.> < < h 9.N.N.N.H < < < S N.N.",
"N.N.9.E > : > > h 1.9.^ ^ : > > > B -.-.T T > ; > * h E -.-.-.> > > > B 9.9.9.B > ; > >  .-.9.9.9 ; 1 > > ' -.^  .< ; ; ; <  .E ",
"> > > & X X X X % : > : :   X X X % > > > & X X X X & > > > > o O @ o ; > > h ; O O O = > 9 > > - O O O = > > > < = O O O = < > ",
"> > > ; o o o X & > > : > X o o X & q > > * X X o X - > > > > + o = @ ; > > q - O O O O > s s > - O O $ = , s q s = $ $ $ = q q ",
"> > > ; o o o o & > > > ;   X X X & > > > * o X o X & > > > > o O @ O > q q q ; = O O O ; < < < - = $ O = > , < s = = O O = > q ",
"> > > & X X o X & > > > > X X o X & > > > ; o o X X - > > > > o o @ @ ; > q s ; = O O O > > S > - O O O = > > < s = $ O O - > q ",
"E E E h & & & & > E E E C & & & & 6 E E E B * & & & h E E -. .; ; ; - B  . .-.B ; ; ; ; G 9.-. .S ; ; ; > E  .-. .s ; ; , s 9.-.",
"N.N.N.^ > > > : B N.N.N.^ : > > > T N.^ j.^ > > > > E N.N.N.N.> > > 6 -.N.N.N.-.S < > < 9.N.N.N. .> > s h -.N.N.N.H s s s G N.N.",
"N.N.N.1.> > > > B N.N.N.-.> > > > T N.N.N.1.h > > > E N.N.N.N.> > > 6 -.N.N.N.-.9 < > > 9.N.N.N. .< < < h -.N.N.N.H s s s S N.N.",
"N.N.N.^ > > > > C N.N.N.9.> 8 > > B N.N.N.9.8 > > > E N.N.j.N.> > 6 6 -.N.N.N. .S > < < -.N.N.D. .s > < S 9.N.N.>.G > q s h N.N.",
"N.N.9.E : : : * h 9.1.N.9.: > > > B 1.-.-.E > > > > E ^ -.-.-.> > > > ' 9.-.9. .> , > > ' 9.9.-.G > > > > E -. .-.< ; , , > 9.-.",
"> q > * o o o o & q q > > o o X o * > > > : o X X o * > > > ; o o @ o ; > > > ; = O O O > < S > - O $ O = > > < > = O O $ = s > ",
"> q > * o o o o & > > > : X o X X & > > > * o o X o & > > > > o o o o ; q q > ; O O O O , < q > - $ O O = > < s < = O O O = q > ",
"> > > * X o o o & > > > > o o X o * > > > > o o o o ; > > > ; o o o + ; > q > ; O O O O > > q q - O O O = > < > < = O O O = q > ",
"h q > ; o o o o & > > 8 : o o X o & > > > > X X X o > > > > ; o o o o ; q > > ; @ O @ @ > > q q - O O O = > > > q = O O O = > q ",
"B b h > % % % % > b B B h % % & % > b b B h % % % & h B T E h - = = - h E H  .> - - = - G C  . .< - - - ; C C  . .> - - - > H  .",
"1.F.j.E > > > > E N.N.N.N.> h > h 9.N.N.F.9.h q > > ^ :.N.N.9.8 q > > 9.N.N.N. .h > > > 9.N.N.N. .q < s h 9.N.j.N.H s > q H F.9.",
"N.N.N.1.> > > > B N.N.N.N.8 8 > h ^ F.N.N.9.h > > > ^ N.N.N.N.8 q q q -.N.N.N.-.q > < > 9.N.N.N. .s > < < -.N.N.F.G < s q G 9.N.",
"F.N.N.1.> > > > E N.N.N.9.h 8 8 h -.N.N.N.9.h > > >  .N.N.N.N.> q > q -.N.N.N. .> > > q 9.N.N.N. .s s s S 9.F.N.N.H s q s G N.1.",
"N.9.N.^ > > > > B N.N.N.1.> > > 8  .N.N.N.9.> > > > E 9.N.N.9.> > > >  .-.N.N.G > > > >  .9.9.9.H > s > s -.9.N.N.S > < , h ^ 9.",
"h h h > + + + + & 8 8 h > % % + % > b B 8 > % % % % > h h 6 > % = + = > 6 h h ; = = = = > h S S - = = = = s S S S - = = = - h S ",
"> > > * o o o o * q > > > + o o + > 8 8 h > o % # o > q q > > o o o O > > > > - O O O O > q q q - @ = $ = < s s S = $ = $ = s > ",
"> q > ; o o X o & > > > > o o o o > 8 8 > > + o o o ; > > > > o o o O ; > > > ; @ O O O > q > s - = $ = = < s < s = $ = = = q > ",
"> > > ; o o X o & > > q > o o o + > > 8 8 > + + + o > h 6 h > + o o + > > > > - O O O O > > > s - O $ O = < S s s = O $ = - q s ",
"h q h > % % % % > h h B h % % % % > B B B > % % % % > B B B > % % % % > h B h > = = = = q C B H > = = = ; S H H H ; = = = > B H ",
"9.9.1.E : > > > B N.N.N.9.> > > >  .N.N.N.9.8 8 8 > -.N.N.N.9.> > > > E N.N.1. .q > > > 1.j.N.N. .s s > S 9.N.F.F.H q q q C N.N.",
"N.N.N.E > > > > T N.F.F.9.8 > > 8 9.N.N.N.N.h 8 > > ^ N.N.N.9.> > > > ^ N.N.9.E q > > > ^ N.N.N. .q s < S 9.F.F.N.H s s s C N.F.",
"N.N.j.1.> > > > T N.N.N.1.: > > > -.N.N.N.9.h > > > E N.N.N.1.h 6 > > ^ N.1.N.E q > > > -.N.>.N. .q q < S 9.N.N.F.G q > < H F.F.",
"N.N.N.E : : : > B N.N.j.1.> > > >  .N.N.N.N.8 h h h 1.N.N.N.N.h > > > E N.N.N.E > > > > -.N.N.N. .s < < S 9.F.F.F.H q s s H D.F.",
"h B b > % % % % : b h h > % % % & > h B b 8 % % % % > h h h > % % % % > h > h ; = = = = > h h h ; = = = = s S S S - = = = - S q ",
"> > : * o o o X & > : : * o X o o ; > q > > o o o o ; > > > > o o o o > > > > - O o O O ; > > > = O O O = s s s s = O = = = s s ",
"> > > * o o o # & > > > * o o % o > > h > > o o o o ; > > > > o O o o ; > > > - o o O O > > > > = O O O = < S s s = $ $ $ = q q ",
"> q > * o o X o & : : > * X X o o ; > > : * o o X o ; > > > ; o O o + > > > > - o o O O ; > > > = O O O = , s s s = O O O = > q ",
"> : : & X o X o & > : > : X X o o > 8 8 8 > o o o o > > 8 > > o O + % > > > > - o o o o > h h h - O = O = s S H S - = = = - h h ",
"1.9.1.E > > : > B 9.1.9.9.> > > > E N.1.9.^ > > > > E N.N.N.9.> > > > <.1.9.N.C > > > > <.N.N.N. .< < s S 9.N.F.N.C s s q H F.N.",
"1.F.j.E : > > > b N.N.N.1.> > > > E N.N.N.^ > > > > 1.N.j.N.9.> > > > E ^ N.N.B > > > > E 1.N.N. .q q > h 9.F.N.N.C s q > C F.N.",
"1.N.N.E : : : > B N.N.N.9.> > > >  .N.N.1.^ > > > > 9.N.N.N.9.> > > > E 1.1.1.B > > > > 1.N.N.N.H q > > h 9.N.N.N.C q > > B N.N.",
"1.1.1.E > : : : B N.N.N.1.> > : > E j.N.N.^ > > > > 1.1.1.N.9.> > > > E N.1.1.C > > > > E ^ N.j.B > > q h 9.N.N.N.B > s q B 1.N.",
"C B B > % & % % > B B B 8 & & & & h B T B h - & & - 6 h B B > = = = % 6 B B h ; = = = = > h h h ; = = = - h h S B ; = - = ; h h ",
"> > > & X o o X & > > > * o X o o * > > > * o X o o ; > > > ; o O O o ; > > > = O O o O > > > > = o O O = > q > > = O O O = > > ",
": : > % X X X X & > : > * o X o o ; > > > ; o o o o > > > > ; o O O o ; > > > - O O O O > > > > = O O O = > > s > = O O O = q q ",
"> > > & X o o o * > > > * o o o o > > > > ; o o # o > > > > ; o O O o ; > > > - O O O O > > > > = O O O = > > > > = o O O = q > ",
": : : & X o o o * > : > * o o o o > > > > ; o o o o ; > > > ; o o + o > > > q ; @ @ O $ > q > > - $ = = = q h h h - = = = - h h ",
"1.d.9.E > > > > C N.N.N.<.> > > > 9.N.N.N.1.> > > > <.1.9.9.9.> > > > E 9.N.N.E > > > q 1.1.9.N.C > > q h 9.N.N.N.C > s q H F.F.",
"1.1.1.E > : > > C N.N.N.1.> > > > E N.N.N.1.> > > > E 1.N.N.9.> > > > ^ N.1.N.E > > > > -.1.N.N.H > > > h 1.N.N.N.B s > q C d.F.",
"1.1.1.E : : : : C N.j.N.1.> q > > <.N.N.N.9.q > > > 1.N.N.N.9.q > > > E N.9.N. .> > > > 1.N.N.N.C > > > h 9.N.N.9.v s > > C F.F.",
"1.1.1.E > > > > C N.j.j.9.> q q q  .N.N.N.9.> > > > <.N.N.1.1.q q > > E N.9.N. .> > > > 1.N.N.N. .> > > q ^ N.N.j.h q > > B F.F.",
"B B B > & & & & h E E E B & & * * h E E E B ; ; ; ; B E E E h ; ; ; ; h B E C > - - - - h C C C > - - - ; h C C C ; - - - > H H ",
"> : > & X o o o & > > > ; o X o o ; q > > ; o o o o ; > > > - o o o O ; > > > = O O O O > > > > - O O O = > > > < = O O $ = q > ",
": : : & o X o X & > > > & o o o o ; > > > ; o o o o ; > > > ; o O O O ; > > > - O O O O > q > > = O O O = > > > > = O O $ - q q ",
": : : % o . o o * > > > & o o o o ; > > > ; o o o o ; > > > ; o O O o ; > > > - O O O O > s > > = O O O = > > > > = O $ $ - q q ",
"> > > & X X o o & > > > * o o o o ; > > > ; o o o o > > > > ; o O O O > q > > - O O O O > s > > = O O O = > > q q = = $ = - q q ",
"E E E q & & & * h E <.E C ; * ; ; C E <.<.C > ; > ; C 9.9.-. .> > > >  .9.9.E B > > > > 9.9.9.9.H > > > >  .9.9.9.h > > > q 1.9.",
"1.1.1.C > * : > B 1.1.1.1.> > > >  .1.N.N.^ > > > > E N.N.N.9.> q > > E N.N.N.E q > > q 9.9.N.N. .q s > h 9.9.F.N.B > > > v d.d.",
"1.1.1.C : * > : b 1.1.1.<.> > > > E 9.N.1.1.q > > > E 1.N.N.9.q > > > E N.9.N. .q > > > 9.N.F.F. .q q > S 9.N.9.F.B q q s h k.F.",
"1.1.1.E : : > > C 1.1.9.<.> > > > E N.N.N.1.> > > > E 9.N.N.-.> q > > E 9.N.9. .> q > > 9.N.F.N. .q s > S 9.9.9.k.C > q q v 7.F.",
"<.P E h * * * * q E E E C ; ; ; ; B <.E 9.C ; ; ; ; C <.E E H ; ; ; > C  .E E h ; ; ; ; H 9. . .S ; ; ; > H 9.E E > ; ; - ; E E ",
": : : & o X o o & > > > ; o o o o ; > > > ; o o o o ; > > > ; O O O o ; > > > - O O O $ > s s s - O = = = > q q q = O $ $ = > q ",
"> * : & X X o o & > > > * o . X o ; > > > ; o o o o ; > > > ; o O O o ; > > > - O O O O ; s s s - O O $ = > > > q = O O O = > > ",
": : > % . . . . & > : : * o . . o ; > > > ; o o o o ; > > > ; o O o O ; > > > - O O O O ; s s s = O O $ = > > > > = O $ O = > > ",
": : > & X X o o & > > > * o X X o ; > > > ; o o o o ; > > > ; o . o O ; > > > - O O O O ; > > > - O O O = , s > s = O O o = > > "
};
