/* XPM */
static char *f3f9369841774d108a8d6ec85893cd13[] = {
/* columns rows colors chars-per-pixel */
"64 64 183 2 ",
"   c #E6D3D6",
".  c #EBD4D7",
"X  c #E6D6DB",
"o  c #EBD6DA",
"O  c #E6D9DD",
"+  c #EDDADC",
"@  c #F5D5D6",
"#  c #F8D6D6",
"$  c #F5D8D7",
"%  c #F9D8D7",
"&  c #F4D6D9",
"*  c #F8D6D9",
"=  c #F7D9D9",
"-  c #F7D8D8",
";  c #F4DAD9",
":  c #F6DAD8",
">  c #F6DAD9",
",  c #F7DAD9",
"<  c #F4D9DA",
"1  c #F5D9DB",
"2  c #F6D8DA",
"3  c #F7D8DA",
"4  c #F7D9DA",
"5  c #F6D9DB",
"6  c #F7D9DB",
"7  c #F4DADA",
"8  c #F4DBDB",
"9  c #F5DBDB",
"0  c #F6DADB",
"q  c #F7DBDB",
"w  c #F5D8D8",
"e  c #F0D9DC",
"r  c #F1D9DC",
"t  c #F2D9DC",
"y  c #F3D9DC",
"u  c #F3D9DD",
"i  c #F0DADC",
"p  c #F0DBDC",
"a  c #F1DBDC",
"s  c #F1DADD",
"d  c #F0DBDD",
"f  c #F1DBDD",
"g  c #F2DADC",
"h  c #F3DADC",
"j  c #F2DADD",
"k  c #F3DADD",
"l  c #F2DBDD",
"z  c #F1D9DE",
"x  c #F3DBDE",
"c  c #F2DBDF",
"v  c #F4D8DC",
"b  c #F4D9DC",
"n  c #F5D9DD",
"m  c #F6D8DC",
"M  c #F4DADC",
"N  c #F5DADC",
"B  c #F5DBDC",
"V  c #F4DADD",
"C  c #F5DADD",
"Z  c #F4DBDD",
"A  c #F5DBDD",
"S  c #F6DADC",
"D  c #F7DADC",
"F  c #F6DBDC",
"G  c #F7DBDC",
"H  c #F7DADD",
"J  c #F6DBDD",
"K  c #F5DADE",
"L  c #F4DBDE",
"P  c #F5DBDE",
"I  c #F7DADE",
"U  c #F6DBDE",
"Y  c #F6DBDF",
"T  c #F7DBDF",
"R  c #F0DCDD",
"E  c #F1DCDD",
"W  c #F0DDDD",
"Q  c #F2DCDD",
"!  c #F0DCDE",
"~  c #F1DCDE",
"^  c #F1DDDE",
"/  c #F1DDDF",
"(  c #F2DCDE",
")  c #F3DCDE",
"_  c #F2DDDE",
"`  c #F3DDDE",
"'  c #F2DDDF",
"]  c #F3DDDF",
"[  c #F0DEDE",
"{  c #F1DEDF",
"}  c #F2DEDE",
"|  c #F2DEDF",
" . c #F3DEDF",
".. c #F5DCDC",
"X. c #F4DDDC",
"o. c #F5DCDD",
"O. c #F4DDDD",
"+. c #F5DDDD",
"@. c #F7DCDC",
"#. c #F6DDDC",
"$. c #F7DDDC",
"%. c #F6DCDD",
"&. c #F7DCDD",
"*. c #F6DDDD",
"=. c #F4DEDD",
"-. c #F6DEDC",
";. c #F7DEDD",
":. c #F4DCDE",
">. c #F4DCDF",
",. c #F5DCDF",
"<. c #F4DDDF",
"1. c #F5DDDF",
"2. c #F7DCDE",
"3. c #F6DDDE",
"4. c #F7DDDE",
"5. c #F6DCDF",
"6. c #F7DCDF",
"7. c #F6DDDF",
"8. c #F7DDDF",
"9. c #F4DEDF",
"0. c #F7DEDE",
"q. c #F7DFDE",
"w. c #F7DEDF",
"e. c #F3DBDC",
"r. c #F8D8D8",
"t. c #F8D9D8",
"y. c #F8D8D9",
"u. c #F9D8D9",
"i. c #F8D9D9",
"p. c #FAD9D8",
"a. c #F8DAD9",
"s. c #F9DAD9",
"d. c #FADAD8",
"f. c #F8D8DA",
"g. c #FAD9DA",
"h. c #F8DADA",
"j. c #F9DBDB",
"k. c #F8DCDB",
"l. c #F8DADC",
"z. c #F9DBDC",
"x. c #F8DADD",
"c. c #F9DADD",
"v. c #F8DBDD",
"b. c #F9DBDD",
"n. c #FADBDC",
"m. c #FADADD",
"M. c #FADBDD",
"N. c #F8DCDC",
"B. c #F8DDDC",
"V. c #F8DDDD",
"C. c #FADCDE",
"Z. c #FBDCDE",
"A. c #F9DFDF",
"S. c #FADFDF",
"D. c #F8DBDC",
"F. c #EEE0DF",
"G. c #F5E0DF",
"H. c #E5D8E0",
"J. c #ECDDE1",
"K. c #F2DFE0",
"L. c #F4DDE0",
"P. c #F6DDE0",
"I. c #F7DDE0",
"U. c #F4DEE0",
"Y. c #F5DEE0",
"T. c #F5DEE1",
"R. c #F6DEE0",
"E. c #F7DEE0",
"W. c #F6DFE0",
"Q. c #F6DFE1",
"!. c #F7DFE1",
"~. c #F7DFE2",
"^. c #F4DEE1",
"/. c #F9DFE0",
"(. c #F9DFE0",
"). c #EEE0E1",
"_. c #F2E0E0",
"`. c #F4E0E1",
"'. c #F6E1E2",
"]. c #F6E2E3",
"[. c #F3E0E1",
"{. c #F9E2E1",
"}. c #F9E0E1",
/* pixels */
"# d.# # # d.# d.d.* # n.- # C.d.# $.@ # J n.3 J 3 3 J d.J W.J - $.J y J P.J W.] y ] y & ] y & ] ] ; $.] y ] ] y ] ] y + ] ; y K.",
"@ d.% # # d.# # d.d.3 n.3 3 $.d.* $.3 3 $.n.d.$.3 J $.J 3 $.$.J $.J y ; W.y W.] $.$.] y $.$.& + $.+ W.y ; y y ; $.K.y y y + o ] ",
"# % # # # n.# - d.- # n.- # $.d.3 C.- 3 $.n.3 $.3 J W.J J W.J & $.J J $.W.J W.$.J y ] & $.y & y ] o y ] y y + + y ] ; + ; + & ] ",
"# d.% # # C.# - 3 * # n.# d.$.3 3 C.3 3 $.n.3 $.& y $.$.; $.J @ W.J J $.W.y W.W.y y $.+ W.] ; y ] & ] ] y y y + ] ] + ; y + ; ] ",
"# d.% # # n.# - 3 d.% $.# # C.3 3 C.- - $.J ; $.3 y $.3 ; W.] ; '.J $.] ] J W.$.y y ] + ] + y y ] & y y y ] + + ] ] + & y + & ] ",
"# d.d.* - C.# # 3 3 # 3 - % $.- % /.3 J $.$.J $.3 J $.] $.W.] y '.J $.] _.y W.] ] ] ] + W.] ; + J o ] J ; ] ] y ] + ; + ] + y + ",
"* 3 3 - - C.@ # - 3 3 k.- # $.J 3 }.J 3 J n.3 $.; J $.$.3 W.W.y '.] ] W.W.J W.] $.] y y W.] ; + J o ] y ; + ] + ] + + + + + y y ",
"# 3 3 - # C.# # 3 3 # k.- - $.d.% $.3 3 J n.3 $.3 $.$.$.3 $.] y '.J y ] W.y '.] y y $.; '.] o ; y o + + + + + ; ] + o + + ; + + ",
"# 3 3 3 * C.# - 3 3 - C.- - $.3 % C.3 - J J 3 $.; 3 ] W.J W.] y W.J ] ] W.y $.] y y ] ; W.] o ; y o ] + + y ] y ] + + + + + + y ",
"# d.n.n.- C.% # 3 3 # J 3 - $.- % C.3 - J J 3 J ; ; $.W.J ] W.y '.$.] ] W.y W.y y $.] ; '.y + ; ] + K.+ + y y y ] + + + + + ; + ",
"# - d.3 * C.% # 3 3 - C.3 3 $.3 % C.3 - 3 J 3 W.J J $.W.J $.] y '.y $.] W.y '.] y ] ] + ] y o ; y . ] + + y ] ; ] + + + + + ; + ",
"# d.3 3 - C.# # 3 3 3 C.- 3 }.3 3 C.$.d.J J ; W.J y ] W.$.$.] J '.y y ] $.y '.] y ] ] o ] ] + y ] & ] + + + ] ; ] + o + + + + + ",
"# * 3 - # $.# # 3 3 3 C.# - $.3 3 $.3 3 $.J y W.] J ] W.y W.K.y '.] ] ] W.y K.] ] ] ] + K.] + + ] & K.+ + + + + + + o + + + + + ",
"# # 3 d.- C.- # 3 d.3 C.# - '.3 # $.3 3 y J J $.y y $.W.y $.] y '.y y y ] ; _.] ] ] ] ; ] ] + ] ] . ] + + + ] + + + o + + . + + ",
"* # # d.# $.3 @ 3 3 3 '.# - G.J & C.3 3 J J J $.$.; ] W.y ] ] + W.y y y ] y W.] + y ] & '.] ; + ] . ] y + + y + ] + + + + . + y ",
"# # 3 d.# $.- # 3 3 3 W.3 - $.J 3 C.; 3 J $.y ] y J ] W.; W.] + '.y y ] W.y K.y y y ] ; K.] ; + ] . ] + + + y o ] + + ] + o + + ",
"# # 3 3 # /.d.# 3 3 - W.; ; W.J 3 $.; 3 J ] J ] J y ] W.3 $.K.; '.; y ] K.y '.y y y ] ; ] ] + + ] @ ] + + + y o ] + o + + o + + ",
"# # d.3 # $.d.# 3 3 d./.3 & $.3 ; $.; - y ] ] ] y J $.W.& J + & '.y ] ] ] + _.y y ] + & ] + + + y . ] + o + y o K.+ o + + + o + ",
"# # 3 3 # $.# % k.3 - $.- J W.3 ; $.$.J $.W.3 $.y y $.$.& K.J.- W.; y y y + '.] y ] ] ; W.] + + ] o K.+ o + y + K.+ . ] + . + + ",
"@ # 3 3 # C.* - $.J 3 /.3 & '.$.; '.; 3 W.$.y ] $.J W.K.y y ] ; '.o y ] + y _.] y + ] + ] y o + ] @ ] + + + y + + + o + + o + + ",
"# # 3 3 - }.d.3 J 3 d.W.3 - ] $.; /.3 3 ] ] y $.] y y ] y y ] ; W.; y ] ] y '.] + ] ] + _.y + + ] . ] + + + + + ).+ + + + o + o ",
"# # 3 3 # $.3 3 $.3 - $.3 J $.$.3 C.; 3 y y ; J + J $.K.J J ] ; W.o y ] y y ] y + + ] ; _.] + + + . ] + o + + + ).+ o + + o + o ",
"3 # 3 3 * $.3 3 $.$.3 $.3 & $.] 3 /.3 3 y y y y y J ] _.y $._.; W.o + + y y ] ] + + ] o F.] + + + . + + o + + o + + o + + o + o ",
"3 # 3 3 # $.3 - $.$.3 $.3 y $.] 3 /.$.- J ] J J y y ] _.y y W.& '.& + + ; y ] ] + + ] + _.+ + + ] . ] ; o + + + ).+ o + + o + + ",
"# 3 J 3 @ $.3 - $.$.3 $.3 ; $.] 3 C.] J J ] J y ] ; y K.] y K.; W.; y + y + K.+ + + ] ; _.+ + + ] . + + o + + + + + o + + o + + ",
"# d.k.3 - $.3 - J J J W.k.J '.] 3 $.$.J W.] y y ] & y K.y ] ] ; '.+ ] ] y + ] + + + ] + _.+ + + ]   K.+ o + + + F.+ o ] + o o o ",
"% 3 k.3 @ $.3 3 J J 3 $.3 & $.y 3 $.] 3 J y y y y ; y ] J ] ] o W.+ + y ; y K.+ + + + + _.] + + + . ] + o + + + F.o o + + o + o ",
"3 # 3 3 - $.$ - 3 $.J '.; & $.] ; $.y 3 $.y y y y y $.] ; ] ] & K.y y ] y y K.+ + + ] + _.+ + + + o ).y + + + + F.+ o + + o + + ",
"# - $.3 - $.$ 3 J 3 3 $.k.@ W.] 3 $.] 3 y y 3 y y y ] K.; y K.+ _.+ y + y y ] + + y ] + _.+ + + + . K.+ o o + + + o o + o o o + ",
"# # 3 3 @ $.3 - 3 3 & $.; @ $.y 3 $.] ; J ] 3 y y y y J.; y + + G.o + ] y + K.] + + ] + K.+ o + + . ] + o o + + + o o + o o + + ",
"- # 3 3 # J 3 - 3 ; 3 $.3 3 $.y J $._.+ y ] ; J ] ; ] K.; + ] + ] o ] + ] ; K.+ + + + + _.+ + + + . _.+ o o + o + o o + + o J.o ",
"# # 3 3 @ $.$ - 3 ; 3 $.3 @ W.y ; $.+ ; J ] ; $.] y y K.; y + + K.& + ] ] y _.y + + y + ).+ + o +   J.+ o o + + + o . + + o + o ",
"3 # 3 3 - $.; - ; ; 3 $.; & W.y ; $.+ ; y ] 3 J y y y ] y y ] + K.+ + + + + _.+ + + + o _.+ + + + . + +   o o + + o X + o o J.o ",
"# # ; $ @ $.3 - ; ; 3 $.; & W.y ; $.] ; y ] J y y y y ] y y ] + ] + ] + G.+ ] + + + + o _.+ + + + . + + o o + o + o o + + o J.+ ",
"@ # $ 3 # C.$ # ; ; 3 W.3 & ] y ; $.] ; y y y ] y y y K.; ] + + G.o + + ] + ] y + + + + _.+ + + + . + + o + + + + + . o o o J.+ ",
"% 3 3 3 & $.; - ; ; ; ] 3 @ ] ] ; $.] ; y ] y ] + + y y ; ] ] + '.+ y + ] + + + + + ] + _.+ + + o   + + o o o o + o o + + o J.+ ",
"# # $.3 @ $.; 3 ; 3 3 $.; & $.y ; $.] ; y ] y ] + + ] W.; y + + ] + y + ] + _.+ + + + + + + . + + o + + o o o o + o X + + o + + ",
"# 3 J 3 @ $.; 3 $.$.3 }.J ; W.y J W.y ; ] ] y ] y y y K.+ y + + ] + y + + + _.+ + + + + + + o + +   ).+ X + + o + o o + + o + + ",
"@ - 3 J @ $.; 3 $.$.y W.y y '.y ; W.y y ] + y y ; y ] J.y ] + + W.+ + ] ] + ] + + + + + + + o o + X ).+ o o o o + X + + o o X + ",
"% - ; ; # $.; - ; ; 3 K.y ; ] ] y W.] ; + y y $.y y y J.; y + o '.o + y y + K.+ + + + + ] + o + +   J.o o o o o + + X o o o + + ",
"@ 3 3 3 # $.; & ; ; ; W.y ; $.] y W.y J y y ; y y ; y + + ] + + K.o + + ] + K.+ + + + + ] + o + +   + o o o o o + + X o o X X O ",
"@ 3 ; 3 & $.; - ] y & W.; y $.y y K.+ y ] ] y ] ] y ] + ; ] ] o K.+ + + J.+ [.+ ; + + + + o o + + . + + o o o o J.+ O + + o X O ",
"# - ; 3 & $.$ & ; y v W.; & $.y y W.+ y y ] y ] ] ; ] + y ] ] o ] + + + J.+ _.+ + + + o + o o + +   + + o + + + J.O O O + o + O ",
"@ # ; 3 & $.$ - y y & W.; ; ] ; y W.; ; y ] y ] y ; ] _.+ y + o ] + + + + + [.+ + + + o + + o o + . + + o + + + J.X O + + o + + ",
"@ # ; J @ $.3 J y $.J W.; ; W.+ y '.; ; y y ] ] ] y ] ] y y ] . ] o + + + + _.J.J.+ + o _.+ + + +   + + o + + + J.+ o o + X O O ",
"@ - ; ; # $.& ; y ; ; K.; y W.+ y '.y & y ; + ] + y ] ] y ] + + K.. + + + + _.+ + + + o ).+ o + +   + + O X + + J.+ X X + o O O ",
"- - ; 3 - W.; y ] J & W.; & _.] ; '.; & ] + + K.+ + + ] ; ] F.o W.+ + + J.+ _.J.+ + + o + + + + + X + + + + J.X J.+ X + O o O X ",
"@ - ; J & W.; & y y & W.; v K.] y W.+ & ] ] y ] + ; + + ] ] + o W.+ + + J.+ _.J.J.+ + o + + + + + X J.+ X + J.O ).+ X + O X O O ",
"& 3 ; J & W.; ; y y ; $.; ; _.] + W.y & y ] y ] y y + + + ] F.+ K.+ + + J.+ _.+ + + + o K.+ o + +   + + X + + + J.O X + + X O O ",
"3 3 ; J & '.; y y y ; W.; ; '.] + _.; ; y + ] ] + + + + + ] + + K.+ + + J.+ _.J.+ + + X J.J.X + +   + + o + + + J.+ X J.J.X O + ",
"@ & ; ; & '.; y y y & W.; y '.J.+ '.y ; ] + ] ] + + + _.+ + + + _.+ + + + + _.+ + + J.o J.+ + + + X J.+ O J.J.O J.O X + + X O O ",
"; ; y y & '.y y y y & W.y y _.J.+ W.y ; + ] y + + + ] ] + ] + + K.+ + + ).+ J.+ + + J.+ J.+ O + J.X J.+ O J.J.+ J.O O + + X + O ",
"@ J ; J y W.; y ] y ; W.y ; _.] + _.] + + + + ] + + y ] y K.).+ _.+ + + ).o K.J.+ J.J.+ [.+ O + J.X J.+ + J.J.O J.J.O O + X O O ",
"@ J ; J & W.y y ] ] ; W.y ; _.] + '.y + + ] y ] + + y + + K.).+ [.+ + + K.o J.J.+ + + o ).+ + J.+ X J.J.+ J.J.O J.O X O + X O O ",
"- y y J & W.y J ] ] ; W.o & K.] + '.; + ] ] y G.+ + + + y J.J.+ _.J.+ + + o K.J.J.+ + o [.J.o + +   J.J.X O J.O J.O X + + X O O ",
"- y y J & W.y y ] y ; K.+ ; K.] ; '.; + ] ] ] ] + y + + y + J.+ [.+ + + J.o K.J.J.J.J.o J.+ O + + X J.J.X + + X J.+ X O J.X O X ",
"3 y ] y o W.y y ] ] ; ] + y ] + ; W.+ + y + + ] o + + K.+ + + + [.+ + + J.+ K.J.+ J.+ o J.+ + + +   J.J.+ J.J.O J.+ X O O X O O ",
"; J y y & /.; ; + y & $.o & W.+ ; [.+ y ] ] + + o + + ] + J.+ o ] J.J.J.J.+ J.+ o + J.+ J.J.X + +   + J.O O + O J.+ X O O X H.X ",
"& J y y & W.J & + y ; W.+ & W.y y _.+ y ] ] y K.+ + + + + J.+ o [.+ + J.K.+ K.+ + + J.+ J.+ O + +   J.O X + + X J.O X X O X J.O ",
"& J y y & '.& ; + y ; $.+ @ K.y y _.+ ; ] ] y K.+ y + + + + + + ).J.+ J.).+ J.J.+ J.J.+ J.+ X J.J.  J.O X O X X J.O X O O X H.O ",
"& J y y & W.; ; y y ; W.+ & _.y y _.+ & ] K.y K.+ + ] ] + K.+ + K.+ + J.).+ J.J.J.+ J.X J.+ o + J.  J.+ X + O X + O   X O X H.X ",
"& J J J & W.& y y y & ] + & ).+ + _.o o + K.y K.+ + K.+ + K.K.+ K.J.+ J.).+ K.+ J.+ J.X J.+ o + J.  O + X O O X + O X O X X X O ",
"& y y J o $.& + y y y K.+ & _.+ o K.o + ] ] + K.+ + J.+ + J.+ + ] J.+ + J.+ J.J.+ + J.X J.+ o + J.  H.O O J.+ X J.+ X + X X H.O ",
"& ] y J ; W.o + y y y K.o & _.y ; K.+ + J.+ + J.+ + ).] + J.+ o K.+ + + J.+ ).J.J.J.J.O J.+   X +   + O O + + X + O X X X X X X "
};
