/* XPM */
static char *_a25419f066c40d0a05201f6e4d66da6zYuNEYBr6ggSzWMK[] = {
/* columns rows colors chars-per-pixel */
"64 64 141 2 ",
"   c #CA9C8F",
".  c #CD9E92",
"X  c #CF9F98",
"o  c #D19F93",
"O  c #CEA195",
"+  c #CFA399",
"@  c #CEA89E",
"#  c #D1A296",
"$  c #D2A59B",
"%  c #D4A99E",
"&  c #D8AA9F",
"*  c #CFABA1",
"=  c #CEAFAA",
"-  c #D4A7A1",
";  c #D5ACA2",
":  c #D9ACA5",
">  c #DBAEA8",
",  c #D5B1A6",
"<  c #DAB1A6",
"1  c #DCB0A5",
"2  c #DCB2A7",
"3  c #D9B1A6",
"4  c #D6B4AB",
"5  c #DBB0A9",
"6  c #D9B3A8",
"7  c #DAB2A8",
"8  c #DBB2A9",
"9  c #DBB3AB",
"0  c #DCB0A8",
"q  c #DDB0A8",
"w  c #DCB0A9",
"e  c #DCB3A8",
"r  c #DCB0AA",
"t  c #DCB0AB",
"y  c #DDB0AB",
"u  c #DCB1AB",
"i  c #DBB5AA",
"p  c #DBB5AB",
"a  c #DCB4A9",
"s  c #DDB4A9",
"d  c #DDB5AA",
"f  c #DBB1AC",
"g  c #DCB2AC",
"h  c #DDB3AC",
"j  c #DCB3AD",
"k  c #DBB4AC",
"l  c #DAB5AC",
"z  c #DAB6AC",
"x  c #DBB6AC",
"c  c #DBB7AD",
"v  c #DAB7AE",
"b  c #DBB7AE",
"n  c #DCB4AC",
"m  c #DCB5AC",
"M  c #DCB4AD",
"N  c #DDB4AD",
"B  c #DCB5AD",
"V  c #DDB5AD",
"C  c #DCB6AC",
"Z  c #DCB6AD",
"A  c #DDB6AD",
"S  c #DEB6AD",
"D  c #DDB5AE",
"F  c #DDB5AF",
"G  c #DCB7AE",
"H  c #DCB6AF",
"J  c #DEB6AE",
"K  c #DEB6AF",
"L  c #DFB7AF",
"P  c #D9B4AB",
"I  c #D7B8AF",
"U  c #DBB9AE",
"Y  c #DCB8AD",
"T  c #DDB8AF",
"R  c #DAB8AE",
"E  c #D6B7B0",
"W  c #DAB6B0",
"Q  c #D6B9B1",
"!  c #DDB8B0",
"~  c #DEB9B0",
"^  c #DEBAB1",
"/  c #DFBBB1",
"(  c #DEBBB2",
")  c #D8BCB7",
"_  c #DABDB7",
"`  c #DFBCB5",
"'  c #DDBFB7",
"]  c #D9BBB3",
"[  c #D9BDB8",
"{  c #DBBEB8",
"}  c #DBBFB9",
"|  c #DBBFBA",
" . c #DCBEB8",
".. c #DDBFB8",
"X. c #DCBFB9",
"o. c #DDBFB9",
"O. c #DEBFB8",
"+. c #DDBFBA",
"@. c #DABFB8",
"#. c #E0B9B2",
"$. c #E0BDB5",
"%. c #E2BDB5",
"&. c #E1BFB6",
"*. c #DFC0B5",
"=. c #DFC1B5",
"-. c #DEC2B5",
";. c #DFC2B6",
":. c #DDC1B9",
">. c #DFC1B8",
",. c #DEC0B9",
"<. c #DFC0B9",
"1. c #DFC2B9",
"2. c #DCC0BA",
"3. c #DDC0BA",
"4. c #DDC1BA",
"5. c #DFC0BB",
"6. c #DEC1BB",
"7. c #DFC2BC",
"8. c #DDC4BC",
"9. c #E2C1B8",
"0. c #E0C3B8",
"q. c #E1C3B8",
"w. c #E0C2B9",
"e. c #E1C2B9",
"r. c #E1C3B9",
"t. c #E0C1BA",
"y. c #E2C0BA",
"u. c #E1C2BA",
"i. c #E1C4B8",
"p. c #E1C4B9",
"a. c #E3C4BA",
"s. c #E2C4BB",
"d. c #E0C7BA",
"f. c #E0C2BC",
"g. c #E2C3BC",
"h. c #E3C7BE",
"j. c #E0CABF",
"k. c #DEC7C3",
"l. c #DEC9C4",
"z. c #E0C9C2",
"x. c #E0C8C5",
/* pixels */
"H H H H H H H H H ! a > > > > > > > > > %.H w w h w w w w f w %.: > : : : : > > : : q.: 8 > > > > > > > : q.8 v f f h H H h h H ",
"> < > > w w w > w H a : > > > > > > > : ! H > > > > > > > > : ` : > : : : : > > : : %.: : : : : : : : : ; ! : : : ; : ; ; : ; ; ",
"> > > > > > > > : v a > > > > > > : > : Y h : : > > > > : > : ! : : : : : : : : : : #.: : : : : : : : : ; ! ; : : : : : : : ; ; ",
": : : : : : ; : : 3 : ; ; ; ; ; ; ; : & v : ; ; : ; ; & ; ; & U % ; ; ; & & & ; & % H % ; ; ; & & & & & $ v % ; ; % % % $ ; $ $ ",
"q.i.q.q.i.i.i.i.i.z.h.g.i.q.;.1.q.q.q.1.j.i.;.;.;.1.1.o.o.o.` l.g.8.7.1.o.1.o.o.} } x.q.1.1.o.o.} } } _ _ k.1.1.o.1.1.1.1.o.o.} ",
": : : : : : : : : < 1 : : : : : : : : : H : : : : : ; & : : & Y & : : : ; ; ; : : & H % ; ; ; ; ; ; ; ; & v & ; ; ; & & ; & & - ",
"> > > > > > > > : 8 1 > > > > > > > > : H 8 : : : : : : : : : v : : : : : : : : : : H : : : : : : : : : ; H : : : : : : : : : ; ",
"> > > > > > > > : 8 w > > > > > : : : : H 8 : : : : : : : : : v > : : : : : : : : : H : : : ; : : : : ; ; v : : ; : : : : : : ; ",
": : > : : : : > : < < : : : : : : : : : a < : : : : : : : : ; v : : : : : : : : ; ; H : : : ; ; ; ; ; ; & v ; : ; ; ; ; ; ; ; ; ",
"; ; ; ; ; ; ; ; ; 4 3 ; ; ; ; ; ; ; ; ; v 6 ; ; ; ; ; ; ; ; % E ; ; ; ; ; ; ; ; ; ; W ; : ; ; ; ; ; ; ; ; E ; ; ; ; ; ; ; ; ; ; ",
"w w 8 8 < w 8 w a Y a 8 8 8 8 8 8 < 8 < ! a 8 8 < 8 < < < < ; Q : 8 8 < 8 8 8 8 8 < ! ; > 8 < < 8 8 8 8 3 U : < : 8 ; ; < < 3 ; ",
": > : : : : : : : < < : : : : : : : : : a : : : : : : : : : : a : ; : : : : : : : & 8 & : : ; ; ; ; ; ; & 8 ; : : ; ; ; ; ; ; - ",
"> > : : : : : > : < 1 : : : : : : : : : a < : : : : : : : : : v : : : : : : : : : ; a ; : : : : : : : : ; 8 : : : ; ; ; ; ; ; - ",
"> > : : : : : : : : : : : : : : : : : : 8 : : : : : : : : : : a : : : : : : : : : : 8 ; : : : : : : : : % 8 ; : : ; ; ; ; ; ; $ ",
"& & & & % % & & % & & & & & & $ % & & % 6 ; & & % $ % $ % & $ , # & & % % % % % & $ 3 $ % % $ $ $ % % % # ; $ % % $ $ # # $ $ O ",
"I I I I I I I v I ] Q I v I I I I E Q v _ Q I I I I I I I I 4 ) 4 I I I I I I E E I } I E I I I I E I I I _ I I I I I I 4 I 4 4 ",
": : : : ; : : : : : : ; ; ; ; ; : : : & 3 : ; ; ; ; & & ; ; % 8 & ; ; ; ; ; ; ; ; % < % ; ; ; ; & & & % $ 3 $ & & & % % $ $ $ $ ",
": : : : : : : : : < : : : : : : : : : : < : : : : : ; ; : : & 8 : : : : ; ; : : : ; 8 & ; : : ; ; ; ; ; & 3 & ; ; ; ; ; ; - ; $ ",
": : : : : : : : : : : : : : : : : : : : < : : : : : : ; ; : & 8 : : : : : : : : : ; < & ; ; ; ; ; ; ; ; $ 3 & ; ; ; ; ; ; - - $ ",
": : : : : : & : & ; : & : : ; ; : & ; ; 3 : ; & & & & % & & % < % : : : : & & & & % : % & & & & & & & & $ ; % & & % $ % % % & + ",
"6 6 6 6 6 6 8 6 4 E I 6 3 3 3 ; ; ; ; ; E I 6 6 6 6 6 6 6 , 6 Q ; , , 6 6 6 6 4 6 6 Q 3 , , , , , , 6 6 , E , , , ; , , , , , = ",
": : : ; ; ; : : : 6 : ; ; ; ; ; ; ; ; ; 4 3 ; ; ; ; ; ; ; ; ; I % ; ; ; ; ; ; ; ; ; v ; ; ; ; ; ; ; ; ; ; 4 ; ; ; ; ; ; ; ; ; ; ",
": : : & : & : : & ; & & & & & & & % & & ; ; & ; ; ; ; ; & & % 3 % ; ; ; ; ; & ; ; % < % ; ; ; ; - % ; ; $ ; $ ; ; - - - $ - $ $ ",
": ; : : ; & & & & ; ; & & % ; % & - ; & 3 ; % ; ; ; ; ; ; ; % ; & ; ; ; ; ; - - - % < & ; - - - - - - - $ ; % - - - - - - - - $ ",
": & & & & & & & & ; ; & ; & & % & ; ; & : ; & ; ; ; % & ; ; % ; % & ; ; & & ; % & $ < % ; ; ; ; ; ; % $ $ ; % - - - - - - ; - $ ",
"% % % # # # # # # % $ $ $ $ # # # # $ # ; $ $ $ $ # # # # # # ; # # # + # # # # # O ; O # # # # O O # O X ; O # + O O O O O O O ",
"v v v v v v v v v Q U v v v v v v Q v v _ v v v f I 6 6 4 4 , _ 8 v v v v v v U U v _ 6 I 4 I 4 6 4 I 4 6 Q 6 6 3 ; ; ; ; ; ; ; ",
"% & & & & & & & % % & & & & & % % & % $ ; & & & & & & & & & % 3 % % & & $ $ $ $ % $ ; # $ % $ $ % % % % # & # $ $ $ $ $ $ $ $ O ",
"% % ; ; & & & & & ; ; & % & & % & & & & ; ; % % % ; ; % & & % 3 % % $ $ $ $ $ - - $ ; $ $ $ $ $ $ $ $ $ # ; $ $ - - - - $ $ $ + ",
"& & & & & & & ; & ; & & % & % % & & & % ; ; % % ; & & & & & % 3 % ; ; ; $ $ $ $ % $ ; $ $ $ $ $ $ $ $ $ # ; $ $ % $ $ - $ $ $ + ",
"& & & $ $ $ $ & % ; & $ % $ $ $ $ % % $ ; & % & % % $ % % % $ ; $ % $ $ $ $ $ $ $ # : # $ $ $ $ $ $ $ $ O ; + $ $ $ $ # # # $ O ",
"; 3 3 3 ; 3 3 3 3 I 3 ; ; ; ; ; ; ; ; * I 6 ; , , ; ; ; 3 3 , E ; , , ; ; ; , 6 , 6 Q ; ; ; ; ; ; ; ; ; ; I * ; ; ; ; ; ; ; ; = ",
"% $ $ % % % % % # % % % % % # # $ $ $ # ; % $ $ % $ $ $ $ $ # 3 # $ $ $ $ $ $ $ $ # ; # $ $ $ $ O # # # O ; # $ $ # # # + + + X ",
"& & & & % & & % $ ; & & $ $ % % % % % % ; & % % $ % % % % % % ; $ $ $ $ $ $ $ $ $ $ ; $ $ - $ $ $ $ $ $ O ; $ $ $ $ $ $ $ $ $ + ",
"& & % & % % & $ $ ; & % % $ % % $ % $ $ ; & $ $ $ $ $ $ $ $ % ; % $ $ $ $ $ $ $ $ $ ; $ $ $ $ $ $ $ $ $ # ; $ $ $ $ $ $ $ $ $ + ",
"& % % % % % % % % & % % % % % % % % % % ; & % % % % $ % % $ # ; $ $ % $ $ $ % $ $ # ; # $ % $ $ $ $ $ $ + ; $ $ $ $ $ $ $ $ $ + ",
"O # o o . . O # # $ $ O O O X X . O O . ; $ # O O O . O O O . ; . O O X . . X . . . ; . O . . . . . . . . % . . X X .   . . . . ",
"v v v v a a v U U Q v v a 8 3 3 3 3 3 3 Q U I 4 8 a a 4 4 v 4 _ 3 4 v v v a v I I I ] 6 6 6 6 6 , , 6 6 , E 6 6 6 6 , 6 6 , , ; ",
"% % % % % % % % % % % % % % $ $ $ % $ $ ; & $ $ $ $ $ $ $ $ # 3 # $ $ $ $ $ $ $ $ # ; # $ $ $ $ + $ $ $ O % # $ $ $ $ + $ + + . ",
"% % % % % % % % % ; & $ % $ $ $ $ $ $ $ ; ; $ $ $ $ $ $ $ % % 3 $ $ $ $ $ $ $ $ $ $ ; $ $ $ $ $ @ + $ @ + ; $ $ $ $ $ $ $ + + + ",
"% % % % % % % % % % & % % $ $ $ $ $ $ $ ; & $ $ $ $ $ $ $ % $ 3 $ $ $ $ $ $ $ $ $ $ ; $ $ $ $ $ $ $ $ $ + ; # $ $ # $ $ $ + + + ",
"% % % # # # # % # $ % # # # # # # # # # ; $ # # # # # # # # # ; # $ $ # # # # # O O & o # + # # # # # # . & X + + # O X # O O . ",
"; ; ; ; ; ; ; ; ; , 3 ; ; ; ; ; ; ; ; ; I 3 ; ; 3 3 3 3 6 6 6 ) ; ; ; ; ; ; ; ; ; ; I ; ; ; ; ; ; ; ; , ; I * ; ; ; @ ; * * ; * ",
"% % % # # # # # # $ % # % # # # # # # # ; $ # # # # # # # # # ; o # # # # # # # # o & o # # # # O O # # . % X O # O O X O O O . ",
"% % % % % % % % % $ & % % % % % % $ $ % ; & $ $ $ $ $ $ $ $ # ; # $ $ $ $ $ $ $ $ # ; # $ $ $ $ $ $ @ $ O % O + # + # + + + + O ",
"% % % $ % % % % % % & % % % $ % % $ $ % ; & $ $ $ $ $ $ $ $ $ ; $ $ $ $ $ $ $ $ $ # ; $ $ $ $ $ $ + $ $ O ; # + + + + + + + + O ",
"% % % % $ $ $ % # $ % % % % $ $ $ $ % $ ; % $ $ $ $ $ $ $ $ # ; # $ $ $ $ $ # $ $ # & # $ $ $ $ $ $ # # O % # # + + + + # # # X ",
"% & % % $ $ $ $ $ ; ; - ; ; % % % % ; % 6 ; % % ; $ $ % & ; & I $ % $ $ $ $ $ + + + 3 $ $ @ @ + $ $ $ $ + ; @ @ @ + + + + + + O ",
"; ; ; & & % % % % ; ; ; ; ; ; & & ; ; & 6 ; ; ; ; ; % & ; ; % I % % % @ @ % $ % $ @ 6 $ % % $ $ @ $ $ % + 3 $ % % @ @ @ @ @ @ + ",
"% % % % $ $ $ $ % $ % $ % $ $ $ $ $ $ # ; $ $ $ $ $ $ $ $ $ # ; # $ + $ # $ $ + + # ; O $ + # # $ # # # X % # # # # # + # # # . ",
"% % % % % % % $ % $ & $ $ $ $ $ $ $ $ $ ; & $ $ $ @ $ $ $ $ # ; # $ $ $ $ $ $ $ $ # ; # $ # $ $ $ + + + O ; O + # # # + # # # O ",
"$ % % % $ $ $ % $ $ & $ $ $ $ $ $ $ $ $ ; % $ $ $ $ $ $ $ $ # ; # $ $ + + + + $ $ # ; # # # + + + + + $ X ; O + # + + + + + # O ",
"# # # # # o # O O $ # # # # O O # O # o % # # # O O . . O O . ; . O O O . . . . . . & . O O . . . . . .   $ . . . . . . . . .   ",
"; 6 6 3 ; ; ; 3 3 I 6 ; ; ; ; ; ; ; ; ; E 6 3 3 3 3 3 3 3 6 4 _ ; ; ; , 3 3 3 6 6 4 E ; ; ; ; ; ; ; ; ; ; I ; ; ; * * ; ; * * * ",
"# % $ # # # # # # $ $ # # # # # # # # # ; $ # # # # # # # # # ; o O # # # # # O # . % X + + O # X # O # . % O O # # # # # # O . ",
"% % % % % % $ $ $ % % % $ $ $ $ $ $ $ $ ; % $ $ $ $ $ $ $ $ $ ; # # + # # # $ + + # ; # # + # # # # + + O % O + # # # # # # + . ",
"$ % % % % $ $ $ $ % % $ $ $ $ $ $ $ $ $ ; % $ $ $ $ $ $ $ $ # ; # $ + + + # # $ # # ; # + + # # # # + + O ; + + + + + + # + + . ",
"$ $ % % $ $ $ $ # $ % $ $ $ $ $ $ $ $ # % $ $ $ + + + + $ $ # ; # # $ + + O # # # o & O # + # O O O O # . % O + + + O O O O O . ",
": ; ; ; ; ; ; ; ; 6 , ; ; ; % % % % % $ 6 ; ; ; ; ; ; ; ; ; % E ; ; ; ; ; % % ; ; % I ; ; ; % % @ @ @ @ @ , ; * ; ; % ; ; ; ; ; ",
"# # # # # # # # # $ # # # # # # # O O O ; # O # . o o . O O O ; o # # # . . # O O . ; . O O . . . . # O . % . O . . . . . . .   ",
"$ $ $ $ # $ $ $ $ % $ $ + $ # # # $ $ # ; $ $ $ $ $ # # $ $ O ; # $ + # $ # # + + O ; O + + + # # + + + X % O + + + + + + + + . ",
"$ $ $ % $ % % $ $ % $ $ $ + $ $ $ $ + $ ; $ $ $ $ $ $ $ $ $ # ; # $ + + # # # + + O ; O + # + # # + + + O % O + # # + + # + + O ",
"% % % % $ $ $ $ $ % $ $ $ $ $ $ $ # $ # ; $ $ $ + + $ $ $ $ # ; # + + + + + + + + O % O # # + + + + + + . % O # # # + + + + + . ",
"+ # # # o o # # # $ # O # # # O O # # . % # # # O O . . O O . % . O O O . X . O X . % . O O O . . . X X   $ . O O O . . . X X   "
};
