/* XPM */
static char *c2274dd6b0ae4729edc495cf4db381dfbXIi0ilO5UbPhFwH[] = {
/* columns rows colors chars-per-pixel */
"64 64 2 1 ",
"  c #9A8DEF",
". c #B39EF9",
/* pixels */
"                                                                ",
"                                                                ",
"..............      ..........................      ............",
"..............      ..........................      ............",
"................  ..............................  ..............",
"................  ..............................  ..............",
"................  ..............................  ..............",
"................  ..............................  ..............",
"................  ..............................  ..............",
"................  ..............................  ..............",
"................  ..............................  ..............",
"................  ..............................  ..............",
"................  ..............................  ..............",
"................  ..............................  ..............",
"..............      ..........................      ............",
"..............      ..........................      ............",
"                                                                ",
"                                                                ",
"    ..........................      ..........................  ",
"    ..........................      ..........................  ",
"  ..............................  ..............................",
"  ..............................  ..............................",
"  ..............................  ..............................",
"  ..............................  ..............................",
"  ..............................  ..............................",
"  ..............................  ..............................",
"  ..............................  ..............................",
"  ..............................  ..............................",
"  ..............................  ..............................",
"  ..............................  ..............................",
"    ..........................      ..........................  ",
"    ..........................      ..........................  ",
"                                                                ",
"                                                                ",
"..............      ..........................      ............",
"..............      ..........................      ............",
"................  ..............................  ..............",
"................  ..............................  ..............",
"................  ..............................  ..............",
"................  ..............................  ..............",
"................  ..............................  ..............",
"................  ..............................  ..............",
"................  ..............................  ..............",
"................  ..............................  ..............",
"................  ..............................  ..............",
"................  ..............................  ..............",
"..............      ..........................      ............",
"..............      ..........................      ............",
"                                                                ",
"                                                                ",
"    ..........................      ..........................  ",
"    ..........................      ..........................  ",
"  ..............................  ..............................",
"  ..............................  ..............................",
"  ..............................  ..............................",
"  ..............................  ..............................",
"  ..............................  ..............................",
"  ..............................  ..............................",
"  ..............................  ..............................",
"  ..............................  ..............................",
"  ..............................  ..............................",
"  ..............................  ..............................",
"    ..........................      ..........................  ",
"    ..........................      ..........................  "
};
