/* XPM */
static char *e2ccadafd5664c4cb9c78393a41f5f2d[] = {
/* columns rows colors chars-per-pixel */
"64 64 3 1 ",
"  c None",
". c black",
"X c #C769C7",
/* pixels */
".X.X.X.X.X.X.X.X.X.X.X.X.X.X.X.X.X.X.X.X.X.X.X.X. .X. .X. .X. .X",
"XXXXXXXXX.XXX.XXX.XXX.XXX.X.X.X. .X. .X. . . . . . . . . . . . .",
".X.X.X.X.X.X.X.X.X.X.X.X.X.X.X.X.X.X.X.X.X.X.X.X.X.X.X.X.X. . . ",
"XXXXXXXXXXXXXXXXXXX.XXX.X.X.X.X.X. .X. . . . . . . . . . . . . .",
".XXX.XXX.X.X.X.X.X.X.X.X.X.X.X.X.X.X.X.X.X.X.X.X.X.X. .X. .X. .X",
"XXXXXXXXXXXXX.XXX.XXX.XXX.XXX.X.X.X. .X. .X. .X. . . . . . . . .",
"XX.X.X.X.X.X.X.X.X.X.X.X.X.X.X.X.X.X.X.X.X.X.X.X.X.X.X.X.X.X.X. ",
"XXXXXXXXXXXXXXXXXXXXXXX.XXX.X.X.X.X.X.X.X. .X. . . . . . . . . .",
".XXX.XXX.X.X.X.X.X.X.X.X.X.X.X.X.X.X.X.X.X.X.X.X.X.X.X.X. .X. .X",
"XXXXXXXXXXXXXXXXX.XXX.XXX.XXX.XXX.X.X.X. .X. .X. .X. . . . . . .",
"XXXXXX.X.X.X.X.X.X.X.X.X.X.X.X.X.X.X.X.X.X.X.X.X.X.X.X.X.X.X.X.X",
"XXXXXXXXXXXXXXXXXXXXXXXXXXX.XXX.X.X.X.X.X.X.X.X. . . . . . . . .",
"XXXX.XXX.XXX.XXX.X.X.X.X.X.X.X.X.X.X.X.X.X.X.X.X.X.X.X.X.X.X. .X",
"XXXXXXXXXXXXXXXXXXXXXXXXX.XXX.XXX.XXX.X.X.X. .X. .X. .X. . . . .",
"XXXXXXXXXX.XXX.X.X.X.X.X.X.X.X.X.X.X.X.X.X.X.X.X.X.X.X.X.X.X.X.X",
"XXXXXXXXXXXXXXXXXXXXXXXXXXXXXXX.XXX.X.X.X.X.X.X.X. .X. . . . . .",
"XXXXXXXX.XXX.XXX.XXX.XXX.X.X.X.X.X.X.X.X.X.X.X.X.X.X.X.X.X.X.X.X",
"XXXXXXXXXXXXXXXXXXXXXXXXX.XXX.XXX.XXX.XXX.X.X.X. .X. .X. .X. .X.",
"XXXXXXXXXXXXXXXXXX.X.X.X.X.X.X.X.X.X.X.X.X.X.X.X.X.X.X.X.X.X.X.X",
"XXXXXXXXXXXXXXXXXXXXXXXXXXXXXXXXXXX.XXX.X.X.X.X.X.X.X.X.X. .X. .",
"XXXXXXXXXXXX.XXX.XXX.XXX.X.X.X.X.X.X.X.X.X.X.X.X.X.X.X.X.X.X.X.X",
"XXXXXXXXXXXXXXXXXXXXXXXXXXXXXXXXX.XXX.XXX.XXX.X.X.X. .X. .X. .X.",
"XXXXXXXXXXXXXXXXXXXXXX.X.X.X.X.X.X.X.X.X.X.X.X.X.X.X.X.X.X.X.X.X",
"XXXXXXXXXXXXXXXXXXXXXXXXXXXXXXXXXXXXXXX.XXX.X.X.X.X.X.X.X.X.X. .",
"XXXXXXXXXXXXXXXX.XXX.XXX.XXX.XXX.X.X.X.X.X.X.X.X.X.X.X.X.X.X.X.X",
"XXXXXXXXXXXXXXXXXXXXXXXXXXXXXXXXXXXXXXXXX.XXX.XXX.X.X.X. .X. .X.",
"XXXXXXXXXXXXXXXXXXXXXXXXXX.XXX.X.X.X.X.X.X.X.X.X.X.X.X.X.X.X.X.X",
"XXXXXXXXXXXXXXXXXXXXXXXXXXXXXXXXXXXXXXXXXXX.XXX.X.X.X.X.X.X.X.X.",
"XXXXXXXXXXXXXXXXXXXX.XXX.XXX.XXX.XXX.X.X.X.X.X.X.X.X.X.X.X.X.X.X",
"XXXXXXXXXXXXXXXXXXXXXXXXXXXXXXXXXXXXXXXXX.XXX.XXX.XXX.X.X.X. .X.",
"XXXXXXXXXXXXXXXXXXXXXXXXXXXXXX.X.X.X.X.X.X.X.X.X.X.X.X.X.X.X.X.X",
"XXXXXXXXXXXXXXXXXXXXXXXXXXXXXXXXXXXXXXXXXXXXXXX.XXX.X.X.X.X.X.X.",
"XXXXXXXXXXXXXXXXXXXXXXXX.XXX.XXX.XXX.XXX.X.X.X.X.X.X.X.X.X.X.X.X",
"XXXXXXXXXXXXXXXXXXXXXXXXXXXXXXXXXXXXXXXXXXXXXXXXX.XXX.XXX.X.X.X.",
"XXXXXXXXXXXXXXXXXXXXXXXXXXXXXXXXXX.XXX.X.X.X.X.X.X.X.X.X.X.X.X.X",
"XXXXXXXXXXXXXXXXXXXXXXXXXXXXXXXXXXXXXXXXXXXXXXXXXXX.XXX.X.X.X.X.",
"XXXXXXXXXXXXXXXXXXXXXXXXXXXX.XXX.XXX.XXX.XXX.X.X.X.X.X.X.X.X.X.X",
"XXXXXXXXXXXXXXXXXXXXXXXXXXXXXXXXXXXXXXXXXXXXXXXXXXXXX.XXX.XXX.XX",
"XXXXXXXXXXXXXXXXXXXXXXXXXXXXXXXXXXXXXX.XXX.X.X.X.X.X.X.X.X.X.X.X",
"XXXXXXXXXXXXXXXXXXXXXXXXXXXXXXXXXXXXXXXXXXXXXXXXXXXXXXXXXXX.X.X.",
"XXXXXXXXXXXXXXXXXXXXXXXXXXXXXXXX.XXX.XXX.XXX.XXX.X.X.X.X.X.X.X.X",
"XXXXXXXXXXXXXXXXXXXXXXXXXXXXXXXXXXXXXXXXXXXXXXXXXXXXXXXXX.XXX.XX",
"XXXXXXXXXXXXXXXXXXXXXXXXXXXXXXXXXXXXXXXXXX.XXX.X.X.X.X.X.X.X.X.X",
"XXXXXXXXXXXXXXXXXXXXXXXXXXXXXXXXXXXXXXXXXXXXXXXXXXXXXXXXXXX.XXX.",
"XXXXXXXXXXXXXXXXXXXXXXXXXXXXXXXXXXXXXXXX.XXX.XXX.XXX.X.X.X.X.X.X",
"XXXXXXXXXXXXXXXXXXXXXXXXXXXXXXXXXXXXXXXXXXXXXXXXXXXXXXXXXXXXX.XX",
"XXXXXXXXXXXXXXXXXXXXXXXXXXXXXXXXXXXXXXXXXXXXXX.XXX.X.X.X.X.X.X.X",
"XXXXXXXXXXXXXXXXXXXXXXXXXXXXXXXXXXXXXXXXXXXXXXXXXXXXXXXXXXXXXXXX",
"XXXXXXXXXXXXXXXXXXXXXXXXXXXXXXXXXXXXXXXX.XXX.XXX.XXX.XXX.X.X.X.X",
"XXXXXXXXXXXXXXXXXXXXXXXXXXXXXXXXXXXXXXXXXXXXXXXXXXXXXXXXXXXXXXXX",
"XXXXXXXXXXXXXXXXXXXXXXXXXXXXXXXXXXXXXXXXXXXXXXXXXX.XXX.X.X.X.X.X",
"XXXXXXXXXXXXXXXXXXXXXXXXXXXXXXXXXXXXXXXXXXXXXXXXXXXXXXXXXXXXXXXX",
"XXXXXXXXXXXXXXXXXXXXXXXXXXXXXXXXXXXXXXXXXXXXXXXX.XXX.XXX.XXX.X.X",
"XXXXXXXXXXXXXXXXXXXXXXXXXXXXXXXXXXXXXXXXXXXXXXXXXXXXXXXXXXXXXXXX",
"XXXXXXXXXXXXXXXXXXXXXXXXXXXXXXXXXXXXXXXXXXXXXXXXXXXXXX.XXX.X.X.X",
"XXXXXXXXXXXXXXXXXXXXXXXXXXXXXXXXXXXXXXXXXXXXXXXXXXXXXXXXXXXXXXXX",
"XXXXXXXXXXXXXXXXXXXXXXXXXXXXXXXXXXXXXXXXXXXXXXXXXXXXXXXX.XXX.XXX",
"XXXXXXXXXXXXXXXXXXXXXXXXXXXXXXXXXXXXXXXXXXXXXXXXXXXXXXXXXXXXXXXX",
"XXXXXXXXXXXXXXXXXXXXXXXXXXXXXXXXXXXXXXXXXXXXXXXXXXXXXXXXXX.XXX.X",
"XXXXXXXXXXXXXXXXXXXXXXXXXXXXXXXXXXXXXXXXXXXXXXXXXXXXXXXXXXXXXXXX",
"XXXXXXXXXXXXXXXXXXXXXXXXXXXXXXXXXXXXXXXXXXXXXXXXXXXXXXXX.XXX.XXX",
"XXXXXXXXXXXXXXXXXXXXXXXXXXXXXXXXXXXXXXXXXXXXXXXXXXXXXXXXXXXXXXXX",
"XXXXXXXXXXXXXXXXXXXXXXXXXXXXXXXXXXXXXXXXXXXXXXXXXXXXXXXXXXXXXX.X",
"XXXXXXXXXXXXXXXXXXXXXXXXXXXXXXXXXXXXXXXXXXXXXXXXXXXXXXXXXXXXXXXX"
};
