/* XPM */
static char *_447b709c26042498b22bd0c2cfd9dbe[] = {
/* columns rows colors chars-per-pixel */
"64 64 9 1 ",
"  c black",
". c #AB47BC",
"X c #8E24AA",
"o c #9C27B0",
"O c white",
"+ c gray64",
"@ c gray80",
"# c #FFB74D",
"$ c #FFE0B2",
/* pixels */
" . . . . . . . . . . . . . . . . . . . . . . . . . . . . . . . .",
". . . . . . . . . . . . . . . . . . . . . . . . . . . . . . . . ",
" . . . . . . . . . . . . . . . . . . . . . . . . . . . . . . . .",
". . . . . . . . . . . . . . . . . . . . . . . . . . . . . . . . ",
" . . . . . . . . . . . . . . . . . . . . . . . . . . . . . . . .",
". . . . . . . . . . . . . . . . . . . . . . . . . . . . . . . . ",
" . . . . . . . . . . . . . . . . . . . . . . . . . . . . . . . .",
". . . . . . . . . . . . . . . . . . . . . . . . . . . . . . . . ",
" . . . . . . . . . . . . . . . . . . . . . . . . . . . . . . . .",
". . . . . . . . . . . . . . . . . . . . . . . . . . . . . . . . ",
" . . . . . . . . . . . . . . . . . . . . . . . . . . . . . . . .",
". . . . . . . . . . . .                 . . . . . . . . . . . . ",
" . . . . . . . . . . . .                 . . . . . . . . . . . .",
". . . . . . . . . . . .                 . . . . . . . . . . . . ",
" . . . . . . . . .      XXXXXXXXXXXXXXXX     . . . . . . . . . .",
". . . . . . . . . .     XXXXXXXXXXXXXXXX      . . . . . . . . . ",
" . . . . . . . .   XXXXXooooooooooooooooXXXXX    . . . . . . . .",
". . . . . . . .    XXXXXooooooooooooooooXXXXX   . . . . . . . . ",
" . . . . . . . .   XXXXXooooooooooooooooXXXXX    . . . . . . . .",
". . . . . . .   XXXooooo.....OOOOOO.....oooooXXX  . . . . . . . ",
" . . . . . . .  XXXooooo.....OOOOOO.....oooooXXX   . . . . . . .",
". . . . . . .   XXXoo......OOOOOOOOOO.....oooXXX  . . . . . . . ",
" . . . . . . .  XXXoo......OOOOOOOOOO.....oooXXX   . . . . . . .",
". . . . . . .   XXXoo......OOOOOOOOOO.....oooXXX  . . . . . . . ",
" . . . . .    ++@@@........OOOOOOOOOO........@@@++   . . . . . .",
". . . . . .   ++@@@........OOOOOOOOOO........@@@++    . . . . . ",
" . . . . .    ++@@@........OOOOOOOOOO........@@@++   . . . . . .",
". . . . . .   ++@@@OO........OOOOOO.......OOO@@@++    . . . . . ",
" . . . . .    ++@@@OO........OOOOOO.......OOO@@@++   . . . . . .",
". . . . . .   ++@@@OO......OO......OO.....OOO@@@++    . . . . . ",
" . . . . .    ++@@@OO......OO......OO.....OOO@@@++   . . . . . .",
". . . . . .   ++@@@OO......OO......OO.....OOO@@@++    . . . . . ",
" . . . . .    ++@@@..........................@@@++   . . . . . .",
". . . . . .   ++@@@..........................@@@++    . . . . . ",
" . . . . .    ++@@@..........................@@@++   . . . . . .",
". . . . . .   XXooo..........................oooXX    . . . . . ",
" . . . . .    XXooo..........................oooXX   . . . . . .",
". . . . . .   XX   oo                     ooo   XX    . . . . . ",
" . . . . .    XX   oo                     ooo   XX   . . . . . .",
". . . . . .   XX   oo                     ooo   XX    . . . . . ",
" . . . . . . .       ###   ##########   ##         . . . . . . .",
". . . . . . .        ###   ##########   ##        . . . . . . . ",
" . . . . . . . .   ##$$$$$$  $$$$$$  $$$$$###    . . . . . . . .",
". . . . . . . .    ##$$$$$$  $$$$$$  $$$$$###   . . . . . . . . ",
" . . . . . . . .   ##$$$$$$  $$$$$$  $$$$$###    . . . . . . . .",
". . . . . . . .    ##$$$$$$$$$$$$$$$$$$$$$###   . . . . . . . . ",
" . . . . . . . .   ##$$$$$$$$$$$$$$$$$$$$$###    . . . . . . . .",
". . . . . . . .    ##$$$$$$$$$$$$$$$$$$$$$###   . . . . . . . . ",
" . . . . . . . . .   #####################   . . . . . . . . . .",
". . . . . . . . . .  #####################    . . . . . . . . . ",
" . . . . . . . . . .                       . . . . . . . . . . .",
". . . . . . . . . . .                     . . . . . . . . . . . ",
" . . . . . . . . . .                       . . . . . . . . . . .",
". . . . . . . . . . . . . . . . . . . . . . . . . . . . . . . . ",
" . . . . . . . . . . . . . . . . . . . . . . . . . . . . . . . .",
". . . . . . . . . . . . . . . . . . . . . . . . . . . . . . . . ",
" . . . . . . . . . . . . . . . . . . . . . . . . . . . . . . . .",
". . . . . . . . . . . . . . . . . . . . . . . . . . . . . . . . ",
" . . . . . . . . . . . . . . . . . . . . . . . . . . . . . . . .",
". . . . . . . . . . . . . . . . . . . . . . . . . . . . . . . . ",
" . . . . . . . . . . . . . . . . . . . . . . . . . . . . . . . .",
". . . . . . . . . . . . . . . . . . . . . . . . . . . . . . . . ",
" . . . . . . . . . . . . . . . . . . . . . . . . . . . . . . . .",
"                                                                "
};
