/* XPM */
static char *c568c45d53114b2b8dae20413a75eb13[] = {
/* columns rows colors chars-per-pixel */
"64 64 196 2 ",
"   c #000000",
".  c #080702",
"X  c #0D0B03",
"o  c #0F0F0F",
"O  c #110D04",
"+  c #151104",
"@  c #1B1606",
"#  c #1F1906",
"$  c #1A1508",
"%  c #1F190A",
"&  c #171208",
"*  c gray12",
"=  c #1E1B13",
"-  c #231C06",
";  c #231D0A",
":  c #221E13",
">  c #201F1D",
",  c #2B2206",
"<  c #2C240C",
"1  c #302607",
"2  c #332907",
"3  c #332A0D",
"4  c #392E0B",
"5  c #302709",
"6  c #3D310D",
"7  c #20201F",
"8  c #2A2517",
"9  c #352C12",
"0  c #382F11",
"q  c #352F1E",
"w  c #3D3213",
"e  c #3D351B",
"r  c #2F2F2D",
"t  c #2F302E",
"y  c #3A3627",
"u  c #3F3F3F",
"i  c #42350D",
"p  c #4A3B0C",
"a  c #473A0C",
"s  c #423615",
"d  c #453B1C",
"f  c #483B14",
"g  c #423C26",
"h  c #59470D",
"j  c #5B490D",
"k  c #4F4219",
"l  c #554413",
"z  c #554719",
"x  c #59491A",
"c  c #614D0D",
"v  c #6C560F",
"b  c #6F590F",
"n  c #64500E",
"m  c #70590F",
"M  c #604F1F",
"N  c #614F15",
"B  c #655114",
"V  c #63511B",
"C  c #6A5618",
"Z  c #745D12",
"A  c #785F10",
"S  c #735D1D",
"D  c #7E6511",
"F  c #76601A",
"G  c #7B6419",
"H  c #594B25",
"J  c #524D3F",
"K  c #5B5238",
"L  c #4B432C",
"P  c #6D5A24",
"I  c #675626",
"U  c #715D24",
"Y  c #756124",
"T  c #7A6524",
"R  c #7A642A",
"E  c #7D692D",
"W  c #6D6038",
"Q  c #4F4B41",
"!  c gray31",
"~  c #5F5A4E",
"^  c #535044",
"/  c #575757",
"(  c #5E5F5C",
")  c #5E5B53",
"_  c #685E42",
"`  c #6D6346",
"'  c #6B6658",
"]  c #7B7159",
"[  c #706548",
"{  c #6C6B68",
"}  c #716F6B",
"|  c gray50",
" . c #7E7C76",
".. c #7D796C",
"X. c #816612",
"o. c #846A14",
"O. c #8A6F17",
"+. c #846B1B",
"@. c #886F1B",
"#. c #8D731B",
"$. c #91761C",
"%. c #967A1E",
"&. c #987C1F",
"*. c #836B24",
"=. c #866E29",
"-. c #8A722B",
";. c #927624",
":. c #9B7D23",
">. c #90772A",
",. c #967C2E",
"<. c #967C33",
"1. c #947C38",
"2. c #816D35",
"3. c #847C66",
"4. c #9E8124",
"5. c #9E822E",
"6. c #9E8333",
"7. c #A48526",
"8. c #A3842A",
"9. c #AD8C2B",
"0. c #A6892F",
"q. c #B08F2D",
"w. c #B2912E",
"e. c #A48635",
"r. c #A48830",
"t. c #AB8D33",
"y. c #AE8F3B",
"u. c #A68939",
"i. c #AF9033",
"p. c #B69533",
"a. c #BC9B36",
"s. c #B3943A",
"d. c #BE9C3A",
"f. c #C09F37",
"g. c #C09E3A",
"h. c #C3A139",
"j. c #C9A63D",
"k. c #CEA93F",
"l. c #AC8F40",
"z. c #86837B",
"x. c #CCA844",
"c. c #C9A542",
"v. c #D3AE43",
"b. c #D3AE49",
"n. c #D7B145",
"m. c #DAB346",
"M. c #DDB648",
"N. c #DBB54B",
"B. c #E3BB4D",
"V. c #E9C04E",
"C. c #EDC352",
"Z. c #F1C753",
"A. c #8E8D8C",
"S. c #91908C",
"D. c #9A9A9A",
"F. c #9D9A93",
"G. c #A69F8A",
"H. c #ADA48E",
"J. c #B2A88F",
"K. c #A7A59A",
"L. c #B5AE9B",
"P. c #A7A7A7",
"I. c #AFAFAE",
"U. c #A8A7A4",
"Y. c #BEBDBD",
"T. c #BBBDB7",
"R. c #C4BBA4",
"E. c #CCC2A8",
"W. c #D2C8AE",
"Q. c #C2C1BF",
"!. c #C5C5C5",
"~. c #CFCFCF",
"^. c #CACCC4",
"/. c #D2D5CE",
"(. c #D3D1C4",
"). c #D4D4D4",
"_. c #DCDCDC",
"`. c #DEDDD2",
"'. c #E5DDC5",
"]. c #ECE0C2",
"[. c #EFE4C9",
"{. c #EAE5D2",
"}. c #FBEFD0",
"|. c #F2EDDB",
" X c #FAF1D5",
".X c #FAF3DC",
"XX c #E4E4E4",
"oX c #ECECEC",
"OX c #FAF6E3",
"+X c #F9F9EB",
"@X c #F3F0E0",
"#X c #F4F4F4",
"$X c #F9FCF4",
"%X c white",
"&X c #FFFFFF",
"*X c #F5FAF7",
/* pixels */
"  %X  %X  %X  %X  %X  %X  %X  %X  %X  %X  %X  %X  %X  %X  %X  %X  %X  %X  %X  %X  %X  %X  %X  %X  %X  %X  %X  %X  %X  %X  %X  %X",
"%X  %X  %X  %X  %X  %X  %X  %X  %X  %X  %X  %X  %X  I.  I.  I.  I.  I.  I.  oX  %X  %X  %X  %X  %X  %X  %X  %X  %X  %X  %X  %X  ",
"  %X  %X  %X  %X  %X  %X  %X  %X  %X  %X  XX  _.  o X % % % % % & . + % % : . #X  %X  %X  %X  %X  %X  %X  %X  %X  %X  %X  %X  %X",
"%X  %X  %X  %X  %X  %X  %X  %X  %X  %X  %X          R Z.Z.Z.Z.Z.x.; <.Z.Z.C.0   %X  %X  %X  %X  %X  %X  %X  %X  %X  %X  %X  %X  ",
"  %X  %X  %X  %X  %X  %X  %X  %X  %X  _.  1.u.<.  6.x.Z.Z.Z.Z.Z.x.; <.Z.Z.C.s.[   !   %X  %X  %X  %X  %X  %X  %X  %X  %X  %X  %X",
"%X  %X  %X  %X  %X  %X  %X  %X  %X  ~.& R b.y.R R C.Z.Z.Z.Z.Z.Z.N.=.R y.Z.Z.Z.u.R R |   %X  %X  %X  %X  %X  %X  %X  %X  %X  %X  ",
"  %X  %X  %X  %X  %X  %X  %X  %X  #X. w Z.B.P < Z.Z.Z.Z.Z.Z.Z.Z.Z.B.I U Z.Z.Z.Z.Z.Z.O A.  %X  %X  %X  %X  %X  %X  %X  %X  %X  %X",
"%X  %X  %X  %X  %X  %X  %X  %X  *X  H Z.Z.w -.C.m.m.m.m.m.m.m.m.m.m.m.m.m.m.m.V.Z.Z.Z.I (   %X  %X  %X  %X  %X  %X  %X  %X  %X  ",
"  %X  %X  %X  %X  %X  %X  %X  XX. l.n.M.M.0 R M.m.m.m.m.m.m.m.m.m.m.m.m.m.m.m.M.M.M.M.x.Y *   %X  %X  %X  %X  %X  %X  %X  %X  %X",
"%X  %X  %X  %X  %X  %X  %X  ~.X I c.B.c.R I e.m.m.m.m.m.m.m.m.m.m.m.m.m.m.m.m.m.m.m.m.m.y.M A.  %X  %X  %X  %X  %X  %X  %X  %X  ",
"  %X  %X  %X  %X  %X  %X  ).& k j.m.m.s.  e.m.m.m.m.m.m.m.m.m.m.m.m.m.m.m.m.m.m.m.m.m.m.m.m.s F.  %X  %X  %X  %X  %X  %X  %X  %X",
"%X  %X  %X  %X  %X  %X  %X  M v.m.m.m.s.  e.m.m.m.m.m.m.m.m.m.m.m.m.m.m.m.m.m.m.m.m.m.m.m.m.m.0 /   %X  %X  %X  %X  %X  %X  %X  ",
"  %X  %X  %X  %X  %X  _.  2.h.m.m.m.<.s s.v.m.m.m.m.m.m.m.m.m.m.m.m.m.m.m.m.m.m.m.m.m.m.m.m.m.d.Y /   %X  %X  %X  %X  %X  %X  %X",
"%X  %X  %X  %X  %X  %X  r *.v.m.m.m.-.< m.m.m.m.m.m.m.m.m.m.m.m.m.m.m.m.m.m.m.m.m.m.m.m.m.m.m.m.d.P }   %X  %X  %X  %X  %X  %X  ",
"  %X  %X  %X  %X  %X  I.; -.j.v.v.m.-.< m.m.m.m.m.m.m.m.m.m.m.m.m.m.m.m.m.m.m.m.m.m.m.m.m.m.m.m.m.s.X I.  %X  %X  %X  %X  %X  %X",
"%X  %X  %X  %X  %X  !.% 5.f.h.h.h.g.=.w m.m.m.m.m.m.m.m.m.m.m.m.m.m.n.n.n.n.n.n.n.n.n.m.m.m.m.m.m.s.y . oX  %X  %X  %X  %X  %X  ",
"  %X  %X  %X  %X  %X  % 5.h.h.h.d.s x c.m.m.m.m.m.m.m.m.m.m.m.m.n.j.h.h.h.h.h.h.h.h.h.x.v.v.v.v.v.v.y.H   *X  %X  %X  %X  %X  %X",
"%X  %X  %X  %X  %X  Y.% 5.h.h.h.a.< z m.m.m.m.m.m.m.v.k.k.k.k.x.k.h.h.h.h.h.h.h.h.h.h.-.M M M M =.k.j.-.[   #X  %X  %X  %X  %X  ",
"  %X  %X  %X  %X  ).O l 0.f.h.h.a.< z m.m.m.v.v.v.-.=.T T T T -.h.h.h.h.h.h.h.h.h.h.T ` ( ( ( ) _ -.d.h.V !   %X  %X  %X  %X  %X",
"%X  %X  %X  %X  %X  < 9.9.a.h.d.8.s P m.n.n.k.d.5.y t t t r r L r.f.h.h.h.h.h.h.a.5.t K.$X$X+X.XL.g 5.a.Y @ Q.  %X  %X  %X  %X  ",
"  %X  %X  %X  %X  A.< 9.9.a.h.i.0 <.c.n.j.j.h.i.% ^./././.(.(.H.0 p.h.h.h.h.h.h.r.% /.oX$X$X+X.X[.J.e >.p.E X ).  %X  %X  %X  %X",
"%X  %X  %X  %X  %X  < 9.9.q.a.t.% 5.j.j.h.h.U g T.*X$X$X$X+XOX{.G.d -.h.h.h.h.h.5.  $X$X$X+X+X.X XE.: =.h.p.>.$ Y.  %X  %X  %X  ",
"  %X  %X  %X  %X  ' N 9.9.9.w.t.C t.h.h.h.h.z 7 $X&X$X$X$X+XOX.X'.3.W >.h.h.h.h.5.  $X$X^.z.@X.X XE.: =.h.h.p.;   %X  %X  %X  %X",
"%X  %X  %X  %X  * i :.9.9.9.9.q.a.h.h.h.h.h.z 7 $X&X$X$X$X`.|..X X].~ z h.h.h.h.5.  +X+XK.> {..X XE.: =.h.h.p.; P.  %X  %X  %X  ",
"  %X  %X  %X  %X  i :.9.9.9.9.q.f.h.h.h.h.h.z 7 $X$X$X$X+X> K.OX X].~ z h.h.h.h.5.  OXOXOXOXOX.X XE.: =.h.h.p.;   %X  %X  %X  %X",
"%X  %X  %X  %X  * i :.9.9.9.9.q.f.h.h.h.h.h.z > +X+X+X+X+X{.|.OX X].~ z h.h.h.h.5.  .X.X.X.X.X X XE.: =.h.h.p.; P.  %X  %X  %X  ",
"  %X  %X  %X  %X  i :.9.9.9.9.q.f.h.h.h.h.h.z > OXOXOXOXOXOXOX.X X].~ z h.h.h.h.p.V ..R. X X X XW.] P r.h.h.p.;   %X  %X  %X  %X",
"%X  %X  %X  *X  e j :.7.9.9.9.q.f.h.h.h.h.h.z > .X.X.X.X.X.X.X.X[.H._ T h.h.h.h.h.h.w ] H.H.H.H.3.z a.h.h.h.a.l z.  %X  %X  %X  ",
"  %X  %X  %X    +.%.%.:.9.9.9.q.f.h.h.h.h.h.z >  X X X X X X X XW.8 T h.h.h.h.h.h.h.h.z         s h.h.h.h.h.h.w.6 D.  %X  %X  %X",
"%X  %X  %X  oX  +.%.%.:.9.9.9.q.f.h.h.h.h.h.p.,.> ].}.}.}.}.}.R.q 5.a.h.h.h.h.h.h.h.h.p.t.t.t.t.p.h.h.h.h.a.w.9.6   %X  %X  %X  ",
"  %X  %X  %X    +.%.%.:.9.9.9.q.f.h.h.h.h.h.h.a.=.J Q Q Q Q Q K >.a.h.-.w w w w w w h.h.h.h.h.h.h.h.h.h.a.w.9.9.6 D.  %X  %X  %X",
"%X  %X  %X  oX  +.%.%.:.9.9.9.q.f.h.h.h.h.h.h.h.h.w 3 3 3 3 3 z h.h.h.=.3 3 3 3 3 3 h.h.h.h.h.h.h.h.h.a.p.9.9.9.6   %X  %X  %X  ",
"  %X  %X  %X    +.%.%.:.7.9.9.q.f.h.h.h.h.h.h.h.h.h.h.h.h.h.h.h.h.h.h.h.h.h.h.h.h.h.h.h.h.h.h.h.h.f.a.w.9.9.9.9.w D.  %X  %X  %X",
"%X  %X  %X  oX  +.%.%.%.&.7.9.q.f.h.h.h.h.h.h.h.h.h.h.h.h.h.h.h.h.h.h.h.h.h.h.h.h.h.h.h.h.h.h.h.a.9.9.9.9.7.9.7.s   %X  %X  %X  ",
"  %X  %X  %X    +.%.%.%.%.7.9.q.f.h.h.h.h.h.h.h.h.h.h.h.h.h.h.h.h.h.h.h.h.h.h.h.h.h.h.h.h.h.p.p.w.9.9.9.F V :.l + XX  %X  %X  %X",
"%X  %X  %X  oX  G $.%.%.%.4.*.S p.h.h.h.h.h.h.h.h.h.h.h.h.h.h.h.h.h.h.h.h.h.h.h.h.h.h.a.a.a.9.9.9.9.9.9.l 4 ;.- P.  %X  %X  %X  ",
"  %X  %X  %X    m O.$.%.%.%.l % 0.a.f.h.h.h.h.h.h.h.h.h.h.h.h.h.h.h.h.h.h.h.a.a.a.a.a.p.9.9.9.9.9.9.9.9.l 4 ;.-   %X  %X  %X  %X",
"%X  %X  %X  oX  m X.O.%.%.%.l @ :.q.p.h.h.h.h.h.h.h.h.h.h.h.h.h.h.h.h.h.h.h.w.q.q.q.q.9.9.9.9.9.9.9.9.9.l 4 ;.- P.  %X  %X  %X  ",
"  %X  %X  %X    m D o.%.%.%.l @ :.9.9.w.w.a.h.h.h.h.h.h.h.h.p.w.w.w.w.w.w.w.9.9.9.9.9.9.9.9.9.9.9.9.8.l l ;.4.-   %X  %X  %X  %X",
"%X  %X  %X  oX  m D X.#.%.%.l @ :.9.9.9.9.p.p.p.p.p.p.p.p.p.q.9.9.9.9.9.9.9.9.9.9.9.9.9.9.9.9.9.9.9.:.4 l 9.8.- P.  %X  %X  %X  ",
"  %X  %X  %X    m D D o.$.%.l @ :.9.9.9.9.9.9.9.9.9.9.9.9.9.9.9.9.9.9.9.9.9.9.9.9.9.9.9.9.9.9.9.9.9.8.p V 9.7.4 . oX  %X  %X  %X",
"%X  %X  %X  oX  m D D o.$.%.l @ :.9.9.9.9.9.9.9.9.9.9.9.9.9.9.9.9.9.9.9.9.9.9.9.9.9.9.9.9.9.9.9.9.9.9.9.7.%.%.%.3   %X  %X  %X  ",
"  %X  %X  %X    m D D D D #.l @ :.9.9.9.9.9.9.9.9.9.9.9.9.9.9.9.9.9.9.9.9.9.9.9.9.9.9.9.9.9.9.9.7.%.%.%.%.%.%.%.3 D.  %X  %X  %X",
"%X  %X  %X  oX  m D D D D o.p @ :.9.9.9.9.9.9.9.9.9.9.9.9.9.9.9.9.9.9.9.9.9.9.9.9.9.9.7.7.7.7.7.:.%.%.%.%.%.%.%.3   %X  %X  %X  ",
"  %X  %X  %X    m D D D D D a @ ;.9.9.9.9.9.9.9.9.9.9.9.9.9.9.:.S 4.7.7.7.7.7.7.7.7.7.:.%.%.%.%.%.%.%.%.G Z $.%.3 D.  %X  %X  %X",
"%X  %X  %X  oX  m D D D D D a + O.9.9.9.9.9.9.9.9.9.9.9.9.9.9.*.& @.%.%.%.%.%.%.%.%.%.%.%.%.%.%.%.%.%.%.p < @.%.3   %X  %X  %X  ",
"  %X  %X  %X  oX. 6 D D D D a + +.%.&.:.9.9.9.9.9.9.9.9.9.9.9.7.G # N %.%.%.%.%.%.%.%.%.%.%.%.%.%.%.@.4 p $.#.-   *X  %X  %X  %X",
"%X  %X  %X  %X  !.X 4 D D D m h 5 G %.%.:.9.9.9.9.9.9.9.9.4.:.:.$.F @.%.%.%.%.%.%.%.%.%.%.%.%.%.%.%.@.< p %.#.@ P.  %X  %X  %X  ",
"  %X  %X  %X  %X  A.- D D D D b + F %.%.%.7.7.7.7.7.7.7.7.&.%.%.%.%.%.%.%.%.%.%.%.%.%.%.%.%.%.%.%.#.B i B @.B ^   %X  %X  %X  %X",
"%X  %X  %X  %X  %X  y v D D D b + Z $.%.%.%.%.%.%.%.%.%.%.%.%.%.%.%.%.%.%.%.%.%.%.%.%.%.%.%.%.%.%.G & C %.B =   %X  %X  %X  %X  ",
"  %X  %X  %X  %X  *X  @ v D D b + n O.%.%.%.%.%.%.%.%.%.%.%.%.%.%.%.%.%.%.%.%.%.%.%.%.%.%.%.%.%.%.G & C #.h X ~.  %X  %X  %X  %X",
"%X  %X  %X  %X  %X  oX. g j D b + c o.Z < G %.%.%.%.%.%.%.%.%.%.%.%.%.%.%.%.%.%.%.%.%.%.%.%.%.%.%.#.C G h @ U.  %X  %X  %X  %X  ",
"  %X  %X  %X  %X  %X  oX  K j Z a i h Z i a F %.%.%.%.%.%.%.%.%.%.%.%.%.%.%.%.%.%.%.%.%.%.%.%.%.%.%.o.h # P.  %X  %X  %X  %X  %X",
"%X  %X  %X  %X  %X  %X  %X  4 D D @ 1 D D , l +.%.%.%.%.%.%.%.%.%.%.%.%.%.%.%.%.%.%.%.@.O.%.%.%.%.#.Z , |   %X  %X  %X  %X  %X  ",
"  %X  %X  %X  %X  %X  %X  { 2 Z D - 2 D D Z 6 - #.%.%.%.%.#.#.#.#.%.%.%.%.%.%.%.%.%.#.p a %.%.%.#.D v 9   %X  %X  %X  %X  %X  %X",
"%X  %X  %X  %X  %X  %X  %X   .- m v a , D D m j @ #.%.%.%.< @ @ < #.%.%.%.%.%.%.%.%.@ l O.%.o.o.o.v 8 . XX  %X  %X  %X  %X  %X  ",
"  %X  %X  %X  %X  %X  %X  %X  { 6 a , + D D D Z 4 O.#.#.%.p i i l #.%.%.%.%.%.%.%.%.i Z $.#.X.D v k . ).  %X  %X  %X  %X  %X  %X",
"%X  %X  %X  %X  %X  %X  %X  %X  /   u O c c m D D D D o.$.$.$.$.%.%.%.%.%.%.%.%.%.%.$.$.O.D c c z   #X  %X  %X  %X  %X  %X  %X  ",
"  %X  %X  %X  %X  %X  %X  %X  %X  %X  ).  o i D D D D D D D D D #.%.%.%.%.%.%.%.%.%.D D A A . o   %X  %X  %X  %X  %X  %X  %X  %X",
"%X  %X  %X  %X  %X  %X  %X  %X  %X  %X  !.  ' , D D D D D D 4 @ 3 #.%.%.%.%.%.%.$.o.D a @ @ Y.  _.  %X  %X  %X  %X  %X  %X  %X  ",
"  %X  %X  %X  %X  %X  %X  %X  %X  %X  %X  %X  S.1 1 1 1 1 1 X D.. d 4 4 4 4 4 4 4 1 1 '   D.  %X  %X  %X  %X  %X  %X  %X  %X  %X",
"%X  %X  %X  %X  %X  %X  %X  %X  %X  %X  %X  %X  D.  D.  D.  _.  #X  D.  D.  D.  D.  D.  %X  %X  %X  %X  %X  %X  %X  %X  %X  %X  ",
"  %X  %X  %X  %X  %X  %X  %X  %X  %X  %X  %X  %X  %X  %X  %X  %X  %X  %X  %X  %X  %X  %X  %X  %X  %X  %X  %X  %X  %X  %X  %X  %X",
"%X  %X  %X  %X  %X  %X  %X  %X  %X  %X  %X  %X  %X  %X  %X  %X  %X  %X  %X  %X  %X  %X  %X  %X  %X  %X  %X  %X  %X  %X  %X  %X  "
};
