/* XPM */
static char *_a71f406141b4c51f822b51d38059628LrCNuH7uQVlL2kMQ[] = {
/* columns rows colors chars-per-pixel */
"64 64 5 1 ",
"  c None",
". c #E51C23",
"X c #170C00",
"o c #C71411",
"O c #6C0000",
/* pixels */
"                                                                ",
"                                                                ",
"                                                                ",
"                                                                ",
"                                                                ",
"                                                                ",
"                                                                ",
"                                                                ",
"                                                                ",
"                                                                ",
"                                                                ",
"                                                                ",
"                                                                ",
"                                                                ",
"                                                                ",
"                                                                ",
"                                                                ",
"                                                                ",
"                                                                ",
"                                                                ",
"                                                                ",
"                                                                ",
"      . . . . . . . . . . XXXXXXXXXXXX. . . . . . . . . .       ",
"       . . . . . . . . . .XXXXXXXXXXXX . . . . . . . . . .      ",
"      . XX. . . . . . . XX............XX. . . . . . . XX.       ",
"       .XX . . . . . . .XX............XX . . . . . . .XX .      ",
"      XXooXX. XX. . . XX................XX. . . XX. XXooXX      ",
"      XXooXX .XX . . .XX................XX . . .XX .XXooXX      ",
"      XXoo..XX..XX. XX....OO........OO....XX. XX..XX..ooXX      ",
"      XXoo..XX..XX .XX....OO........OO....XX .XX..XX..ooXX      ",
"      XXoo........XXXX....OOOO....OOOO....XXXX........ooXX      ",
"      XXoo........XXXX....OOOO....OOOO....XXXX........ooXX      ",
"      . XXooooooooXXXX....................XXXXooooooooXX.       ",
"       .XXooooooooXXXX....................XXXXooooooooXX .      ",
"      . . XXXXXXXX. XXoo................ooXX. XXXXXXXX. .       ",
"       . .XXXXXXXX .XXoo................ooXX .XXXXXXXX . .      ",
"      . . . . . . XXXXXXoo............ooXXXXXX. . . . . .       ",
"       . . . . . .XXXXXXoo............ooXXXXXX . . . . . .      ",
"      . . . . . XX....XXXXXXXXXXXXXXXXXXXX....XX. . . . .       ",
"       . . . . .XX....XXXXXXXXXXXXXXXXXXXX....XX . . . . .      ",
"      . . . . XX....XX. . . . . . . . . . XX....XX. . . .       ",
"       . . . .XX....XX . . . . . . . . . .XX....XX . . . .      ",
"      . . . . XXooXX. . . . . . . . . . . . XXooXX. . . .       ",
"       . . . .XXooXX . . . . . . . . . . . .XXooXX . . . .      ",
"      . . . . XXooXX. . . . . . . . . . . . XXooXX. . . .       ",
"       . . . .XXooXX . . . . . . . . . . . .XXooXX . . . .      ",
"      . . . . . XX. . . . . . . . . . . . . . XX. . . . .       ",
"       . . . . .XX . . . . . . . . . . . . . .XX . . . . .      ",
"                                                                ",
"                                                                ",
"                                                                ",
"                                                                ",
"                                                                ",
"                                                                ",
"                                                                ",
"                                                                ",
"                                                                ",
"                                                                ",
"                                                                ",
"                                                                ",
"                                                                ",
"                                                                ",
"                                                                ",
"                                                                "
};
