/* XPM */
static char *_b6d2c3ab2b84206ae9855d44eaaae0dPaOdHqmZyCO01Hwc[] = {
/* columns rows colors chars-per-pixel */
"64 64 56 1 ",
"  c black",
". c #E51C23",
"X c #E51C23",
"o c #E51C23",
"O c #E51C23",
"+ c #E51C23",
"@ c #E51C23",
"# c #E51C23",
"$ c #E51C23",
"% c #E51C23",
"& c #E51C23",
"* c #E51C23",
"= c #E51C23",
"- c #E51C23",
"; c #E51C23",
": c #E51C23",
"> c #E51C23",
", c #E51C23",
"< c #E51C23",
"1 c #E51C23",
"2 c #E51C23",
"3 c #E51C23",
"4 c #E51C23",
"5 c #E51C23",
"6 c #E51C23",
"7 c #E51C23",
"8 c #E51C23",
"9 c #E51C23",
"0 c #E51C23",
"q c #E51C23",
"w c #E51C23",
"e c #E51C23",
"r c #E51C23",
"t c #E51C23",
"y c #E51C23",
"u c #E51C23",
"i c #E51C23",
"p c #E51C23",
"a c None",
"s c black",
"d c #E51C23",
"f c #C71411",
"g c #6C0000",
"h c #E51C23",
"j c #E51C23",
"k c #E51C23",
"l c #E51C23",
"z c #E51C23",
"x c #E51C23",
"c c #E51C23",
"v c #E51C23",
"b c #E51C23",
"n c #E51C23",
"m c #E51C23",
"M c #E51C23",
"N c #E51C23",
/* pixels */
"                                                                ",
"                                                                ",
"                                                                ",
"                                                                ",
"                                                                ",
"                                                                ",
"                          . X o O + @ #                         ",
"                       $ % % % % % % % & *                      ",
"                    = % % % % % % % % % % -                     ",
"                   ; % % % % % % % % % % % % :                  ",
"                > , % % % % % % % % % % % % % <                 ",
"               1 % % % % % % % % % % % % % % % 2                ",
"              3 % % % % % % % % % % % % % % % % 4               ",
"             5 % % % % % % % % % % % % % % % % % 6              ",
"            7 % % % % % % % % % % % % % % % % % % 8             ",
"           9 % % % % % % % % % % % % % % % % % % % 0            ",
"          q % % % % % % % % % % % % % % % % % % % % w           ",
"           % % % % % % % % % % % % % % % % % % % % % e          ",
"          r % % % % % % % % % % % % % % % % % % % % % t         ",
"         y % % % % % % % % % % % % % % % % % % % % % % u        ",
"        i % % % % % % % % % % % % % % % % % % % % % % %         ",
"         % % % % % % % % % % % % % % % % % % % % % % % p        ",
"        a % % % % % % % % ssssssssssss% % % % % % % % % d       ",
"       e % % % % % % % % %ssssssssssss % % % % % % % % %        ",
"      q ss% % % % % % % ss%%%%%%%%%%%%ss% % % % % % % ss0       ",
"       %ss % % % % % % %ss%%%%%%%%%%%%ss % % % % % % %ss d      ",
"      ssffss% ss% % % ss%%%%%%%%%%%%%%%%ss% % % ss% ssffss      ",
"      ssffss %ss % % %ss%%%%%%%%%%%%%%%%ss % % %ss %ssffss      ",
"      ssff%%ss%%ss% ss%%%%gg%%%%%%%%gg%%%%ss% ss%%ss%%ffss      ",
"      ssff%%ss%%ss %ss%%%%gg%%%%%%%%gg%%%%ss %ss%%ss%%ffss      ",
"      ssff%%%%%%%%ssss%%%%gggg%%%%gggg%%%%ssss%%%%%%%%ffss      ",
"      ssff%%%%%%%%ssss%%%%gggg%%%%gggg%%%%ssss%%%%%%%%ffss      ",
"      , ssffffffffssss%%%%%%%%%%%%%%%%%%%%ssssffffffffss%       ",
"       %ssffffffffssss%%%%%%%%%%%%%%%%%%%%ssssffffffffss h      ",
"      j % ssssssss% ssff%%%%%%%%%%%%%%%%ffss% ssssssss% %       ",
"       % %ssssssss %ssff%%%%%%%%%%%%%%%%ffss %ssssssss % 2      ",
"      k % % % % % ssssssff%%%%%%%%%%%%ffssssss% % % % % %       ",
"       % % % % % %ssssssff%%%%%%%%%%%%ffssssss % % % % % l      ",
"      z % % % % ss%%%%ssssssssssssssssssss%%%%ss% % % % %       ",
"       x % % % %ss%%%%ssssssssssssssssssss%%%%ss % % % %        ",
"        % % % ss%%%%ss% % % % % % % % % % ss%%%%ss% % % e       ",
"       z % % %ss%%%%ss % % % % % % % % % %ss%%%%ss % % a        ",
"        p % % ssffss% % % % % % % % % % % % ssffss% % %         ",
"         % % %ssffss % % % % % % % % % % % %ssffss % % i        ",
"          % % ssffss% % % % % % % % % % % % ssffss% % c         ",
"         t % %ssffss % % % % % % % % % % % %ssffss % r          ",
"          v % % ss% % % % % % % % % % % % % % ss% % %           ",
"           w % %ss % % % % % % % % % % % % % %ss % % q          ",
"            b % % % % % % % % % % % % % % % % % % % d           ",
"             8 % % % % % % % % % % % % % % % % % % 7            ",
"              % % % % % % % % % % % % % % % % % % n             ",
"               4 % % % % % % % % % % % % % % % % 3              ",
"                2 % % % % % % % % % % % % % % % 1               ",
"                 m % % % % % % % % % % % % % %                  ",
"                  M % % % % % % % % % % % % X                   ",
"                     - % % % % % % % % % % =                    ",
"                      * & % % % % % % % $                       ",
"                         # @ + O o N .                          ",
"                                                                ",
"                                                                ",
"                                                                ",
"                                                                ",
"                                                                ",
"                                                                "
};
