/* XPM */
static char *_894bef979874bc5cc3d5be0dbfaed50I5OHC6GQGVBAwCF6[] = {
/* columns rows colors chars-per-pixel */
"64 64 2 1 ",
"  c #FF84BC",
". c #FF9DC0",
/* pixels */
"..............                                    ..............",
"..............                                    ..............",
"............                                        ............",
"............                                        ............",
"..........                                            ..........",
"..........                                            ..........",
"........                                                ........",
"........                                                ........",
"......                                                    ......",
"......                                                    ......",
"....                                                        ....",
"....                                                        ....",
"..                                                            ..",
"..                                                            ..",
"                                                                ",
"                                                                ",
"                                                                ",
"                                                                ",
"                                                                ",
"                                                                ",
"                                                                ",
"                                                                ",
"                      ......        ......                      ",
"                      ......        ......                      ",
"                    ..........    ..........                    ",
"                    ..........    ..........                    ",
"                  ............................                  ",
"                  ............................                  ",
"                  ............................                  ",
"                  ............................                  ",
"                  ............................                  ",
"                  ............................                  ",
"                  ............................                  ",
"                  ............................                  ",
"                    ........................                    ",
"                    ........................                    ",
"                      ....................                      ",
"                      ....................                      ",
"                        ................                        ",
"                        ................                        ",
"                          ............                          ",
"                          ............                          ",
"                            ........                            ",
"                            ........                            ",
"                              ....                              ",
"                              ....                              ",
"                                                                ",
"                                                                ",
"                                                                ",
"                                                                ",
"                                                                ",
"                                                                ",
"                                                                ",
"                                                                ",
"    ......                                            ......    ",
"    ......                                            ......    ",
"  ..........                                        ..........  ",
"  ..........                                        ..........  ",
"..............                                    ..............",
"..............                                    ..............",
"..............                                    ..............",
"..............                                    ..............",
"..............                                    ..............",
"..............                                    .............."
};
