/* XPM */
static char *e3a276929e62495fb2c8b556b23343b1[] = {
/* columns rows colors chars-per-pixel */
"64 64 23 1 ",
"  c #100600",
". c #1F0D00",
"X c #031A00",
"o c #271000",
"O c #032300",
"+ c #032400",
"@ c #032900",
"# c #9C3232",
"$ c #AD3C3C",
"% c red",
"& c #FF2B00",
"* c #FF6200",
"= c #FF6A00",
"- c #C04B4B",
"; c #338535",
": c #00CF03",
"> c DarkOrange",
", c #FF9800",
"< c #FFC107",
"1 c #FFC42E",
"2 c #FFEB3B",
"3 c #C79FA0",
"4 c #D9B4B6",
/* pixels */
"2$$$$$$$$$#4-$$$$$$$$$#4-$$$$$$$$$#4-$$$$$$$$$#4-$$$$$$$$$#4-$$$",
"2$$$$$$$$$#4-$$$$$$$$$#4-$$$$$$$$$#4-$$$$$$$$$#4-$$$$$$$$$#4-$$1",
"21$$$$$$$$#4-$$$$$$$$$#4-$$$$$$$$$#4-$$$$$$$$$#4-$$$$$$$$$#4-$$1",
"21>########3$##########3$##########3$##########3$##########3$#>1",
"21>43334443334443334443334443334443334443334443334443334443334>1",
"<<>>$3----------$3----------$3----------$3----------$3------->><",
"<>>=*4-$$$$$$$$$#4-$$$$$$$$$#4-$$$$$$$$$#4-$$$$$$$$$#4-$$$$$*=>>",
",*&&*4-$$$$$$$$$#4-$$$$$$$$$#4-$$$$$$$$$#4-$$$$$$$$$#4-$$$$$*&&*",
"*&&%#4-$$$$$$$$$#4-$$$$$$$$$#4-$$$$$$$$$#4-$$$$$$$$$#4-$$$$$$%&&",
"&&%%#3$##########3$##########3$##########3$##########3$######%%&",
"%%4433344433344433344433344433344433344433344433344433344433344%",
"----------$3----------$3----------$3----------$3----------$3----",
"-$$$$$$$$$#4-$$$$$$$$$#4-$$$$$$$$$#4-$$$$$$$$$#4-$$$$$$$$$#4-$$$",
"-$$$$$$$$$#4-$$$$$$$$$#4-$$$$$$$$$#4-$$$$$$$$$#4-$$$$$$$$$#4-$$$",
"-$$$$$$$$$#4-$$$$$$$$$#4-$$$$$$$$$#4-$$$$$$$$$#4-$$$$$$$$$#4-$$$",
"$##########3$##########3$##########3$##########3$##########3$###",
"3444333444333444333444333444333444333444333444333444333444333444",
"+---$3----------$3----------$3O@+-------$3----------$3--------O@",
"$$$$#4-$$$$$$$$$#4-$$$$$$$$$#4O+$$$$$$$$#4-$$$$$$$$$#4-$$$$$$$O+",
"+$$$#4-$$$$$$$$$#4-$$$$$$$$$#4O++$$$$$$$#4-$$$$$$$$$#4-$$$$$$$O+",
"+$$$#4-$$$$$$$$$#4-$$$$$$$$$#+O++$$$$$$$#4-$$$$$$$$$#4-$$$$$$+O+",
"+####3$##########3$##########3XO+########3$##########3$#######XO",
"XX443334443334443334443334443+@OXX333444333444333444333444333+@O",
"+X--------$3----------$3------+O+X$3----------$3----------$3--+O",
"++$$$$$$$$#4-$$$$$$$$$#4-$$+$$XX++#4-$$$$$$$$$#4-$$$$$$$$$#+-$XX",
"++$$$$$$$$#4-$$$$$$$$$#4-$$++$X+++#4-$$$$$$$$$#4-$$$$$$$$$#++$X+",
"O++$$$$$$$#4-$$$$$$$$$#4-++$$X+OO++4-$$$$$$$$$#4-$$$$$$$$++4-X+O",
"+#+########3$##########3$#++X++O+#+3$##########3$#########++X++O",
"X+4+333444333444333444333444++OOX+3+344433344433344433344433++OO",
"O+++$3----------$3---------+$+@OO+++----$3----------$3-----+-+@O",
"O++$#4-$$$$$$$$$#4-$$$$$$$$++4+OO++$$$$$#4-$$$$$$$$$#4-$$$$++$+O",
"OX+$#4-$$$$$$$$$#4-$$$$$O+++XXO+OX+$$$$$#4-$$$$$$$$$#4-$O+++XXO+",
"O+X+#4-$$$$$$$$$#4-$$$$$OO$+++@+O+X+$$$$#4-$$$$$$$$$#4-$OO$+++@+",
"O@OX#3$##########3$#####OOX+#+++O@OX#####3$##########3$#OOX+#+++",
"++O433344433344433344433O+++X3+O++O334443334443334443334O+++X4+O",
"+OO+------$3----------$3--++++@++OO+----------$3----------++++@+",
"@++$+$$$$$#4-$$$$$$$$$#4-$$O++XO@++4+$$$$$$$$$#4-$$$$$$$$$#O++XO",
"@@+++$$$$$#4-$$$$$$$$$#4-+++$+XO@@+++$$$$$$$$$#4-$$$$$$$$+++-+XO",
"+X$XX+$$$$#4-$$$$$$$$$#4-O$+++OO+X#XX+$$$$$$$$#4-$$$$$$$$O#+++OO",
"OXX#++#####3$##########3+#OO+OO+OXX3++#########3$#######+#OO+OO+",
"+O+++++444333444333444333+++3+OX+O+++++433344433344433344+++3+OX",
"OO@++3++--------$3-------+-++OO+OO@++-++$3----------$3---+-++OO+",
"OO++#4-+$$$$$$$$#4-$$$$$$$+X#@OOOO++$$$+#4-$$$$$$$$$#4-$$$+X$@OO",
"OO+++4-$$$$$$$$$#4-$$$$X+$$X#@OOOO+++$$$#4-$$$$$$$$$#4-X+$$X$@OO",
"OOO+++++$$$$$$$$#4-$$$$$$+OO+XXOOOO+++++#4-$$$$$$$$$#4-$$+OO+XXO",
"O@O++3$##########3$#########@+XOO@O++####3$##########3$#####@+XO",
"OO+43334443334443334443+O+OOO+OOOO+33444333444333444333+O+OOO+OO",
"@OOO+-----$3----------$3O+--@@+O@OOO+---------$3--------O+$3@@+O",
"+O+++XX$$$#4-$$$$$$$$$#4-$+++@@O+O+++XX$$$$$$$#4-$$$$$$$$$+++@@O",
"OOO+++X+++#4-$$$$$$$$$#4-++++++OOOO+++X+++$$$$#4-$$$$$$$$++++++O",
"O@@XX$O+++#4-$$$$$$$$$#4OO$$@X@OO@@XX$O+++$$$$#4-$$$$$$$OO#4@X@O",
"O++@X###O++3$#########+++++#@X@OO++@X###O++####3$#####+++++3@X@O",
"O@@++334443334443334443++++OX@@XO@@++444333444333444333++++OX@@X",
"@@OXX++---------$3----+++O++X++X@@OXX++-$3----------$3+++O++X++X",
"X+@+++++$$$$$$$$#4-$$$$$$++@X+++X+@+++++#4-$$$$$$$$$#4-$$++@X+++",
"@++@#4-$$$$$$$$$#4-$$$$$$$$++@+@@++@$$$$#4-$$$$$$$$$#4-$$$$++@+@",
"o.$$#4-$$$$$$$$$#4-$$$$$$$$$#. +o.$$$$$$#4-$$$$$$$$$#4-$$$$$$. +",
" .###3$##########3$#########.  . .#######3$##########3$#####.  .",
"o  4333444333444333444333444 o .o  3344433344433344433344433 o .",
"ooo.:--:--$3----------$3---. oo ooo.----------$3-------:--:. oo ",
"o . :$:$$$#4-$$$$$$$$:#4-:. . o o . .$$$$$$$$$:4-$:$$$$:$:. . o ",
"o .::$:$:$#4-:$$:$$$:$#4:$. o . o .  $:$$:$$$:#4-:$$$$:$$:. o . ",
"...::::::$#4-:$:$$$$:$:4:....o  .... ..$:$$$$:#:-:$$$$:$:::..o  ",
".#;;:;::;;#3::#:#:#;:#:::;##;; ..;;3$::#:#:#;:#:::;##;;:::;;$# ."
};
