/* XPM */
static char *cb8c8d8c21f045538ddda4db5825abb9[] = {
/* columns rows colors chars-per-pixel */
"64 64 19 1 ",
"  c #33691E",
". c #5B750B",
"X c #9C3232",
"o c #AD3C3C",
"O c red",
"+ c #FF2B00",
"@ c #FF6200",
"# c #FF6A00",
"$ c #C04B4B",
"% c #E57373",
"& c DarkOrange",
"* c #FF9800",
"= c #FFC107",
"- c #FFC42E",
"; c #FFEB3B",
": c #EF9A9A",
"> c #C79FA0",
", c #D9B4B6",
"< c #AED581",
/* pixels */
";oooooooooX,$oooooooooX,$oooooooooX,$oooooooooX,$oooooooooX,$ooo",
";oooooooooX,$oooooooooX,$oooooooooX,$oooooooooX,$oooooooooX,$oo-",
";-ooooooooX,$oooooooooX,$oooooooooX,$oooooooooX,$oooooooooX,$oo-",
";-&XXXXXXXX>oXXXXXXXXXX>oXXXXXXXXXX>oXXXXXXXXXX>oXXXXXXXXXX>oX&-",
";-&,>>>,,,>>>,,,>>>,,,>>>,,,>>>,,,>>>,,,>>>,,,>>>,,,>>>,,,>>>,&-",
"==&&o>$$$$$$$$$$o>$$$$$$$$$$o>$$$$$$$$$$o>$$$$$$$$$$o>$$$$$$$&&=",
"=&&#@,$oooooooooX,$oooooooooX,$oooooooooX,$oooooooooX,$ooooo@#&&",
"*@++@,$oooooooooX,$oooooooooX,$oooooooooX,$oooooooooX,$ooooo@++@",
"@++OX,$oooooooooX,$oooooooooX,$oooooooooX,$oooooooooX,$ooooooO++",
"++OOX>oXXXXXXXXXX>oXXXXXXXXXX>oXXXXXXXXXX>oXXXXXXXXXX>oXXXXXXOO+",
"OO,,>>>,,,>>>,,,>>>,,,>>>,,,>>>,,,>>>,,,>>>,,,>>>,,,>>>,,,>>>,,O",
"$$$$$$$$$$o>$$$$$$$$$$o>$$$$$$$$$$o>$$$$$$$$$$o>$$$$$$$$$$o>$$$$",
"$oooooooooX,$oooooooooX,$oooooooooX,$oooooooooX,$oooooooooX,$ooo",
"$oooooooooX,$oooooooooX,$oooooooooX,$oooooooooX,$oooooooooX,$ooo",
"$oooooooooX,$oooooooooX,$oooooooooX,$oooooooooX,$oooooooooX,$ooo",
"oXXXXXXXXXX>oXXXXXXXXXX>oXXXXXXXXXX>oXXXXXXXXXX>oXXXXXXXXXX>oXXX",
">,,,>>>,,,>>>,,,>>>,,,>>>,,,>>>,,,>>>,,,>>>,,,>>>,,,>>>,,,>>>,,,",
"$$$$o>$$$$$$$$$$o>$$$$$$$$$$o>$$$$$$$$$$o>$$$$$$$$$$o>$$$$$$$$$$",
"ooooX,$oooooooooX,$oooooooooX,$oooooooooX,$oooooooooX,$ooooooooo",
"ooooX,$oooooooooX,$oooooooooX,$oooooooooX,$oooooooooX,$ooooooooo",
"ooooX,$oooooooooX,$oooooooooX,$oooooooooX,$oooooooooX,$ooooooooo",
"XXXXX>oXXXXXXXXXX>oXXXXXXXXXX>oXXXXXXXXXX>oXXXXXXXXXX>oXXXXXXXXX",
">,,,>>>,,,>>>,,,>>>,,,>>>,,,>>>,,,>>>,,,>>>,,,>>>,,,>>>,,,>>>,,,",
"$$$$$$$$$$o>$$$$$$$$$$o>$$$$$$$$$$o>$$$$$$$$$$o>$$$$$$$$$$o>$$$$",
"$oooooooooX,$oooooooooX,$oooooooooX,$oooooooooX,$oooooooooX,$ooo",
"$oooooooooX,$oooooooooX,$oooooooooX,$oooooooooX,$oooooooooX,$ooo",
"$oooooooooX,$oooooooooX,$oooooooooX,$oooooooooX,$oooooooooX,$ooo",
"oXXXXXXXXXX>oXXXXXXXXXX>oXXXXXXXXXX>oXXXXXXXXXX>oXXXXXXXXXX>oXXX",
">,,,>>>,,,>>>,,,>>>,,,>>>,,,>>>,,,>>>,,,>>>,,,>>>,,,>>>,,,>>>,,,",
"$$$$o>$$$$$$$$$$o>$$$$$$$$$$o>$$$$$$$$$$o>$$$$$$$$$$o>$$$$$$$$$$",
"ooooX,$oooooooooX,$oooooooooX,$oooooooooX,$oooooooooX,$ooooooooo",
"ooooX,$oooooooooX,$oooooooooX,$oooooooooX,$oooooooooX,$ooooooooo",
"ooooX,$oooooooooX,$oooooooooX,$oooooooooX,$oooooooooX,$ooooooooo",
"XXXXX>oXXXXXXXXXX>oXXXXXXXXXX>oXXXXXXXXXX>oXXXXXXXXXX>oXXXXXXXXX",
">,,,>>>,,,>>>,,,>>>,,,>>>,,,>>>,,,>>>,,,>>> ,,>>>,,,>>>,,,>>>,,,",
"$$$$$$$$$$o>$$$$$$$$$$o>$$$$$$$$$$o>$$$<$$  $$o>$$$$$$$$$$o>$$$$",
"$oooooooooX,$oooooooooX,$oooooooooX,$o<<o   ooX,$oooooooooX,$ooo",
"$oooooooooX,$oooooooooX,$oooooooooX,$o<<o  oooX,$oooooooooX,$ooo",
"$oooooooooX,$oooooooooX,$oooooooooX,$oo<o ooooX,$oooooooooX,$ooo",
"oXXXXXXXXXX>oXXXXXXXXXX>oXXXXXXXXXX>oXXX<  XXXX>oXXXXXXXXXX>oXXX",
">,,,>>>,,,>>>,,,>>>,,,>>>,,,>>>,,,>>>,,,>> ,,,>>>,,,>>>,,,>>>,,,",
"$$$$o>$$$$$$$$$$o>$$$$$$$$$$o>$$$$$$$$$$o>$ $$$$$$$$o>$$$$$$$$$$",
"ooooX,$oooooooooX,$oooooooooX,$ooooooo%%X,$ oooo<oooX,$ooooooooo",
"ooooX,$oooooooooX,$oooooooooX,$oooooo:%%%%$o oo<<oooX,$ooooooooo",
"ooooX,$oooooooooX,$oooooooooX,$ooooo::%%%%%o o<<<oooX,$ooooooooo",
"XXXXX>oXXXXXXXXXX>oXXXXXXXXXX>oXXXXX:::%%% X X<<XXXXX>oXXXXXXXXX",
">,,,>>>,,,>>>,,,>>>,,,>>>,,,>>>,,,>>>::: % , ,<>>,,,>>>,,,>>>,,,",
"$$$$$$$$$$o>$$$$$$$$$$o>$$$$$$$$$$o>$::::  $ <o   $$$$$$$$o>$$$$",
"$oooooooooX,$oooooooooX,$oooooooooX,$o:      o   oooooooooX,$ooo",
"$oooooooooX,$oooooooooX,$oooooooooX,$oooooo   X,$oooooooooX,$ooo",
"$oooooooooX,$oooooooooX,$oooooooooX,$oooooo ooX,$oooooooooX,$ooo",
"oXXXXXXXXXX>oXXXXXXXXXX>oXXXXXXXXXX>oXXXXX XXXX>oXXXXXXXXXX>oXXX",
">,,,>>>,,,>>>,,,>>>,,,>>>,,,>..,,,>>><,,>> ,,,::>,,,>>>,,,>>>,,,",
"$$$$o>$$$$$$$$$$o>$$$$$$$$$$o..$$$$$$<<$o $$::::%$$$o>$$$$$$$$$$",
"ooooX,$oooooooooX,$ooo..ooo......oooo<<<X $:::::%%ooX,$ooooooooo",
"ooooX,..ooooooo..,$o..oo..o..,$oo..ooo<<X $ :::%%%ooX,.oooooo..o",
"ooooX,..ooooooo..,$o..oo..o..,$oo..oooo<X $ : %%%oooX,.oooooo..o",
"..XX..oX.XXXXXXXX>..XXXX.....>o....X   X< o  %%%%X..X>o..XX..XX.",
"..,,..>,.,>>>,,,>>..,,>>.....>>....>>   >      %>,..>>>..,>..,,.",
"..$$..$$$..>$..$$...$$.............>$$$$   $$$..$$..$$...$o..$$$",
"..oo..ooo..,$..oo...oo.............,$ooooo  oo..$o..oo...oX..ooo",
"$o....oo...,$.........................o..oo ooX,..oo..ooo....oo.",
"$o....oo...,$.........................o..oo ooX,..oo..ooo....oo.",
"........................................X.. X.X>..XX............"
};
