/* XPM */
static char *_d6dd7ea73284d86d2dc5a363e9fcff4UuIdJfmRKW0YC2eR[] = {
/* columns rows colors chars-per-pixel */
"64 64 55 1 ",
"  c #A58D84",
". c #AA9087",
"X c #B0968E",
"o c #B69C94",
"O c #BDA299",
"+ c #C1A79D",
"@ c #C6AA9F",
"# c #C4AAA2",
"$ c #C3AEAA",
"% c #CDB3AB",
"& c #D0B7AF",
"* c #D6BAAF",
"= c #CBB6B1",
"- c #D5BBB4",
"; c #D8BEB5",
": c #D6BDB9",
"> c #D9BFB9",
", c #DDC2BC",
"< c #E1C6BE",
"1 c #E4C8BF",
"2 c #DEC4C1",
"3 c #E1C6C1",
"4 c #E4CAC4",
"5 c #E5CAC5",
"6 c #E6CAC7",
"7 c #E6CCC6",
"8 c #E8CCC7",
"9 c #E6CBC8",
"0 c #E7CCC8",
"q c #E8CBC8",
"w c #E8CDC9",
"e c #E9CECB",
"r c #EBCFCC",
"t c #EBD0CA",
"y c #EDD1CB",
"u c #EBD0CD",
"i c #EDD1CF",
"p c #EED2CF",
"a c #EFD3CF",
"s c #F0D3CE",
"d c #F0D4CF",
"f c #EDD2D0",
"g c #EFD3D0",
"h c #EFD4D1",
"j c #F0D3D0",
"k c #F0D4D1",
"l c #F3D7D4",
"z c #F4D7D4",
"x c #F3D8D3",
"c c #F4D8D3",
"v c #F3D8D4",
"b c #F4D8D5",
"n c #F7DBD7",
"m c #F7DBD8",
"M c #F8DCD9",
/* pixels */
"gggkkkkkkkkkkkkkkkkkkkkkkkp7kkkklkklkkllllkkklllkkckkkktkkkkkkxk",
"pgpgppgjkkhkgpgggggkkkggkkpwgkkkkkkkkkkkkkhkkkkkkkkkkkkpkkkkkkkk",
"666066wwqw00ww66666633,,,,38w3,::>,<6366,,<333,,,,,,,,66<,::,>>:",
"kkkkkkkkkkkkkkgkkkkkkkkkkkkvbkpyyypkkkkkpkkkkkkpypyyppkkkptpy888",
"kkkkkkkllllllkwkllllllllllllbzzbvbbbbbbbbbkkbbbbllkkblblllllllll",
"kkklkkkkkllllh6klblllllbblllllllbbbbbbbbbbhkbbbbllkkllbbblllllll",
"kkklkkkllllllh9lllblbbbllllllblbbbbbbbbbbbklbbbbbblllbbbbbbbbbbl",
"kkllkkkkkllllk9lllllblllllbbbllbblbbbbbbbbkkbbbbbbllbbbbbbbbbbbb",
"kkkkkkkkklllkg3kllllllllllblbbbbblbbbbbbbbkkbbbbbbbbbbbbbbbbbbbb",
"kkkkkkkkllllkp6klllllllllllllbbbbbbbbbbbbbkkbbbbbbllbbbbbbbbbbbb",
"kkkkkkkkkkklkh0kllllllllbzzbbzzbbbbbbbbbbbklbbbbbbbbbbbbbbbbbbbb",
"66633336w06,:69wwwwww60076,,3608w876w0w63,666w6w87666660uw66663,",
"---:,,::::,,,36667000ww063,,6w78www866666<6,,<6w86,<,63,,,,,,,,,",
"kkkklllkklzlbbbbbbbbbbbbbbbkbbbbbbllkklzkkblkklbllzbbbmkbbbbbbbb",
"kkkkkkkkkkkkkkkkllkkllllllkplllllkkkkklkkkkkkkkkkkklkkl6kllllklb",
"llllkklkllllllllllbllllbllkglbblllllllvkkkklklllkkkkkll9kllllkkk",
"klllllkkllllllllllbllllllkkpllllllllllllpkkkkkkkklkllllrklllllll",
"kllllllkllllllllllllllllllkulllllllbllblkkkkkkkklblllllpllllllll",
"kkkllllkkkllllllllllllllllkplllllbbbbbllllllbbbllblllllpllllllll",
"kkllllkkkkklllllllllbbbblkkklbbllllbllklllllkvbbblblllkplllllllb",
"kkkgpgkghkkgpghkppppggppkkhgllllkkkkkkkkkkkkkkkklkkkklkppppkpgkk",
",,:,2,,,,,,3,,36w0www76660ukpppwwwtppww63666766w66<3<,6p6,,,:,,,",
"kkklllllllvbbkkbbbbmmbmmbbbmbbbbbbbbblblkkkbbbbbbbkkkkbmbbbxkcbb",
"llllkllllllbbllllllbbbbbllbbbblbbbblllbbbkkbbbbbbbbbbbbbbbbbbbbb",
"llllllbllbbbbgkbbbbbbbbbbbbbbblbbbbbbbbbbkkbbbbbbbbbbbbbbbbbbbbb",
"lllbbbbbbbbbbukbbbbbbbbbbbbbbbbbbbbbbbbbbkkbbbbbbbbbbbbbbbbbbbbb",
"lllllbbbbbbbb0hbbbbbbbbbllbbbbbbbbbbbbbbbgkbbbbbbbbbbbbbbbbbbbbb",
"llllllbbbbbbb6pbbbbbbbbbbbbbbbbbbbbbbbbbbppbbbbbbbbbbbbbbbbbbbbb",
"lllbbbbbbbbbb6pbbbbbbbbbbbbbbbbllbbbbbbbbppbbbbbbbbbbbmmbbbbbbbb",
"kklllllllbblb2ubbbbbbbbbbbbbkkkkkllbbbbbbppbbbbbbbbbbmmmbbbbbbbb",
"rwrppgpgpwwpp:3wpppppgp36wwuprpwpppkkpppkppppppp6667wwpww3266wrw",
"%%%-:,:-:,:::23,,3,>,,3,;-,6wwwww8761<<61db<*;>,<3%@%O>,3-&->*--",
"ppkkkkkkkbbbbmMmmbbbbbbbbxhMmMMMMMMMMmbbbbMMMbbMbbkkblbkmbbbbbbb",
"lbbbbbbbbbbbbbbbbbbbbbbbbh2bmbbbbbbbbbbbbbbbblbbkkkklbh6bbbvkklb",
"bbbbbbbbbbbbbbbbbbbbbbbbbg-vbbbbbbbbmbbbbbbbbbbbbbbbbbkwbbbbbbbb",
"bbbbbbbbbbbbbbbbbbbbbbbbbg=vbbmmbbbbbbmbbbbbbbbbbbbbbbkpbbbbbblb",
"bbmmmbbbbbbbbbbbbbbbbbmmbu$lbbmmbbbmmbbbbbbbbbbbbbbbbbkpbbbbbbbb",
"bbmmbbbbbbbbbbmbmmbbbbmbbg=vmbbbbbbbbbbbbbbbbbbbbbbbbblpbbbbbbbb",
"mmmmmbbbbbbbbbbmbbbbbbbbbk=lbbbbbbmbbbbmbbbbmbmmbbbbbblkbbbbbbbb",
"lblbblblllbbbbbblbbbblllkp-lbbbbbmmmbbbbbbmbmMMMmmbbbblkbbbbbbbb",
"3366336633366ww676666w666032,,,,3366wwwww8w6666633,,66pkwww6663<",
"gpkhkkkkphpkkpvbbkklbbbkkbkpwwt7pppdkkkkkdkkspppwypspkbbbbbkkkkk",
"bbbmmmbmmbbbvkmbbbbbMbbbbmbmMMMMMMMMMMMMMbmMMMmmmMMMMmmMMMMMmmmM",
"mmmmmmmmmmbbvlbbbbbbbbbbbbbbbbmbbbbbbbmbMbmMbmmmmmbbmmmmmmmmbbbm",
"mmmmmmmmmmmmbkbbbbbbbbbbbbbmbbmMbbmmbbbmbkbMbMMMMMmmmMMMMmMmmmmm",
"mmmmmmmmmmmmkubbmmbbbbbbbbbbbbmMmmmbbbbbbkbmbbMmMMMMMMMMMMMMmMMm",
"mmmmmmmmmmmmv0bbmmmmbbbbmmbbbbbbbbbmmmmmmbbmmmmMMMMmMMMMMmmMMMMM",
"mmmmmmmmmbmmv0bmmMMMmbbbmmmmmbbbmbmmmmmmmbbmMmmmMMmmmmmmmmMMmmmm",
"mmmmmmmmmbmml0bbmmbbbbbbbbbbbmbbbmbbbmmmmbbmmMMMMMmMmmMmmMMMMMmM",
"bmmmmbbbmmbbk6bbbmbbbbbmmmmmmbbmMMMMMMMMMbmMmbbbmmmmmmbbbmmbbMmm",
"puguupuuwruruuu0wwu66www7ww6666663666633667w363,3,3<<--,363,6666",
"pggppppphkhkkblkkkkxkhw6wt7wwtp83666<,,<<<668666<,3,,oo677ww6,,<",
"mmmmmmmbbbbbbbbbbmbbbmMmMMpbMmmmmmmMMMMMMMMMMmMMMMMMmbmbMMMMMMMM",
"mmmmmmmbbbmbmbbbmmmbbmmmbb0bbmmbbmmmmmmmmmmmMmmmMmbbmbbhmmMmMmmM",
"mmmmmmmmmmmmmmbbmmbbbbbbbb0bmbmmmmmMmmMmmmmMMMMMMMmmbmlummMMMMmM",
"mmmmmmmmmmmmmmmbmmbbbbbmmbrbmbmmmmmMmmmMmMMmMMMMmMMbbbkpmmmmmmMM",
"mmmmmmmmmmmmmbbbmbbmmbmmbbkbbmmbmmmmmmmmMMmmMMmMmmmbbblkmmmmmmmm",
"mmmmmmmmmmmmmmmbmmmmmmmmmmlbbbbbbbbbbmmmmmmmMmMMmbbbbbvgbbbbmbbb",
"mmmmmmmmmmmmmmmmbbbmmmmmmmklbbbbbbbbbmmmmbbbbbbbbbbbbblgMmmbbbbm",
"mmmmbmbmbvvvvbmmmbbbbmbbbmllbbbbbbbbmbmmmbbmbbbbbpgbklkgbmMMmmmm",
"pgggrwrrww9669r0609966233rgpwwwww06333366,,6w66w6,7r0666::,26ww6",
"---:,,,,,,22,,,,,:%&--:::,30w06333367766666w886,<p,%3%X+o .O##-,",
"lhllbmmmbbmmlmmbmmbmbbmmmmmmmMMMMMMMMMMMMlMMbMmbmMmbMmkkkkkbblkb",
"llllbmbmbbmmggllbbbbbbmmmmbbbbbbbbbbbbbmm0bmmbbbbbbbbbbbbblbllbb"
};
